<svg width="500" height="364" viewBox="0 0 500 364" fill="none" xmlns="http://www.w3.org/2000/svg">
<g clip-path="url(#clip0_625_119)">
<path d="M291.249 64.1507C300.62 64.1507 308.217 56.549 308.217 47.1718C308.217 37.7946 300.62 30.1929 291.249 30.1929C281.878 30.1929 274.282 37.7946 274.282 47.1718C274.282 56.549 281.878 64.1507 291.249 64.1507Z" fill="#F2F2F2"/>
<path d="M422.871 316.137C448.092 296.915 460.138 264.613 452.596 233.8C452.409 233.034 452.211 232.27 452.003 231.508C447.004 213.218 434.635 195.834 416.607 189.99C401.471 185.082 384.949 188.856 369.157 186.905C338.158 183.074 314.125 157.975 297.215 131.697C280.305 105.418 267.309 76.0026 244.839 54.2925C207.8 18.5072 147.382 10.8026 101.46 34.0962C55.5378 57.3898 26.286 109.069 27.5335 160.573C28.7811 212.077 59.3364 261.319 103.71 287.445C120.012 297.043 138.865 303.842 157.629 301.463C173.91 299.398 188.703 290.645 204.907 288.046C230.384 283.96 255.698 295.486 277.733 308.918C299.769 322.35 321.053 338.271 346.094 344.498C370.408 350.545 400.53 333.165 422.871 316.137Z" fill="#F2F2F2"/>
<path d="M386.636 35.1778C386.083 34.809 385.524 34.4592 384.971 34.1031C368.99 23.8752 351.86 15.5662 333.937 9.34768L329.781 66.7183H303.434V0.972921C301.775 0.629537 300.104 0.30523 298.433 0V66.7183H267.123C249.887 66.7183 233.357 59.8666 221.169 47.6705C208.981 35.4745 202.134 18.933 202.134 1.6852C200.456 2.04766 198.791 2.4355 197.126 2.84883V66.7183H171.625L167.666 12.0121C149.247 19.0809 131.76 28.3768 115.596 39.6927C115.316 39.8835 115.036 40.0806 114.763 40.2714C113.359 41.257 111.973 42.2617 110.594 43.2792V262.148H185.751L184.423 243.739L177.115 142.663H324.284L316.976 243.739L315.648 262.148H389.972V37.3907C388.866 36.6404 387.754 35.9028 386.636 35.1778ZM197.126 125.971H175.908L171.987 71.7292H197.126V125.971ZM298.433 125.971H262.796V124.896C262.796 124.38 262.694 123.868 262.496 123.391C262.299 122.914 262.009 122.48 261.643 122.115C261.278 121.75 260.844 121.461 260.367 121.264C259.89 121.067 259.378 120.966 258.862 120.967H243.369C242.854 120.966 242.343 121.068 241.866 121.265C241.39 121.463 240.957 121.752 240.592 122.117C240.227 122.482 239.938 122.915 239.741 123.392C239.544 123.869 239.442 124.38 239.442 124.896V125.971H202.134V71.7292H298.433V125.971ZM303.434 125.971V71.7292H329.418L325.498 125.971H303.434Z" fill="#F5BF33"/>
<path d="M386.636 35.1778C386.083 34.809 385.524 34.4592 384.971 34.1031C368.99 23.8752 351.86 15.5662 333.937 9.34768L329.781 66.7183H303.434V0.972921C301.775 0.629537 300.104 0.30523 298.433 0V66.7183H267.123C249.887 66.7183 233.357 59.8666 221.169 47.6705C208.981 35.4745 202.134 18.933 202.134 1.6852C200.456 2.04766 198.791 2.4355 197.126 2.84883V66.7183H171.625L167.666 12.0121C149.247 19.0809 131.76 28.3768 115.596 39.6927C115.316 39.8835 115.036 40.0806 114.763 40.2714C113.359 41.257 111.973 42.2617 110.594 43.2792V262.148H185.751L184.423 243.739L177.115 142.663H324.284L316.976 243.739L315.648 262.148H389.972V37.3907C388.866 36.6404 387.754 35.9028 386.636 35.1778ZM197.126 125.971H175.908L171.987 71.7292H197.126V125.971ZM298.433 125.971H262.796V124.896C262.796 124.38 262.694 123.868 262.496 123.391C262.299 122.914 262.009 122.48 261.643 122.115C261.278 121.75 260.844 121.461 260.367 121.264C259.89 121.067 259.378 120.966 258.862 120.967H243.369C242.854 120.966 242.343 121.068 241.866 121.265C241.39 121.463 240.957 121.752 240.592 122.117C240.227 122.482 239.938 122.915 239.741 123.392C239.544 123.869 239.442 124.38 239.442 124.896V125.971H202.134V71.7292H298.433V125.971ZM303.434 125.971V71.7292H329.418L325.498 125.971H303.434Z" fill="black" fill-opacity="0.2"/>
<path d="M-6.10352e-05 276.164C5.52042 282.71 11.4915 288.861 17.8693 294.573L482.131 295.209C488.508 289.497 494.479 283.346 500 276.8L-6.10352e-05 276.164Z" fill="#F5BF33"/>
<path d="M-6.10352e-05 276.164C5.52042 282.71 11.4915 288.861 17.8693 294.573L482.131 295.209C488.508 289.497 494.479 283.346 500 276.8L-6.10352e-05 276.164Z" fill="black" fill-opacity="0.2"/>
<path d="M314.831 217.217V271.716C314.831 272.41 315.107 273.076 315.598 273.567C316.089 274.058 316.754 274.334 317.448 274.335H398.156C398.85 274.334 399.515 274.058 400.006 273.567C400.497 273.076 400.773 272.41 400.773 271.716V217.217C400.771 216.523 400.495 215.858 400.004 215.367C399.514 214.877 398.849 214.601 398.156 214.6H317.448C316.755 214.601 316.09 214.877 315.599 215.367C315.109 215.858 314.832 216.523 314.831 217.217Z" fill="#3F3D56"/>
<path d="M316.724 217.895V271.043C316.725 271.414 316.872 271.77 317.134 272.033C317.397 272.295 317.752 272.443 318.123 272.443H397.484C397.854 272.443 398.21 272.295 398.472 272.033C398.734 271.77 398.882 271.414 398.883 271.043V217.895C398.883 217.523 398.735 217.167 398.473 216.904C398.211 216.641 397.855 216.493 397.484 216.492H318.123C317.752 216.493 317.396 216.641 317.133 216.904C316.871 217.167 316.724 217.523 316.724 217.895Z" fill="#F5BF33"/>
<path d="M313.142 282.345C313.29 282.53 313.478 282.68 313.692 282.782C313.906 282.884 314.14 282.937 314.377 282.936H400.796C401.033 282.936 401.266 282.883 401.479 282.781C401.692 282.679 401.88 282.531 402.029 282.347C402.178 282.163 402.284 281.949 402.34 281.719C402.395 281.489 402.399 281.25 402.351 281.018L401.009 274.642C400.954 274.382 400.834 274.14 400.661 273.938C400.488 273.736 400.267 273.581 400.019 273.486C399.839 273.415 399.648 273.379 399.455 273.379H315.714C315.521 273.379 315.329 273.415 315.149 273.486C314.901 273.581 314.68 273.736 314.507 273.938C314.334 274.14 314.215 274.382 314.159 274.642L312.818 281.018C312.77 281.249 312.774 281.489 312.831 281.718C312.887 281.947 312.993 282.161 313.142 282.345Z" fill="#2F2E41"/>
<path d="M396.49 276.126H398.531C398.702 276.126 398.841 275.987 398.841 275.815V274.838C398.841 274.667 398.702 274.528 398.531 274.528H396.49C396.318 274.528 396.179 274.667 396.179 274.838V275.815C396.179 275.987 396.318 276.126 396.49 276.126Z" fill="#3F3D56"/>
<path d="M391.166 276.126H393.207C393.379 276.126 393.518 275.987 393.518 275.815V274.838C393.518 274.667 393.379 274.528 393.207 274.528H391.166C390.995 274.528 390.856 274.667 390.856 274.838V275.815C390.856 275.987 390.995 276.126 391.166 276.126Z" fill="#3F3D56"/>
<path d="M385.843 276.126H387.884C388.055 276.126 388.194 275.987 388.194 275.815V274.838C388.194 274.667 388.055 274.528 387.884 274.528H385.843C385.672 274.528 385.533 274.667 385.533 274.838V275.815C385.533 275.987 385.672 276.126 385.843 276.126Z" fill="#3F3D56"/>
<path d="M380.52 276.126H382.561C382.732 276.126 382.871 275.987 382.871 275.815V274.838C382.871 274.667 382.732 274.528 382.561 274.528H380.52C380.348 274.528 380.209 274.667 380.209 274.838V275.815C380.209 275.987 380.348 276.126 380.52 276.126Z" fill="#3F3D56"/>
<path d="M375.196 276.126H377.238C377.409 276.126 377.548 275.987 377.548 275.815V274.838C377.548 274.667 377.409 274.528 377.238 274.528H375.196C375.025 274.528 374.886 274.667 374.886 274.838V275.815C374.886 275.987 375.025 276.126 375.196 276.126Z" fill="#3F3D56"/>
<path d="M369.873 276.126H371.914C372.086 276.126 372.224 275.987 372.224 275.815V274.838C372.224 274.667 372.086 274.528 371.914 274.528H369.873C369.702 274.528 369.563 274.667 369.563 274.838V275.815C369.563 275.987 369.702 276.126 369.873 276.126Z" fill="#3F3D56"/>
<path d="M364.55 276.126H366.591C366.762 276.126 366.901 275.987 366.901 275.815V274.838C366.901 274.667 366.762 274.528 366.591 274.528H364.55C364.378 274.528 364.239 274.667 364.239 274.838V275.815C364.239 275.987 364.378 276.126 364.55 276.126Z" fill="#3F3D56"/>
<path d="M359.226 276.126H361.268C361.439 276.126 361.578 275.987 361.578 275.815V274.838C361.578 274.667 361.439 274.528 361.268 274.528H359.226C359.055 274.528 358.916 274.667 358.916 274.838V275.815C358.916 275.987 359.055 276.126 359.226 276.126Z" fill="#3F3D56"/>
<path d="M353.903 276.126H355.944C356.116 276.126 356.255 275.987 356.255 275.815V274.838C356.255 274.667 356.116 274.528 355.944 274.528H353.903C353.732 274.528 353.593 274.667 353.593 274.838V275.815C353.593 275.987 353.732 276.126 353.903 276.126Z" fill="#3F3D56"/>
<path d="M348.58 276.126H350.621C350.792 276.126 350.931 275.987 350.931 275.815V274.838C350.931 274.667 350.792 274.528 350.621 274.528H348.58C348.408 274.528 348.269 274.667 348.269 274.838V275.815C348.269 275.987 348.408 276.126 348.58 276.126Z" fill="#3F3D56"/>
<path d="M343.256 276.126H345.298C345.469 276.126 345.608 275.987 345.608 275.815V274.838C345.608 274.667 345.469 274.528 345.298 274.528H343.256C343.085 274.528 342.946 274.667 342.946 274.838V275.815C342.946 275.987 343.085 276.126 343.256 276.126Z" fill="#3F3D56"/>
<path d="M337.933 276.126H339.974C340.146 276.126 340.285 275.987 340.285 275.815V274.838C340.285 274.667 340.146 274.528 339.974 274.528H337.933C337.762 274.528 337.623 274.667 337.623 274.838V275.815C337.623 275.987 337.762 276.126 337.933 276.126Z" fill="#3F3D56"/>
<path d="M332.61 276.126H334.651C334.822 276.126 334.961 275.987 334.961 275.815V274.838C334.961 274.667 334.822 274.528 334.651 274.528H332.61C332.438 274.528 332.3 274.667 332.3 274.838V275.815C332.3 275.987 332.438 276.126 332.61 276.126Z" fill="#3F3D56"/>
<path d="M327.287 276.126H329.328C329.499 276.126 329.638 275.987 329.638 275.815V274.838C329.638 274.667 329.499 274.528 329.328 274.528H327.287C327.115 274.528 326.976 274.667 326.976 274.838V275.815C326.976 275.987 327.115 276.126 327.287 276.126Z" fill="#3F3D56"/>
<path d="M321.963 276.126H324.004C324.176 276.126 324.315 275.987 324.315 275.815V274.838C324.315 274.667 324.176 274.528 324.004 274.528H321.963C321.792 274.528 321.653 274.667 321.653 274.838V275.815C321.653 275.987 321.792 276.126 321.963 276.126Z" fill="#3F3D56"/>
<path d="M316.64 276.126H318.681C318.852 276.126 318.991 275.987 318.991 275.815V274.838C318.991 274.667 318.852 274.528 318.681 274.528H316.64C316.469 274.528 316.33 274.667 316.33 274.838V275.815C316.33 275.987 316.469 276.126 316.64 276.126Z" fill="#3F3D56"/>
<path d="M396.552 278.789H398.594C398.765 278.789 398.904 278.65 398.904 278.479V277.502C398.904 277.33 398.765 277.191 398.594 277.191H396.552C396.381 277.191 396.242 277.33 396.242 277.502V278.479C396.242 278.65 396.381 278.789 396.552 278.789Z" fill="#3F3D56"/>
<path d="M391.229 278.789H393.27C393.442 278.789 393.581 278.65 393.581 278.479V277.502C393.581 277.33 393.442 277.191 393.27 277.191H391.229C391.058 277.191 390.919 277.33 390.919 277.502V278.479C390.919 278.65 391.058 278.789 391.229 278.789Z" fill="#3F3D56"/>
<path d="M385.906 278.789H387.947C388.118 278.789 388.257 278.65 388.257 278.479V277.502C388.257 277.33 388.118 277.191 387.947 277.191H385.906C385.735 277.191 385.596 277.33 385.596 277.502V278.479C385.596 278.65 385.735 278.789 385.906 278.789Z" fill="#3F3D56"/>
<path d="M380.583 278.789H382.624C382.795 278.789 382.934 278.65 382.934 278.479V277.502C382.934 277.33 382.795 277.191 382.624 277.191H380.583C380.411 277.191 380.272 277.33 380.272 277.502V278.479C380.272 278.65 380.411 278.789 380.583 278.789Z" fill="#3F3D56"/>
<path d="M375.259 278.789H377.3C377.472 278.789 377.611 278.65 377.611 278.479V277.502C377.611 277.33 377.472 277.191 377.3 277.191H375.259C375.088 277.191 374.949 277.33 374.949 277.502V278.479C374.949 278.65 375.088 278.789 375.259 278.789Z" fill="#3F3D56"/>
<path d="M369.936 278.789H371.977C372.148 278.789 372.287 278.65 372.287 278.479V277.502C372.287 277.33 372.148 277.191 371.977 277.191H369.936C369.765 277.191 369.626 277.33 369.626 277.502V278.479C369.626 278.65 369.765 278.789 369.936 278.789Z" fill="#3F3D56"/>
<path d="M364.613 278.789H366.654C366.825 278.789 366.964 278.65 366.964 278.479V277.502C366.964 277.33 366.825 277.191 366.654 277.191H364.613C364.441 277.191 364.302 277.33 364.302 277.502V278.479C364.302 278.65 364.441 278.789 364.613 278.789Z" fill="#3F3D56"/>
<path d="M359.289 278.789H361.33C361.502 278.789 361.641 278.65 361.641 278.479V277.502C361.641 277.33 361.502 277.191 361.33 277.191H359.289C359.118 277.191 358.979 277.33 358.979 277.502V278.479C358.979 278.65 359.118 278.789 359.289 278.789Z" fill="#3F3D56"/>
<path d="M353.966 278.789H356.007C356.179 278.789 356.317 278.65 356.317 278.479V277.502C356.317 277.33 356.179 277.191 356.007 277.191H353.966C353.795 277.191 353.656 277.33 353.656 277.502V278.479C353.656 278.65 353.795 278.789 353.966 278.789Z" fill="#3F3D56"/>
<path d="M348.643 278.789H350.684C350.855 278.789 350.994 278.65 350.994 278.479V277.502C350.994 277.33 350.855 277.191 350.684 277.191H348.643C348.471 277.191 348.332 277.33 348.332 277.502V278.479C348.332 278.65 348.471 278.789 348.643 278.789Z" fill="#3F3D56"/>
<path d="M343.319 278.789H345.36C345.532 278.789 345.671 278.65 345.671 278.479V277.502C345.671 277.33 345.532 277.191 345.36 277.191H343.319C343.148 277.191 343.009 277.33 343.009 277.502V278.479C343.009 278.65 343.148 278.789 343.319 278.789Z" fill="#3F3D56"/>
<path d="M337.996 278.789H340.037C340.208 278.789 340.347 278.65 340.347 278.479V277.502C340.347 277.33 340.208 277.191 340.037 277.191H337.996C337.825 277.191 337.686 277.33 337.686 277.502V278.479C337.686 278.65 337.825 278.789 337.996 278.789Z" fill="#3F3D56"/>
<path d="M332.673 278.789H334.714C334.885 278.789 335.024 278.65 335.024 278.479V277.502C335.024 277.33 334.885 277.191 334.714 277.191H332.673C332.501 277.191 332.363 277.33 332.363 277.502V278.479C332.363 278.65 332.501 278.789 332.673 278.789Z" fill="#3F3D56"/>
<path d="M327.349 278.789H329.391C329.562 278.789 329.701 278.65 329.701 278.479V277.502C329.701 277.33 329.562 277.191 329.391 277.191H327.349C327.178 277.191 327.039 277.33 327.039 277.502V278.479C327.039 278.65 327.178 278.789 327.349 278.789Z" fill="#3F3D56"/>
<path d="M322.026 278.789H324.067C324.239 278.789 324.378 278.65 324.378 278.479V277.502C324.378 277.33 324.239 277.191 324.067 277.191H322.026C321.855 277.191 321.716 277.33 321.716 277.502V278.479C321.716 278.65 321.855 278.789 322.026 278.789Z" fill="#3F3D56"/>
<path d="M316.703 278.789H318.744C318.915 278.789 319.054 278.65 319.054 278.479V277.502C319.054 277.33 318.915 277.191 318.744 277.191H316.703C316.531 277.191 316.393 277.33 316.393 277.502V278.479C316.393 278.65 316.531 278.789 316.703 278.789Z" fill="#3F3D56"/>
<path d="M352.369 281.985H373.042C373.213 281.985 373.352 281.846 373.352 281.675V280.698C373.352 280.526 373.213 280.387 373.042 280.387H352.369C352.198 280.387 352.059 280.526 352.059 280.698V281.675C352.059 281.846 352.198 281.985 352.369 281.985Z" fill="#3F3D56"/>
<path d="M330.467 228.12H328.66C328.112 228.12 327.668 228.564 327.668 229.112C327.668 229.661 328.112 230.105 328.66 230.105H330.467C331.015 230.105 331.459 229.661 331.459 229.112C331.459 228.564 331.015 228.12 330.467 228.12Z" fill="white"/>
<path d="M351.134 228.12H349.327C348.779 228.12 348.335 228.564 348.335 229.112C348.335 229.661 348.779 230.105 349.327 230.105H351.134C351.682 230.105 352.126 229.661 352.126 229.112C352.126 228.564 351.682 228.12 351.134 228.12Z" fill="white"/>
<path d="M356.99 228.12H355.183C354.635 228.12 354.191 228.564 354.191 229.112C354.191 229.661 354.635 230.105 355.183 230.105H356.99C357.538 230.105 357.982 229.661 357.982 229.112C357.982 228.564 357.538 228.12 356.99 228.12Z" fill="white"/>
<path d="M345.513 227.954H334.281C333.733 227.954 333.289 228.399 333.289 228.947C333.289 229.495 333.733 229.94 334.281 229.94H345.513C346.06 229.94 346.505 229.495 346.505 228.947C346.505 228.399 346.06 227.954 345.513 227.954Z" fill="white"/>
<path d="M373.069 227.954H361.838C361.29 227.954 360.846 228.399 360.846 228.947C360.846 229.495 361.29 229.94 361.838 229.94H373.069C373.617 229.94 374.061 229.495 374.061 228.947C374.061 228.399 373.617 227.954 373.069 227.954Z" fill="white"/>
<path d="M335.978 232.601H334.171C333.623 232.601 333.179 233.045 333.179 233.593C333.179 234.142 333.623 234.586 334.171 234.586H335.978C336.526 234.586 336.97 234.142 336.97 233.593C336.97 233.045 336.526 232.601 335.978 232.601Z" fill="white"/>
<path d="M356.646 232.601H354.838C354.291 232.601 353.846 233.045 353.846 233.593C353.846 234.142 354.291 234.586 354.838 234.586H356.646C357.193 234.586 357.638 234.142 357.638 233.593C357.638 233.045 357.193 232.601 356.646 232.601Z" fill="white"/>
<path d="M362.501 232.601H360.694C360.146 232.601 359.702 233.045 359.702 233.593C359.702 234.142 360.146 234.586 360.694 234.586H362.501C363.049 234.586 363.493 234.142 363.493 233.593C363.493 233.045 363.049 232.601 362.501 232.601Z" fill="white"/>
<path d="M351.024 232.435H339.793C339.245 232.435 338.801 232.88 338.801 233.428C338.801 233.976 339.245 234.42 339.793 234.42H351.024C351.572 234.42 352.016 233.976 352.016 233.428C352.016 232.88 351.572 232.435 351.024 232.435Z" fill="white"/>
<path d="M378.58 232.435H367.349C366.801 232.435 366.357 232.88 366.357 233.428C366.357 233.976 366.801 234.42 367.349 234.42H378.58C379.128 234.42 379.572 233.976 379.572 233.428C379.572 232.88 379.128 232.435 378.58 232.435Z" fill="white"/>
<path d="M341.489 237.082H339.682C339.134 237.082 338.69 237.526 338.69 238.074C338.69 238.623 339.134 239.067 339.682 239.067H341.489C342.037 239.067 342.481 238.623 342.481 238.074C342.481 237.526 342.037 237.082 341.489 237.082Z" fill="white"/>
<path d="M362.157 237.082H360.35C359.802 237.082 359.358 237.526 359.358 238.074C359.358 238.623 359.802 239.067 360.35 239.067H362.157C362.705 239.067 363.149 238.623 363.149 238.074C363.149 237.526 362.705 237.082 362.157 237.082Z" fill="white"/>
<path d="M368.012 237.082H366.205C365.658 237.082 365.213 237.526 365.213 238.074C365.213 238.623 365.658 239.067 366.205 239.067H368.012C368.56 239.067 369.004 238.623 369.004 238.074C369.004 237.526 368.56 237.082 368.012 237.082Z" fill="white"/>
<path d="M356.535 236.916H345.304C344.756 236.916 344.312 237.361 344.312 237.909C344.312 238.457 344.756 238.902 345.304 238.902H356.535C357.083 238.902 357.527 238.457 357.527 237.909C357.527 237.361 357.083 236.916 356.535 236.916Z" fill="white"/>
<path d="M384.092 236.916H372.86C372.313 236.916 371.868 237.361 371.868 237.909C371.868 238.457 372.313 238.902 372.86 238.902H384.092C384.64 238.902 385.084 238.457 385.084 237.909C385.084 237.361 384.64 236.916 384.092 236.916Z" fill="white"/>
<path d="M347.001 241.562H345.194C344.646 241.562 344.202 242.007 344.202 242.555C344.202 243.103 344.646 243.548 345.194 243.548H347.001C347.549 243.548 347.993 243.103 347.993 242.555C347.993 242.007 347.549 241.562 347.001 241.562Z" fill="white"/>
<path d="M367.668 241.562H365.861C365.313 241.562 364.869 242.007 364.869 242.555C364.869 243.103 365.313 243.548 365.861 243.548H367.668C368.216 243.548 368.66 243.103 368.66 242.555C368.66 242.007 368.216 241.562 367.668 241.562Z" fill="white"/>
<path d="M373.524 241.562H371.717C371.169 241.562 370.725 242.007 370.725 242.555C370.725 243.103 371.169 243.548 371.717 243.548H373.524C374.072 243.548 374.516 243.103 374.516 242.555C374.516 242.007 374.072 241.562 373.524 241.562Z" fill="white"/>
<path d="M362.047 241.397H350.815C350.267 241.397 349.823 241.842 349.823 242.39C349.823 242.938 350.267 243.382 350.815 243.382H362.047C362.594 243.382 363.039 242.938 363.039 242.39C363.039 241.842 362.594 241.397 362.047 241.397Z" fill="white"/>
<path d="M351.134 259.381H349.327C348.779 259.381 348.335 259.825 348.335 260.373C348.335 260.922 348.779 261.366 349.327 261.366H351.134C351.682 261.366 352.126 260.922 352.126 260.373C352.126 259.825 351.682 259.381 351.134 259.381Z" fill="white"/>
<path d="M356.99 259.381H355.183C354.635 259.381 354.191 259.825 354.191 260.373C354.191 260.922 354.635 261.366 355.183 261.366H356.99C357.538 261.366 357.982 260.922 357.982 260.373C357.982 259.825 357.538 259.381 356.99 259.381Z" fill="white"/>
<path d="M373.069 259.546H361.838C361.29 259.546 360.846 259.991 360.846 260.539C360.846 261.087 361.29 261.532 361.838 261.532H373.069C373.617 261.532 374.061 261.087 374.061 260.539C374.061 259.991 373.617 259.546 373.069 259.546Z" fill="white"/>
<path d="M330.467 259.381H328.66C328.112 259.381 327.668 259.825 327.668 260.373C327.668 260.922 328.112 261.366 328.66 261.366H330.467C331.015 261.366 331.459 260.922 331.459 260.373C331.459 259.825 331.015 259.381 330.467 259.381Z" fill="white"/>
<path d="M345.513 259.546H334.281C333.733 259.546 333.289 259.991 333.289 260.539C333.289 261.087 333.733 261.532 334.281 261.532H345.513C346.06 261.532 346.505 261.087 346.505 260.539C346.505 259.991 346.06 259.546 345.513 259.546Z" fill="white"/>
<path d="M335.978 254.9H334.171C333.623 254.9 333.179 255.344 333.179 255.892C333.179 256.441 333.623 256.885 334.171 256.885H335.978C336.526 256.885 336.97 256.441 336.97 255.892C336.97 255.344 336.526 254.9 335.978 254.9Z" fill="white"/>
<path d="M356.646 254.9H354.838C354.291 254.9 353.846 255.344 353.846 255.892C353.846 256.441 354.291 256.885 354.838 256.885H356.646C357.193 256.885 357.638 256.441 357.638 255.892C357.638 255.344 357.193 254.9 356.646 254.9Z" fill="white"/>
<path d="M362.501 254.9H360.694C360.146 254.9 359.702 255.344 359.702 255.892C359.702 256.441 360.146 256.885 360.694 256.885H362.501C363.049 256.885 363.493 256.441 363.493 255.892C363.493 255.344 363.049 254.9 362.501 254.9Z" fill="white"/>
<path d="M351.024 255.065H339.793C339.245 255.065 338.801 255.51 338.801 256.058C338.801 256.606 339.245 257.051 339.793 257.051H351.024C351.572 257.051 352.016 256.606 352.016 256.058C352.016 255.51 351.572 255.065 351.024 255.065Z" fill="white"/>
<path d="M341.489 250.419H339.682C339.134 250.419 338.69 250.863 338.69 251.412C338.69 251.96 339.134 252.404 339.682 252.404H341.489C342.037 252.404 342.481 251.96 342.481 251.412C342.481 250.863 342.037 250.419 341.489 250.419Z" fill="white"/>
<path d="M362.157 250.419H360.35C359.802 250.419 359.358 250.863 359.358 251.412C359.358 251.96 359.802 252.404 360.35 252.404H362.157C362.705 252.404 363.149 251.96 363.149 251.412C363.149 250.863 362.705 250.419 362.157 250.419Z" fill="white"/>
<path d="M368.012 250.419H366.205C365.658 250.419 365.213 250.863 365.213 251.412C365.213 251.96 365.658 252.404 366.205 252.404H368.012C368.56 252.404 369.004 251.96 369.004 251.412C369.004 250.863 368.56 250.419 368.012 250.419Z" fill="white"/>
<path d="M356.535 250.584H345.304C344.756 250.584 344.312 251.029 344.312 251.577C344.312 252.125 344.756 252.57 345.304 252.57H356.535C357.083 252.57 357.527 252.125 357.527 251.577C357.527 251.029 357.083 250.584 356.535 250.584Z" fill="white"/>
<path d="M347.001 245.938H345.194C344.646 245.938 344.202 246.382 344.202 246.93C344.202 247.479 344.646 247.923 345.194 247.923H347.001C347.549 247.923 347.993 247.479 347.993 246.93C347.993 246.382 347.549 245.938 347.001 245.938Z" fill="white"/>
<path d="M367.668 245.938H365.861C365.313 245.938 364.869 246.382 364.869 246.93C364.869 247.479 365.313 247.923 365.861 247.923H367.668C368.216 247.923 368.66 247.479 368.66 246.93C368.66 246.382 368.216 245.938 367.668 245.938Z" fill="white"/>
<path d="M373.524 245.938H371.717C371.169 245.938 370.725 246.382 370.725 246.93C370.725 247.479 371.169 247.923 371.717 247.923H373.524C374.072 247.923 374.516 247.479 374.516 246.93C374.516 246.382 374.072 245.938 373.524 245.938Z" fill="white"/>
<path d="M362.047 246.103H350.815C350.267 246.103 349.823 246.548 349.823 247.096C349.823 247.644 350.267 248.089 350.815 248.089H362.047C362.594 248.089 363.039 247.644 363.039 247.096C363.039 246.548 362.594 246.103 362.047 246.103Z" fill="white"/>
<path d="M320.859 311.896L312.376 298.477L339.004 277.236L349.994 265.052C351.422 263.469 353.24 262.289 355.267 261.629C357.293 260.97 359.457 260.854 361.543 261.293C363.628 261.733 365.562 262.712 367.15 264.134C368.739 265.555 369.926 267.369 370.595 269.394C371.586 272.394 371.373 275.663 370.001 278.509C368.629 281.356 366.206 283.557 363.243 284.65L345.863 291.057L320.859 311.896Z" fill="#FFB6B6"/>
<path d="M121.813 214.603V279.82H167.471V214.603C167.472 214.134 167.323 213.677 167.045 213.299C166.767 212.921 166.375 212.643 165.927 212.504C165.716 212.435 165.495 212.4 165.273 212.403H124.018C123.729 212.402 123.442 212.459 123.175 212.569C122.908 212.679 122.665 212.841 122.46 213.045C122.255 213.25 122.093 213.493 121.982 213.76C121.871 214.027 121.813 214.314 121.813 214.603ZM139.632 237.012C139.643 235.726 140.162 234.497 141.075 233.592C141.988 232.687 143.221 232.18 144.506 232.18C145.79 232.18 147.023 232.687 147.936 233.592C148.849 234.497 149.368 235.726 149.38 237.012V244.579C149.373 245.868 148.857 247.103 147.943 248.012C147.03 248.921 145.794 249.432 144.506 249.432C143.217 249.432 141.981 248.921 141.068 248.012C140.155 247.103 139.638 245.868 139.632 244.579V237.012Z" fill="#2F2E41"/>
<path d="M121.673 277.735V284.024C121.674 284.35 121.804 284.662 122.033 284.893C122.263 285.124 122.574 285.255 122.9 285.257H166.385C166.711 285.256 167.023 285.125 167.253 284.894C167.482 284.663 167.611 284.35 167.611 284.024V277.735H121.673Z" fill="#3F3D56"/>
<path d="M49.986 116.344V235.422C49.9872 236.94 50.5901 238.395 51.6624 239.468C52.7347 240.541 54.1887 241.144 55.7052 241.145H232.048C233.564 241.144 235.018 240.541 236.091 239.468C237.163 238.395 237.766 236.94 237.767 235.422V116.344C237.764 114.828 237.16 113.375 236.088 112.304C235.016 111.232 233.563 110.629 232.048 110.628H55.7052C54.19 110.629 52.7374 111.232 51.6655 112.304C50.5935 113.375 49.9896 114.828 49.986 116.344Z" fill="#3F3D56"/>
<path d="M54.1229 117.826V233.953C54.1243 234.764 54.4467 235.541 55.0197 236.114C55.5926 236.688 56.3692 237.011 57.1795 237.012H230.58C231.39 237.011 232.167 236.688 232.74 236.114C233.313 235.541 233.635 234.764 233.637 233.953V117.826C233.637 117.014 233.315 116.235 232.742 115.661C232.169 115.086 231.391 114.763 230.58 114.761H57.1795C56.3682 114.763 55.5909 115.086 55.0178 115.661C54.4448 116.235 54.1229 117.014 54.1229 117.826Z" fill="white"/>
<path d="M86.303 284.831C86.4795 285.053 86.7039 285.231 86.9592 285.354C87.2146 285.476 87.4943 285.539 87.7773 285.537H190.939C191.222 285.537 191.5 285.473 191.755 285.352C192.009 285.23 192.234 285.053 192.411 284.834C192.589 284.615 192.716 284.359 192.782 284.084C192.848 283.81 192.853 283.524 192.795 283.248L191.194 275.636C191.127 275.326 190.984 275.037 190.778 274.796C190.571 274.555 190.308 274.369 190.012 274.256C189.797 274.172 189.569 274.129 189.338 274.129H89.3724C89.1418 274.129 88.9133 274.172 88.6988 274.256C88.4024 274.369 88.1389 274.555 87.9325 274.796C87.726 275.037 87.5831 275.326 87.5168 275.636L85.9154 283.248C85.8584 283.524 85.8636 283.809 85.9307 284.083C85.9978 284.357 86.1249 284.613 86.303 284.831Z" fill="#2F2E41"/>
<path d="M224.953 130.758H62.7024C62.5338 130.754 62.3733 130.684 62.2553 130.564C62.1374 130.443 62.0714 130.281 62.0714 130.112C62.0714 129.943 62.1374 129.781 62.2553 129.661C62.3733 129.54 62.5338 129.47 62.7024 129.467H224.953C225.121 129.47 225.282 129.54 225.4 129.661C225.518 129.781 225.584 129.943 225.584 130.112C225.584 130.281 225.518 130.443 225.4 130.564C225.282 130.684 225.121 130.754 224.953 130.758Z" fill="#3F3D56"/>
<path d="M73.747 126.17C75.8354 126.17 77.5283 124.438 77.5283 122.302C77.5283 120.165 75.8354 118.434 73.747 118.434C71.6586 118.434 69.9657 120.165 69.9657 122.302C69.9657 124.438 71.6586 126.17 73.747 126.17Z" fill="#3F3D56"/>
<path d="M86.8097 126.17C88.8981 126.17 90.591 124.438 90.591 122.302C90.591 120.165 88.8981 118.434 86.8097 118.434C84.7213 118.434 83.0284 120.165 83.0284 122.302C83.0284 124.438 84.7213 126.17 86.8097 126.17Z" fill="#3F3D56"/>
<path d="M99.8724 126.17C101.961 126.17 103.654 124.438 103.654 122.302C103.654 120.165 101.961 118.434 99.8724 118.434C97.7841 118.434 96.0911 120.165 96.0911 122.302C96.0911 124.438 97.7841 126.17 99.8724 126.17Z" fill="#3F3D56"/>
<path d="M217.087 119.39H207.809C207.625 119.394 207.451 119.47 207.323 119.602C207.195 119.733 207.123 119.909 207.123 120.093C207.123 120.276 207.195 120.453 207.323 120.584C207.451 120.715 207.625 120.791 207.809 120.795H217.087C217.271 120.793 217.447 120.718 217.577 120.586C217.706 120.455 217.779 120.277 217.779 120.093C217.779 119.908 217.706 119.731 217.577 119.599C217.447 119.468 217.271 119.393 217.087 119.39Z" fill="#3F3D56"/>
<path d="M217.087 122.029H207.809C207.625 122.033 207.451 122.109 207.322 122.24C207.194 122.372 207.122 122.548 207.122 122.732C207.122 122.916 207.194 123.092 207.322 123.223C207.451 123.355 207.625 123.43 207.809 123.435H217.087C217.271 123.432 217.448 123.357 217.578 123.226C217.708 123.094 217.78 122.917 217.78 122.732C217.78 122.547 217.708 122.369 217.578 122.238C217.448 122.106 217.271 122.031 217.087 122.029Z" fill="#3F3D56"/>
<path d="M217.087 124.668H207.809C207.625 124.672 207.451 124.748 207.323 124.879C207.195 125.011 207.123 125.187 207.123 125.371C207.123 125.554 207.195 125.73 207.323 125.862C207.451 125.993 207.625 126.069 207.809 126.073H217.087C217.271 126.071 217.447 125.996 217.577 125.864C217.706 125.733 217.779 125.555 217.779 125.371C217.779 125.186 217.706 125.009 217.577 124.877C217.447 124.746 217.271 124.671 217.087 124.668Z" fill="#3F3D56"/>
<path d="M440.759 280.495C441.039 281.31 441.57 282.016 442.276 282.511C442.982 283.006 443.826 283.264 444.688 283.249L461.523 282.815C462.391 282.798 463.23 282.501 463.915 281.967C464.6 281.433 465.094 280.692 465.323 279.854L467.706 254.363C468.551 254.746 469.471 254.935 470.399 254.916C471.205 254.896 471.999 254.717 472.736 254.39C473.473 254.062 474.138 253.593 474.694 253.008C475.249 252.424 475.684 251.735 475.974 250.983C476.264 250.23 476.402 249.427 476.382 248.62C476.362 247.814 476.183 247.019 475.856 246.282C475.529 245.544 475.06 244.879 474.476 244.323C473.891 243.767 473.203 243.331 472.451 243.041C471.699 242.752 470.897 242.613 470.091 242.633C469.72 242.632 469.35 242.67 468.987 242.748C468.593 242.321 468.114 241.981 467.58 241.751C467.047 241.521 466.471 241.405 465.89 241.41L439.994 242.08C439.78 242.088 439.566 242.114 439.356 242.159C438.788 242.265 438.249 242.491 437.776 242.823C437.303 243.155 436.906 243.584 436.613 244.082C436.319 244.58 436.136 245.135 436.075 245.71C436.014 246.285 436.077 246.866 436.259 247.414L440.759 280.495ZM468.194 252.632L469.889 246.557C470.082 245.855 470.087 245.115 469.902 244.411C469.985 244.411 470.057 244.372 470.139 244.372C471.302 244.348 472.426 244.786 473.266 245.59C474.106 246.395 474.593 247.499 474.62 248.662C474.648 249.825 474.213 250.952 473.411 251.795C472.61 252.637 471.507 253.128 470.345 253.158C469.594 253.182 468.85 253 468.194 252.632Z" fill="#2F2E41"/>
<path d="M439.356 242.159C439.907 245.316 446.11 247.535 453.568 247.149C460.427 246.833 466.035 244.423 467.062 241.567C466.682 241.454 466.286 241.402 465.89 241.411L439.994 242.08C439.78 242.088 439.566 242.114 439.356 242.159Z" fill="#3F3D56"/>
<path d="M454.935 266.487C454.969 266.479 455.002 266.464 455.031 266.445L458.687 264.05C458.731 264.021 458.768 263.982 458.793 263.936C458.818 263.889 458.831 263.837 458.831 263.785C458.831 263.732 458.818 263.68 458.793 263.633C458.768 263.587 458.731 263.547 458.687 263.519L454.887 261.028C454.852 261.005 454.813 260.989 454.772 260.981C454.731 260.973 454.689 260.973 454.648 260.982C454.607 260.99 454.568 261.007 454.534 261.03C454.499 261.054 454.469 261.084 454.447 261.119C454.424 261.154 454.408 261.193 454.4 261.234C454.392 261.275 454.393 261.317 454.401 261.358C454.41 261.399 454.427 261.438 454.45 261.473C454.474 261.507 454.504 261.537 454.539 261.56L457.933 263.784L454.683 265.913C454.62 265.954 454.574 266.016 454.553 266.088C454.531 266.161 454.536 266.238 454.566 266.307C454.597 266.376 454.65 266.432 454.718 266.465C454.785 266.498 454.862 266.506 454.935 266.487Z" fill="#F5BF33"/>
<path d="M449.161 266.754C449.222 266.738 449.278 266.705 449.32 266.658C449.362 266.61 449.389 266.552 449.398 266.489C449.406 266.426 449.396 266.362 449.368 266.305C449.34 266.248 449.296 266.201 449.241 266.17L445.871 264.236L449.128 261.815C449.162 261.791 449.19 261.759 449.211 261.723C449.233 261.688 449.247 261.648 449.253 261.607C449.259 261.565 449.257 261.523 449.247 261.483C449.237 261.442 449.219 261.404 449.194 261.371C449.169 261.337 449.138 261.309 449.102 261.288C449.066 261.266 449.026 261.252 448.985 261.246C448.944 261.24 448.902 261.242 448.861 261.252C448.821 261.262 448.783 261.28 448.75 261.305L445.103 264.016C445.06 264.047 445.027 264.089 445.004 264.137C444.982 264.185 444.972 264.237 444.975 264.29C444.978 264.343 444.994 264.394 445.022 264.438C445.05 264.483 445.088 264.521 445.134 264.547L448.925 266.721C448.996 266.762 449.081 266.774 449.161 266.754Z" fill="#F5BF33"/>
<path d="M454.572 268.586C454.602 268.578 454.632 268.565 454.659 268.549C454.694 268.527 454.725 268.499 454.75 268.465C454.775 268.431 454.793 268.393 454.802 268.352C454.812 268.312 454.814 268.27 454.808 268.228C454.801 268.187 454.787 268.147 454.765 268.112L449.583 259.585C449.539 259.514 449.468 259.462 449.386 259.442C449.304 259.422 449.218 259.436 449.146 259.48C449.074 259.524 449.023 259.594 449.003 259.676C448.983 259.758 448.996 259.844 449.04 259.917L454.222 268.443C454.258 268.501 454.311 268.546 454.373 268.572C454.436 268.597 454.506 268.602 454.572 268.586Z" fill="#F5BF33"/>
<path d="M163.214 165.859H135.132C133.986 165.859 133.057 166.788 133.057 167.935V170.68C133.057 171.827 133.986 172.756 135.132 172.756H163.214C164.359 172.756 165.288 171.827 165.288 170.68V167.935C165.288 166.788 164.359 165.859 163.214 165.859Z" fill="#F5BF33"/>
<path d="M179.582 179.653H118.763C117.617 179.653 116.689 180.582 116.689 181.728V184.474C116.689 185.62 117.617 186.549 118.763 186.549H179.582C180.728 186.549 181.657 185.62 181.657 184.474V181.728C181.657 180.582 180.728 179.653 179.582 179.653Z" fill="#E6E6E6"/>
<path d="M179.582 193.446H118.763C117.617 193.446 116.689 194.375 116.689 195.522V198.267C116.689 199.414 117.617 200.343 118.763 200.343H179.582C180.728 200.343 181.657 199.414 181.657 198.267V195.522C181.657 194.375 180.728 193.446 179.582 193.446Z" fill="#E6E6E6"/>
<path d="M184.738 239.635L184.876 240.07L184.883 240.085L189.029 252.7L193.799 267.237L202.774 294.556L202.861 298.799V298.814L203.528 332.952L201.679 337.58L203.76 345.168C203.76 345.168 202.803 333.698 197.671 340.285C194.764 344.028 191.364 347.858 188.573 351.449C192.64 353.096 196.772 354.585 200.969 355.917C201.875 356.207 202.789 356.483 203.702 356.759C203.898 356.817 204.093 356.875 204.289 356.933C218.203 361.05 232.586 363.364 247.088 363.817C247.842 363.839 248.582 363.853 249.3 363.868C249.553 363.875 249.8 363.882 250.046 363.882C250.858 363.89 251.663 363.897 252.475 363.897C254.113 363.897 255.744 363.873 257.368 363.824C269.387 363.485 281.335 361.868 293.012 359C292.933 354.176 292.715 348.54 292.403 342.519C292.258 339.567 289.004 336.368 288.808 333.277C288.67 330.956 291.591 328.772 291.439 326.415C290.453 311.899 289.221 317.472 288.308 307.192C288.213 306.184 288.126 305.219 288.047 304.298C287.459 297.697 287.053 293.569 287.053 293.569L290.954 268.971L297.079 230.35L296.608 229.574L296.079 229.312L263.769 213.31L262.015 208.812C261.503 207.517 260.617 206.404 259.468 205.616C258.32 204.829 256.962 204.404 255.57 204.395L234.286 204.308C233.182 204.303 232.092 204.561 231.107 205.062C230.123 205.563 229.272 206.292 228.625 207.187L222.862 215.174L184.738 239.635Z" fill="#F5BF33"/>
<path d="M184.738 239.635L184.876 240.07L184.883 240.085L189.029 252.7L193.799 267.237L202.774 294.556L202.861 298.799V298.814L203.528 332.952L201.679 337.58L203.76 345.168C203.76 345.168 202.803 333.698 197.671 340.285C194.764 344.028 191.364 347.858 188.573 351.449C192.64 353.096 196.772 354.585 200.969 355.917C201.875 356.207 202.789 356.483 203.702 356.759C203.898 356.817 204.093 356.875 204.289 356.933C218.203 361.05 232.586 363.364 247.088 363.817C247.842 363.839 248.582 363.853 249.3 363.868C249.553 363.875 249.8 363.882 250.046 363.882C250.858 363.89 251.663 363.897 252.475 363.897C254.113 363.897 255.744 363.873 257.368 363.824C269.387 363.485 281.335 361.868 293.012 359C292.933 354.176 292.715 348.54 292.403 342.519C292.258 339.567 289.004 336.368 288.808 333.277C288.67 330.956 291.591 328.772 291.439 326.415C290.453 311.899 289.221 317.472 288.308 307.192C288.213 306.184 288.126 305.219 288.047 304.298C287.459 297.697 287.053 293.569 287.053 293.569L290.954 268.971L297.079 230.35L296.608 229.574L296.079 229.312L263.769 213.31L262.015 208.812C261.503 207.517 260.617 206.404 259.468 205.616C258.32 204.829 256.962 204.404 255.57 204.395L234.286 204.308C233.182 204.303 232.092 204.561 231.107 205.062C230.123 205.563 229.272 206.292 228.625 207.187L222.862 215.174L184.738 239.635Z" fill="black" fill-opacity="0.2"/>
<path d="M207.682 288.477L202.861 298.8L199.57 305.851L193.908 335.513L191.074 338.523L188.645 327.866L163.5 333.5C162.666 328.865 163.005 333.67 162.49 328.585C162.635 328.44 162.787 328.295 162.94 328.15C163.346 327.772 163.686 327.417 163.679 327.076C163.389 309.536 164.259 279.685 171.523 261.6C172.66 258.648 174.16 255.848 175.988 253.266C176.133 253.07 176.271 252.874 176.409 252.678C179.758 247.985 181.875 243.364 184.876 240.078V240.07C184.894 240.055 184.911 240.038 184.926 240.02C184.937 240.014 184.947 240.007 184.955 239.998L205.572 229.059L206.457 253.926L207.087 271.8L207.682 288.477Z" fill="#F5BF33"/>
<path d="M207.682 288.477L202.861 298.8L199.57 305.851L193.908 335.513L191.074 338.523L188.645 327.866L163.5 333.5C162.666 328.865 163.005 333.67 162.49 328.585C162.635 328.44 162.787 328.295 162.94 328.15C163.346 327.772 163.686 327.417 163.679 327.076C163.389 309.536 164.259 279.685 171.523 261.6C172.66 258.648 174.16 255.848 175.988 253.266C176.133 253.07 176.271 252.874 176.409 252.678C179.758 247.985 181.875 243.364 184.876 240.078V240.07C184.894 240.055 184.911 240.038 184.926 240.02C184.937 240.014 184.947 240.007 184.955 239.998L205.572 229.059L206.457 253.926L207.087 271.8L207.682 288.477Z" fill="black" fill-opacity="0.2"/>
<path d="M282.022 291.409L288.044 304.302L290.146 308.792L295.806 338.451L298.631 341.454L301.065 330.799L302.209 330.565L322.835 326.29L328.847 345.396C330.202 343.137 330.736 340.479 330.358 337.871C329.981 335.264 328.715 332.866 326.775 331.085C326.364 330.713 326.022 330.351 326.032 330.009C326.374 309.379 325.113 271.708 313.724 256.203C310.107 251.283 307.937 246.382 304.78 242.958C304.77 242.948 304.77 242.939 304.76 242.939L297.076 230.349L296.607 229.576L296.079 229.312L282.022 291.409Z" fill="#F5BF33"/>
<path d="M282.022 291.409L288.044 304.302L290.146 308.792L295.806 338.451L298.631 341.454L301.065 330.799L302.209 330.565L322.835 326.29L328.847 345.396C330.202 343.137 330.736 340.479 330.358 337.871C329.981 335.264 328.715 332.866 326.775 331.085C326.364 330.713 326.022 330.351 326.032 330.009C326.374 309.379 325.113 271.708 313.724 256.203C310.107 251.283 307.937 246.382 304.78 242.958C304.77 242.948 304.77 242.939 304.76 242.939L297.076 230.349L296.607 229.576L296.079 229.312L282.022 291.409Z" fill="black" fill-opacity="0.2"/>
<path d="M245.543 198.246C261.181 198.246 273.858 185.561 273.858 169.912C273.858 154.263 261.181 141.578 245.543 141.578C229.905 141.578 217.228 154.263 217.228 169.912C217.228 185.561 229.905 198.246 245.543 198.246Z" fill="#FFB6B6"/>
<path d="M283.815 150.12C283.595 149.886 283.331 149.698 283.037 149.568C282.743 149.438 282.427 149.368 282.105 149.364L282.531 148.181C282.67 147.808 282.708 147.406 282.64 147.014C282.572 146.622 282.401 146.255 282.145 145.951C281.889 145.647 281.557 145.416 281.183 145.283C280.808 145.15 280.405 145.118 280.015 145.192L278.464 145.491L278.61 144.455C278.666 144.069 278.621 143.675 278.479 143.311C278.336 142.948 278.102 142.628 277.799 142.383C277.496 142.138 277.134 141.976 276.749 141.913C276.364 141.851 275.97 141.889 275.605 142.025C275.272 142.156 274.915 142.211 274.558 142.186C274.202 142.161 273.856 142.056 273.546 141.879C273.234 141.708 272.963 141.471 272.752 141.184C272.542 140.897 272.396 140.568 272.326 140.219L271.785 137.612L271.728 137.472C269.097 133.085 264.039 129.892 257.85 128.722C252.34 127.673 246.691 128.207 241.245 128.71C239.084 128.913 236.644 129.142 234.61 130.388C232.882 131.457 231.42 133.593 231.719 135.749C226.349 134.102 220.592 137.39 217.739 141.536C214.358 146.47 213.805 152.651 213.716 157.484C213.475 168.917 215.832 178.272 220.706 185.292C221.062 185.801 221.151 186.862 221.857 187.219L221.71 186.983C222.498 187.378 223.299 188.013 223 188.694C222.142 190.652 227.843 194.983 231.859 196.414C239.186 199.027 248.928 198.805 255.778 197.863L256.019 196.242C258.491 195.905 260.233 195.263 260.722 194.258C261.586 193.52 262.323 192.859 262.965 192.249L262.971 192.242C262.984 192.229 263.01 192.21 263.022 192.198C266.117 189.228 266.835 187.537 267.159 184.961C267.471 182.437 266.918 179.874 266.352 177.566C278.261 179.41 261.662 164.873 272.758 162.063C272.885 162.023 273.014 161.991 273.145 161.967C273.469 161.891 273.793 161.815 274.105 161.726C275.606 161.318 277.043 160.704 278.375 159.9C281.476 158.012 282.499 155.506 284.101 152.683C284.332 152.281 284.429 151.816 284.377 151.355C284.326 150.894 284.129 150.461 283.815 150.12Z" fill="#2F2E41"/>
<path d="M346 293.747C345.994 294.856 345.981 296.409 345.93 298.33C345.924 298.596 345.917 298.869 345.911 299.148C345.828 302.679 345.745 305.639 345.611 308.93C345.605 309.158 345.598 309.38 345.586 309.608C345.407 314.198 345.127 319.542 344.642 328.005C343.744 343.638 342.176 330.154 340.602 335.638C340.525 335.91 340.442 336.233 340.366 336.614C340.128 337.994 339.725 339.341 339.168 340.627C338.333 341.121 337.472 341.597 336.625 342.072C334.209 343.41 331.756 344.696 329.283 345.92C327.893 346.605 326.498 347.277 325.096 347.923C324.872 348.025 324.656 348.126 324.439 348.221C317.259 351.525 309.859 354.333 302.292 356.627C300.813 357.071 299.341 357.502 297.85 357.901C296.294 358.333 294.739 358.738 293.165 359.119C281.454 361.978 269.471 363.591 257.417 363.93C255.792 363.981 254.154 364 252.51 364C251.694 364 250.891 363.994 250.075 363.987C249.826 363.987 249.578 363.981 249.329 363.975C248.609 363.956 247.863 363.943 247.111 363.924C232.567 363.473 218.141 361.165 204.187 357.058L203.594 356.887C202.676 356.608 201.765 356.336 200.854 356.044C196.647 354.719 192.502 353.236 188.419 351.594C185.303 350.345 182.222 349.005 179.178 347.575C179.15 347.567 179.124 347.554 179.101 347.537C178.464 347.245 177.82 346.941 177.183 346.63C177.1 346.586 177.011 346.541 176.922 346.497C174.545 345.343 172.193 344.134 169.867 342.871C167.91 338.401 165.157 337.546 163.449 333.615C162.951 332.448 162.714 331.75 162.5 330.5C162.5 330.487 162.378 329.977 162.378 329.958C162.556 332.316 162.248 324.341 163 328.5C162.994 328.424 162.5 331.5 162.346 329.653C162.327 329.425 162.301 329.146 162.263 328.797C160.077 307.567 160.217 283.287 159.268 263.28C159.204 261.986 159.138 260.748 159.07 259.565C159.051 259.172 159.026 258.785 159 258.405C159.045 258.291 159.096 258.17 159.153 258.056C159.165 258.023 159.18 257.991 159.198 257.961C159.216 257.922 159.238 257.883 159.261 257.847C159.274 257.828 159.293 257.802 159.306 257.783C159.315 257.762 159.326 257.74 159.338 257.72C159.395 257.631 159.459 257.536 159.529 257.447C159.561 257.409 159.586 257.378 159.618 257.346C159.64 257.314 159.666 257.284 159.695 257.257C159.714 257.227 159.738 257.199 159.765 257.175C159.79 257.149 159.816 257.118 159.848 257.086C159.861 257.066 159.879 257.049 159.899 257.035C159.949 256.978 160.004 256.925 160.064 256.877C160.292 256.669 160.535 256.478 160.791 256.306C160.88 256.249 160.976 256.192 161.065 256.129C161.707 255.747 162.384 255.424 163.085 255.165C163.327 255.076 163.57 254.994 163.831 254.905C163.927 254.88 164.016 254.848 164.111 254.817C164.252 254.772 164.392 254.728 164.538 254.696C165.265 254.481 166.049 254.297 166.897 254.126C166.999 254.107 167.107 254.088 167.215 254.062C167.368 254.03 167.528 254.005 167.687 253.98C167.904 253.942 168.127 253.904 168.35 253.866C170.243 253.568 172.39 253.346 174.761 253.2C174.984 253.187 175.207 253.175 175.43 253.162C175.692 253.149 175.953 253.137 176.221 253.124C176.444 253.111 176.673 253.105 176.903 253.099C177.126 253.086 177.355 253.08 177.591 253.073C178.235 253.054 178.898 253.035 179.573 253.023C181.498 252.984 183.525 252.997 185.653 253.042C186.641 253.067 187.648 253.092 188.681 253.137C188.751 253.137 188.814 253.143 188.878 253.143C189.777 253.175 190.682 253.213 191.612 253.263C192.262 253.295 192.919 253.327 193.575 253.365C194.194 253.403 194.818 253.441 195.449 253.485C195.94 253.511 196.431 253.549 196.928 253.58C197.348 253.612 197.769 253.644 198.19 253.669L198.763 253.707C199.075 253.733 199.388 253.752 199.706 253.783C200.408 253.84 201.109 253.897 201.822 253.954C202.53 254.018 203.25 254.081 203.97 254.145C204.69 254.208 205.417 254.278 206.144 254.347C206.22 254.354 206.29 254.36 206.36 254.366C207.023 254.436 207.686 254.5 208.355 254.569C208.508 254.582 208.667 254.595 208.82 254.614C209.458 254.677 210.109 254.752 210.753 254.82C210.95 254.841 211.147 254.862 211.345 254.883C211.849 254.938 212.347 254.985 212.855 255.045C213.524 255.121 214.206 255.191 214.869 255.279C215.385 255.336 215.901 255.393 216.417 255.457C217.227 255.552 218.049 255.653 218.871 255.761C219.183 255.799 219.496 255.837 219.808 255.882C222.153 256.173 224.524 256.497 226.933 256.832C230.585 257.346 234.294 257.904 238.029 258.506C241.77 259.108 245.533 259.744 249.316 260.414C250.272 260.585 251.228 260.757 252.191 260.934C252.624 261.016 253.058 261.099 253.491 261.181C254.23 261.314 254.97 261.454 255.709 261.593C256.448 261.733 257.188 261.872 257.927 262.018C258.806 262.189 259.692 262.36 260.572 262.532C266.365 263.673 272.127 264.89 277.748 266.164C278.672 266.373 279.596 266.589 280.514 266.798C282.349 267.223 284.168 267.654 285.97 268.091C286.467 268.205 286.957 268.326 287.448 268.446C288.672 268.751 289.895 269.055 291.1 269.365L291.31 269.422C292.196 269.638 293.063 269.86 293.93 270.088C295.976 270.621 297.987 271.16 299.965 271.705C301.278 272.066 302.576 272.432 303.859 272.801C305.778 273.353 307.658 273.911 309.487 274.475C309.94 274.614 310.392 274.754 310.838 274.887C312.177 275.299 313.496 275.718 314.777 276.136C315.797 276.466 316.791 276.802 317.772 277.138C318.754 277.474 319.716 277.81 320.66 278.146C321.265 278.361 321.864 278.589 322.463 278.805C323.324 279.122 324.171 279.439 325 279.756C325.255 279.851 325.503 279.952 325.752 280.047C325.911 280.117 326.064 280.174 326.217 280.238C326.517 280.358 326.823 280.472 327.116 280.593C327.415 280.707 327.708 280.827 328.002 280.954C328.288 281.068 328.582 281.188 328.862 281.309C329.149 281.423 329.429 281.543 329.71 281.67C329.946 281.765 330.175 281.867 330.398 281.968C330.851 282.165 331.303 282.361 331.743 282.564C331.96 282.666 332.176 282.761 332.393 282.862L332.89 283.09C332.96 283.128 333.03 283.16 333.1 283.192C333.26 283.268 333.425 283.35 333.585 283.426C333.954 283.597 334.318 283.781 334.675 283.952C335.153 284.193 335.618 284.434 336.064 284.669C336.516 284.91 336.956 285.151 337.377 285.385C337.447 285.423 337.511 285.461 337.581 285.499C337.676 285.55 337.772 285.607 337.868 285.658C338.193 285.842 338.505 286.032 338.817 286.216C339.429 286.59 340.009 286.957 340.551 287.325C340.672 287.407 340.787 287.49 340.908 287.566C341.309 287.851 341.692 288.13 342.048 288.415C342.048 288.422 342.048 288.422 342.055 288.422C342.176 288.51 342.291 288.605 342.405 288.694C342.501 288.783 342.603 288.859 342.699 288.948C343.03 289.233 343.336 289.506 343.616 289.785C343.71 289.871 343.8 289.962 343.884 290.057C343.921 290.088 343.955 290.122 343.986 290.159C344.113 290.285 344.228 290.412 344.337 290.539C344.353 290.556 344.368 290.576 344.381 290.596C344.534 290.774 344.674 290.951 344.808 291.129C344.872 291.217 344.942 291.306 344.999 291.395C345.076 291.503 345.152 291.617 345.216 291.724C345.273 291.813 345.324 291.908 345.375 291.997C345.511 292.226 345.626 292.465 345.72 292.713C345.791 292.882 345.849 293.056 345.892 293.233C345.94 293.402 345.976 293.573 346 293.747Z" fill="#2F2E41"/>
<path opacity="0.2" d="M345.69 293.426C345.684 294.539 345.671 296.097 345.621 298.024C345.614 298.291 345.601 298.564 345.595 298.844C345.532 301.547 345.436 304.885 345.303 308.656C345.296 308.885 345.29 309.107 345.277 309.336C345.099 313.94 344.82 319.301 344.337 327.79C343.441 343.471 341.878 329.946 340.308 335.446C335.949 332.763 331.17 329.952 326.061 327.065C325.139 326.544 324.209 326.02 323.271 325.495C313.053 319.791 301.64 313.813 289.725 307.893C289.254 307.658 288.778 307.422 288.308 307.193C261.014 293.693 231.223 280.562 207.088 271.799C202.43 270.108 197.982 268.582 193.8 267.24C184.993 264.423 177.38 262.452 171.521 261.6C165.42 260.709 161.207 261.027 159.504 262.865C159.441 261.568 159.375 260.326 159.307 259.139C159.282 258.744 159.256 258.357 159.231 257.975C159.27 257.87 159.321 257.77 159.37 257.67C159.378 257.655 159.383 257.64 159.39 257.625C159.402 257.592 159.417 257.56 159.434 257.53C159.453 257.49 159.474 257.452 159.498 257.415C159.519 257.37 159.544 257.328 159.574 257.288C159.631 257.199 159.695 257.104 159.765 257.015C159.816 256.948 159.871 256.884 159.93 256.824C159.949 256.793 159.973 256.766 160 256.741C160.025 256.716 160.051 256.684 160.082 256.652C160.096 256.632 160.113 256.615 160.133 256.601C160.184 256.544 160.239 256.491 160.299 256.443C160.525 256.234 160.767 256.042 161.023 255.87C161.112 255.813 161.207 255.756 161.296 255.692C161.937 255.309 162.611 254.985 163.311 254.726C163.552 254.637 163.794 254.554 164.054 254.465C164.149 254.439 164.238 254.408 164.334 254.376C164.474 254.331 164.613 254.287 164.76 254.255C165.484 254.039 166.266 253.854 167.111 253.683C167.365 253.632 167.632 253.581 167.899 253.536C168.115 253.498 168.337 253.46 168.56 253.422C170.447 253.123 172.589 252.901 174.952 252.754C175.175 252.742 175.397 252.729 175.62 252.716C175.88 252.703 176.141 252.691 176.408 252.678C176.63 252.665 176.859 252.659 177.088 252.653C177.31 252.64 177.539 252.634 177.774 252.627C178.416 252.608 179.077 252.589 179.75 252.576C181.669 252.544 183.69 252.557 185.813 252.602C186.798 252.621 187.802 252.653 188.831 252.697C188.895 252.697 188.965 252.703 189.028 252.703C189.924 252.729 190.833 252.773 191.754 252.818C192.402 252.85 193.057 252.881 193.711 252.92C194.328 252.958 194.951 252.996 195.58 253.04C196.069 253.066 196.558 253.104 197.054 253.136C197.473 253.168 197.893 253.199 198.312 253.225C198.814 253.263 199.316 253.301 199.825 253.339C200.524 253.397 201.223 253.454 201.934 253.511C202.64 253.575 203.358 253.638 204.076 253.702C204.794 253.765 205.519 253.835 206.243 253.905C206.319 253.912 206.389 253.918 206.459 253.924C207.12 253.994 207.781 254.058 208.448 254.128C212.146 254.503 215.953 254.942 219.867 255.444C222.206 255.743 224.574 256.063 226.972 256.404C230.613 256.919 234.312 257.479 238.036 258.077C241.766 258.681 245.517 259.319 249.29 259.991C250.243 260.162 251.196 260.334 252.156 260.512C253.325 260.728 254.494 260.949 255.663 261.174C256.401 261.313 257.138 261.453 257.875 261.6C258.752 261.771 259.635 261.943 260.512 262.115C266.288 263.259 272.033 264.48 277.638 265.758C278.559 265.968 279.481 266.184 280.396 266.394C282.226 266.82 284.039 267.253 285.836 267.692C286.331 267.812 286.82 267.933 287.31 268.054C288.536 268.359 289.75 268.664 290.951 268.97V268.976C291.021 268.989 291.091 269.008 291.161 269.027C292.038 269.249 292.908 269.472 293.773 269.701C295.812 270.235 297.818 270.773 299.79 271.316C301.099 271.685 302.396 272.047 303.673 272.416C305.586 272.976 307.461 273.535 309.284 274.095C309.736 274.235 310.187 274.375 310.632 274.508C311.966 274.928 313.275 275.346 314.559 275.761C315.575 276.092 316.567 276.429 317.545 276.766C318.524 277.103 319.484 277.44 320.424 277.777C321.034 277.993 321.632 278.216 322.222 278.432C323.087 278.75 323.926 279.068 324.752 279.392C325.006 279.487 325.254 279.589 325.501 279.685C325.965 279.863 326.417 280.047 326.861 280.231C327.16 280.346 327.452 280.467 327.745 280.594C328.031 280.708 328.323 280.829 328.603 280.95C328.889 281.064 329.168 281.185 329.448 281.312C329.683 281.408 329.912 281.51 330.134 281.611C330.585 281.808 331.036 282.006 331.475 282.209C331.691 282.311 331.907 282.406 332.123 282.508L332.619 282.737C332.689 282.775 332.759 282.807 332.828 282.839C333.369 283.093 333.89 283.347 334.398 283.602C334.875 283.843 335.339 284.085 335.783 284.32C336.311 284.6 336.813 284.873 337.296 285.153C337.391 285.204 337.486 285.261 337.582 285.312C337.906 285.497 338.217 285.687 338.529 285.872C339.139 286.247 339.717 286.616 340.257 286.985C340.791 287.353 341.287 287.716 341.75 288.078C341.75 288.085 341.75 288.085 341.757 288.085C341.979 288.263 342.195 288.441 342.399 288.612C342.729 288.899 343.034 289.172 343.314 289.452C343.407 289.538 343.497 289.629 343.581 289.725C343.618 289.756 343.652 289.79 343.682 289.827C343.816 289.973 343.949 290.12 344.076 290.266C344.229 290.444 344.369 290.622 344.502 290.8C344.566 290.889 344.636 290.978 344.693 291.067C344.769 291.175 344.845 291.29 344.909 291.398C344.966 291.487 345.017 291.582 345.068 291.671C345.203 291.9 345.317 292.141 345.411 292.39C345.48 292.559 345.538 292.733 345.582 292.911C345.631 293.08 345.667 293.252 345.69 293.426Z" fill="black"/>
</g>
<defs>
<clipPath id="clip0_625_119">
<rect width="500" height="363.897" fill="white"/>
</clipPath>
</defs>
</svg>
