<svg width="512" height="512" viewBox="0 0 512 512" fill="none" xmlns="http://www.w3.org/2000/svg">
<rect width="512" height="512" rx="256" fill="#F5BF33"/>
<path d="M368.764 152H159.24C129.296 152 101.7 176.536 101.7 206.684V321.316C101.7 351.464 129.292 376 159.24 376H368.768C398.708 376 421.7 351.464 421.7 321.316V206.684C421.7 176.536 398.708 152 368.764 152Z" fill="#CFB820"/>
<path d="M360.764 144H151.24C121.296 144 93.7 168.536 93.7 198.684V313.316C93.7 343.464 121.292 368 151.24 368H360.768C390.708 368 413.7 343.464 413.7 313.316V198.684C413.7 168.536 390.708 144 360.764 144Z" fill="white"/>
<path d="M193.7 264H133.7V276H193.7V264Z" fill="#333333"/>
<path d="M249.7 284H133.7V304H249.7V284Z" fill="#333333"/>
<path d="M322.672 303.064C322.672 292.644 328.548 283.636 337.196 278.744C332.904 276.32 327.996 274.828 322.672 274.828C306.64 274.828 293.648 287.472 293.648 303.068C293.648 318.664 306.64 331.304 322.672 331.304C327.996 331.304 332.904 329.816 337.196 327.404C328.548 322.48 322.672 313.48 322.672 303.064Z" fill="#E2574C"/>
<path d="M349.312 274.824C344.004 274.824 339.092 276.312 334.812 278.74C343.452 283.632 349.312 292.64 349.312 303.06C349.312 313.476 343.452 322.476 334.812 327.396C339.092 329.808 344.004 331.296 349.312 331.296C365.356 331.296 378.352 318.66 378.352 303.06C378.352 287.468 365.356 274.824 349.312 274.824Z" fill="#EFC75E"/>
</svg>
