<svg width="58" height="58" viewBox="0 0 58 58" fill="none" xmlns="http://www.w3.org/2000/svg">
<path d="M4.68597 31.5614C3.27135 30.1468 3.27135 27.8532 4.68597 26.4386L26.4386 4.68597C27.8532 3.27135 30.1468 3.27135 31.5614 4.68597L53.314 26.4386C54.7286 27.8532 54.7286 30.1468 53.314 31.5614L31.5614 53.314C30.1468 54.7286 27.8532 54.7286 26.4386 53.314L4.68597 31.5614Z" fill="#EE513B"/>
<path d="M22.0199 9.17407L19.8171 11.3769L25.5064 17.0661C25.2762 17.5599 25.1477 18.1106 25.1477 18.6913C25.1477 20.3399 26.1835 21.7466 27.6399 22.296V36.2135C26.1835 36.7628 25.1477 38.1695 25.1477 39.8182C25.1477 41.9453 26.8721 43.6697 28.9993 43.6697C31.1264 43.6697 32.8508 41.9453 32.8508 39.8182C32.8508 38.3236 31.9995 37.0276 30.7552 36.3893V22.315L36.1936 27.7534C35.9747 28.2372 35.8529 28.7742 35.8529 29.3397C35.8529 31.4669 37.5773 33.1913 39.7044 33.1913C41.8316 33.1913 43.556 31.4669 43.556 29.3397C43.556 27.2126 41.8316 25.4882 39.7044 25.4882C39.291 25.4882 38.893 25.5532 38.5196 25.6738L32.6788 19.833C32.7906 19.4723 32.8508 19.0888 32.8508 18.6913C32.8508 16.5641 31.1264 14.8397 28.9993 14.8397C28.6018 14.8397 28.2184 14.8999 27.8576 15.0117L22.0199 9.17407Z" fill="white"/>
</svg>
