<svg width="58" height="58" viewBox="0 0 58 58" fill="none" xmlns="http://www.w3.org/2000/svg">
<path d="M36.0994 56.2321L36.6555 46.9655L38.191 44.3442C38.191 44.3442 34.6961 45.7739 28.845 45.7739C22.9937 45.7739 19.5517 44.3706 19.5517 44.3706L21.2727 47.23L21.8815 56.2321C21.8815 57.1972 25.0642 57.9795 28.9905 57.9795C32.9165 57.9795 36.0994 57.1972 36.0994 56.2321ZM34.3451 12.9581L35.5124 8.34422L41.9765 1.54244L40.2728 0.0913086L33.4292 7.3369L32.0739 12.8493C31.0539 12.8151 30.0333 12.7981 29.0127 12.7983C21.8051 12.7983 15.9622 13.6198 15.9622 14.6328C15.9622 15.646 21.8051 16.4673 29.0127 16.4673C36.2202 16.4673 42.063 15.646 42.063 14.6328C42.063 13.8868 38.8941 13.2447 34.3451 12.9581Z" fill="#D34A47"/>
<path d="M33.6661 15.542C33.6661 15.542 33.4133 15.5987 32.6697 15.6019C31.9258 15.605 31.3977 15.5971 31.1873 15.4054C31.1307 15.354 31.0998 15.2518 31.1001 15.1827C31.1007 15.051 31.1942 14.9734 31.3132 14.9248L31.4259 15.1015C31.3769 15.1184 31.3489 15.1384 31.3488 15.1597C31.3484 15.2597 32.1094 15.3282 32.6914 15.3208C33.2736 15.3136 33.9769 15.2657 33.9776 15.1671C33.9776 15.1373 33.9244 15.1092 33.8318 15.0871L33.9439 14.9116C34.0948 14.9585 34.2265 15.0489 34.2262 15.2055C34.2247 15.4717 33.8859 15.5122 33.6661 15.542Z" fill="white"/>
<path d="M41.9638 1.55591C42.1264 1.36818 41.8797 0.887992 41.4129 0.483529C40.946 0.0792711 40.4356 -0.0963685 40.2728 0.0913629C40.1102 0.279094 40.3569 0.759285 40.8239 1.16354C41.2907 1.5679 41.8012 1.74375 41.9638 1.55591ZM35.7885 33.5974C35.6353 32.1235 39.0125 29.9887 38.1458 29.9204C36.2799 30.027 35.3513 32.107 34.4126 34.2853C34.0686 35.0837 32.8914 38.4881 32.1194 38.069C31.3476 37.6501 33.1201 34.8506 33.6169 33.188C33.0436 33.6084 30.9414 35.2417 30.3996 33.7121C29.5286 34.4519 27.6673 34.8526 27.8773 32.9094C27.4139 33.7302 26.3739 34.8762 25.1256 34.4C23.4862 33.7748 26.0755 28.5527 26.7194 28.8161C27.3633 29.0795 26.5894 30.2691 26.3867 30.731C25.941 31.7477 25.426 33.0257 25.77 33.2873C26.3594 33.7356 27.9631 31.5917 27.9987 31.5446C28.2987 31.1483 29.1532 28.5558 29.8419 28.8535C30.5307 29.1512 28.1241 32.5741 29.0239 33.2534C29.2054 33.3905 29.9479 33.1689 30.3996 32.6802C30.6918 32.3641 30.5913 31.6639 31.5655 29.3406C32.5398 27.0174 33.408 24.1242 34.0761 24.3446C34.7443 24.5649 34.1936 26.0498 33.9539 26.6034C32.8291 29.2015 30.8842 33.4938 31.8014 33.1689C32.7187 32.844 33.1963 32.825 34.0945 31.7739C34.9927 30.7228 34.9513 28.9916 35.5499 29.0283C36.1488 29.0652 36.0482 29.6203 35.903 30.043C36.4923 29.3688 38.6961 27.9487 39.2281 29.3551C39.8583 31.0202 36.0751 33.4254 37.0184 33.3027C37.9381 33.1831 39.428 32.2395 40.0642 31.3814L41.8152 15.6388C41.8152 15.6388 40.0532 17.097 28.8432 17.097C17.6331 17.097 16.0534 15.6692 16.0534 15.6692L17.5442 30.0384C18.3355 27.7894 20.2145 23.2404 23.1764 23.3931C24.5238 23.4626 26.3224 26.0569 24.7817 26.1448C24.1295 26.1819 24.0633 24.8499 23.2911 24.6543C22.7339 24.5131 21.958 24.9661 21.4566 25.4569C20.4567 26.4356 18.3061 30.2967 18.5902 32.2216C18.9523 34.6758 21.9768 31.3688 22.4885 30.387C22.8489 29.6954 23.0924 27.6464 23.8806 27.8614C24.669 28.0764 23.8119 30.191 23.2405 32.0606C22.5986 34.16 22.2611 36.3746 21.4566 36.1198C20.652 35.8653 21.9626 33.1551 21.9152 32.6802C21.1589 33.3779 19.7657 35.1444 17.9833 34.2701L18.9091 43.1933C18.9091 43.1933 21.3698 45.1375 28.7825 45.1375C36.1951 45.1375 38.7469 43.2236 38.7469 43.2236L39.8965 32.8884C38.9559 33.8043 35.9791 35.4308 35.7885 33.5974Z" fill="#D34A47"/>
</svg>
