<svg width="58" height="58" viewBox="0 0 58 58" fill="none" xmlns="http://www.w3.org/2000/svg">
<path d="M10.875 50.75L7.25 5.4375H50.75L47.125 50.75L29 56.1875L10.875 50.75Z" fill="#E0AC25"/>
<path d="M47.125 9.0625H29V53.4688L43.5 48.9375L47.125 9.0625Z" fill="#F5BF33"/>
<path d="M32.6409 35.8562C33.0481 36.6817 33.6799 37.3755 34.4637 37.8579C35.2475 38.3404 36.1515 38.5919 37.0719 38.5836C38.933 38.5836 40.1221 37.653 40.1221 36.3681C40.1221 34.8285 38.9002 34.2825 36.8527 33.3861L35.7292 32.9044C32.4886 31.5237 30.3348 29.7938 30.3348 26.1372C30.3348 22.768 32.9021 20.2047 36.9131 20.2047C38.2149 20.1102 39.5156 20.4016 40.6527 21.0424C41.7898 21.6832 42.7128 22.645 43.3062 23.8075L39.8084 26.0532C39.5794 25.4771 39.1805 24.9844 38.6647 24.6405C38.149 24.2965 37.5408 24.1177 36.9209 24.1277C36.6508 24.1005 36.3779 24.13 36.1197 24.2141C35.8615 24.2982 35.6237 24.4353 35.4215 24.6164C35.2192 24.7976 35.0569 25.0189 34.9449 25.2663C34.8329 25.5136 34.7737 25.7816 34.7711 26.0532C34.7711 27.4011 35.6058 27.9458 37.5273 28.7805L38.6508 29.2609C42.4676 30.8976 44.6214 32.5658 44.6214 36.3169C44.6214 40.3607 41.4451 42.5762 37.1782 42.5762C35.5161 42.6819 33.859 42.3045 32.4067 41.4894C30.9544 40.6742 29.769 39.4563 28.9934 37.9825L32.6409 35.8562ZM16.7754 36.25C17.4815 37.5021 18.1233 38.56 19.6629 38.56C21.1381 38.56 22.07 37.9825 22.07 35.7381V20.4672H26.5614V35.8011C26.5614 40.4513 23.834 42.5684 19.8545 42.5684C18.4488 42.6445 17.053 42.2932 15.8507 41.5609C14.6484 40.8286 13.696 39.7494 13.1187 38.4655L16.7754 36.25Z" fill="white"/>
</svg>
