<svg width="512" height="512" viewBox="0 0 512 512" fill="none" xmlns="http://www.w3.org/2000/svg">
<rect width="512" height="512" rx="256" fill="#F5BF33"/>
<path d="M127 138.134C127 151.719 127.127 155.486 127.55 155.528C127.804 155.57 133.56 155.613 140.331 155.655L152.562 155.697V201.53C152.562 226.711 152.731 247.279 152.9 247.237C153.07 247.152 154.847 245.121 156.878 242.666C158.91 240.212 161.153 237.461 161.957 236.53C178.758 216.173 182.736 211.349 183.667 210.291C184.26 209.571 185.995 207.498 187.518 205.636C189 203.773 190.354 202.165 190.481 202.038C190.608 201.911 191.497 200.853 192.385 199.711C193.316 198.526 194.163 197.51 194.29 197.383C194.417 197.256 195.348 196.113 196.406 194.844C197.464 193.574 198.395 192.432 198.522 192.305C198.649 192.178 201.4 188.877 204.616 184.983L210.499 177.831L210.456 150.28C210.456 135.087 210.414 122.264 210.414 121.714L210.372 120.783H168.686H127V138.134Z" fill="white"/>
<path d="M304.62 124.338C303.646 125.523 297.891 132.675 291.839 140.25C285.787 147.826 280.751 154.089 280.624 154.216C280.497 154.343 275.08 161.072 268.605 169.24C262.087 177.365 256.67 184.137 256.501 184.264C256.374 184.391 254.089 187.226 251.423 190.612C248.756 193.997 246.217 197.129 245.836 197.595C245.455 198.06 235.764 210.164 224.295 224.468C212.826 238.773 202.966 251.088 202.373 251.807C201.781 252.569 200.807 253.754 200.215 254.558C199.622 255.32 198.987 256.124 198.733 256.378C198.522 256.632 197.168 258.283 195.813 260.018C194.417 261.753 193.147 263.276 193.02 263.403C192.893 263.53 191.878 264.758 190.819 266.154C189.761 267.551 188.534 269.117 188.111 269.582C187.645 270.09 186.884 271.021 186.376 271.698C185.191 273.222 169.067 293.366 168.136 294.509C167.712 294.975 165.216 298.106 162.549 301.492C159.883 304.878 157.598 307.713 157.471 307.84C157.344 307.967 156.159 309.406 154.889 311.056L152.562 314.061L152.604 352.531V391H181.086C196.787 391 209.821 390.873 210.033 390.746C210.329 390.534 210.499 377.5 210.499 349.441L210.456 308.39L220.825 296.159C226.538 289.431 231.405 283.929 231.617 283.929C231.87 283.929 236.441 289.642 241.774 296.625C256.459 315.923 262.257 323.499 266.573 329.127C268.774 331.963 271.567 335.687 272.837 337.337C274.064 339.03 275.376 340.765 275.757 341.146C276.096 341.57 280.412 347.24 285.406 353.758C290.358 360.275 298.102 370.474 302.631 376.399C307.117 382.324 311.518 388.038 312.407 389.096L313.973 391H349.141C368.481 390.958 384.352 390.831 384.352 390.619C384.436 390.323 378.046 382.028 376.48 380.378C376.226 380.124 375.083 378.727 373.941 377.246C372.756 375.807 371.148 373.818 370.344 372.802C369.539 371.829 368.566 370.644 368.228 370.221C358.663 358.328 348.041 345.124 341.185 336.66C336.36 330.735 331.62 324.811 330.562 323.456C329.123 321.594 316.808 306.359 313.507 302.338C312.999 301.703 292.22 275.888 287.437 269.963C286.126 268.355 284.729 266.62 284.348 266.154C282.486 263.911 270.552 249.099 270.298 248.633C270.128 248.337 271.017 246.983 272.456 245.332C273.81 243.767 275.418 241.904 276.011 241.185C276.646 240.508 281.386 234.964 286.549 228.912C291.712 222.86 296.367 217.443 296.833 216.851C297.341 216.258 298.737 214.65 299.88 213.253C301.065 211.857 302.25 210.46 302.546 210.122C302.842 209.825 307.413 204.493 312.703 198.272C317.993 192.093 322.479 186.803 322.733 186.549C322.944 186.295 323.96 185.152 324.934 184.01C332.255 175.461 355.955 147.656 357.351 146.006C358.325 144.863 359.34 143.721 359.552 143.467C359.933 143.086 363.615 138.769 369.201 132.209C369.709 131.617 371.782 129.205 373.856 126.835C375.888 124.465 377.538 122.433 377.538 122.349C377.538 122.222 361.541 122.137 341.989 122.137H306.439L304.62 124.338Z" fill="white"/>
</svg>
