<svg width="24" height="24" viewBox="0 0 24 24" fill="none" xmlns="http://www.w3.org/2000/svg">
<g clip-path="url(#clip0_781_287)">
<path d="M12 0C6.43304 0 4.45776 3.63197 4.45776 6.74212V17.2579C4.45776 20.3681 6.43304 24 12 24C17.567 24 19.5422 20.3681 19.5422 17.2579V6.74212C19.5422 3.63197 17.567 0 12 0ZM12 8.74976C11.4543 8.74976 11.0103 8.30578 11.0103 7.76007V5.89074C11.0103 5.34502 11.4543 4.90105 12 4.90105C12.5457 4.90105 12.9897 5.34502 12.9897 5.89074V7.76007C12.9897 8.30578 12.5457 8.74976 12 8.74976ZM18.0577 17.2579C18.0577 17.8649 17.9415 19.413 16.8653 20.6753C15.8244 21.8964 14.1874 22.5155 12 22.5155C9.81258 22.5155 8.17564 21.8964 7.13468 20.6753C6.05849 19.413 5.9423 17.8649 5.9423 17.2579V6.74212C5.9423 6.13514 6.05849 4.58707 7.13468 3.32467C8.05425 2.246 9.43932 1.63744 11.2577 1.51007V3.53038C10.255 3.84638 9.52577 4.78491 9.52577 5.89069V7.76002C9.52577 8.8658 10.255 9.80432 11.2577 10.1203V11.9662H12.7423V10.1203C13.745 9.80432 14.4742 8.8658 14.4742 7.76002V5.89069C14.4742 4.78491 13.745 3.84638 12.7423 3.53038V1.51012C14.5607 1.63744 15.9457 2.246 16.8653 3.32472C17.9415 4.58707 18.0577 6.13514 18.0577 6.74217V17.2579Z" fill="white"/>
</g>
<defs>
<clipPath id="clip0_781_287">
<rect width="24" height="24" fill="white"/>
</clipPath>
</defs>
</svg>
