<svg width="40" height="40" viewBox="0 0 40 40" fill="none" xmlns="http://www.w3.org/2000/svg">
<g clip-path="url(#clip0_804_195)">
<path d="M20 40C31.0457 40 40 31.0457 40 20C40 8.9543 31.0457 0 20 0C8.9543 0 0 8.9543 0 20C0 31.0457 8.9543 40 20 40Z" fill="#F5BF33"/>
<path d="M28.2375 24.3062C28.3013 24.8075 28.1587 25.0012 28 25.0012C27.8412 25.0012 27.6188 24.8075 27.3813 24.42C27.1438 24.0325 27.0475 23.595 27.175 23.37C27.2537 23.2237 27.4287 23.1587 27.635 23.24C28.0475 23.4025 28.2063 24.0312 28.2375 24.3062ZM26.0162 25.4063C26.5075 25.8263 26.6513 26.31 26.3963 26.6663C26.3162 26.7598 26.2163 26.8343 26.1039 26.8845C25.9915 26.9346 25.8693 26.9591 25.7463 26.9563C25.4722 26.959 25.2067 26.8611 25 26.6812C24.5563 26.2937 24.4287 25.6475 24.7137 25.2925C24.7746 25.2172 24.8524 25.1574 24.9409 25.1181C25.0293 25.0787 25.1258 25.061 25.2225 25.0662C25.4762 25.0662 25.7625 25.1787 26.0162 25.405V25.4063ZM8.75 18.6175C8.75 12.4762 13.6375 7.5 19.6675 7.5C25.6988 7.5 30.5862 12.4775 30.5862 18.6175C30.5864 20.6217 30.0554 22.5902 29.0475 24.3225C29.015 24.3713 28.935 24.355 28.92 24.29C28.54 21.5587 26.905 20.0562 24.525 19.6037C24.3175 19.5712 24.2863 19.4412 24.5563 19.41C25.2863 19.345 26.3175 19.3613 26.8563 19.4588C26.8891 19.1741 26.9054 18.8878 26.905 18.6012C26.905 14.545 23.6675 11.2487 19.6837 11.2487C15.7012 11.2487 12.4637 14.545 12.4637 18.6012C12.4637 22.6587 15.7012 25.955 19.6837 25.955H20.0175C19.9042 25.2989 19.856 24.6331 19.8738 23.9675C19.89 23.515 19.9863 23.45 20.1763 23.805C21.1763 25.5675 22.6038 27.1513 25.3975 27.78C27.6825 28.2988 29.9675 28.8962 32.4275 32.08C32.6487 32.355 32.3162 32.645 32.0625 32.4187C29.555 30.1562 27.27 29.4125 25.1912 29.4125C22.8575 29.43 21.2713 29.7375 19.6675 29.7375C13.6375 29.7375 8.75 24.7575 8.75 18.6162V18.6175Z" fill="white"/>
</g>
<defs>
<clipPath id="clip0_804_195">
<rect width="40" height="40" fill="white"/>
</clipPath>
</defs>
</svg>
