<svg width="350" height="267" viewBox="0 0 350 267" fill="none" xmlns="http://www.w3.org/2000/svg">
<rect width="350" height="267" rx="8" fill="white"/>
<path d="M350 143.361V255.526C349.996 258.568 348.788 261.484 346.639 263.635C344.491 265.786 341.579 266.996 338.54 267H252.611L253.409 265.989L348.99 144.645L350 143.361Z" fill="#F2F2F2"/>
<path d="M136.774 103.851H38.1024C37.2939 103.851 36.5185 104.172 35.9468 104.745C35.3751 105.317 35.054 106.094 35.054 106.903C35.054 107.713 35.3751 108.489 35.9468 109.061C36.5185 109.634 37.2939 109.955 38.1024 109.955H136.774C137.582 109.955 138.357 109.634 138.929 109.061C139.501 108.489 139.822 107.713 139.822 106.903C139.822 106.094 139.501 105.317 138.929 104.745C138.357 104.172 137.582 103.851 136.774 103.851Z" fill="#E6E6E6"/>
<path d="M68.6956 86.7363H38.1024C37.2939 86.7363 36.5185 87.0579 35.9468 87.6303C35.3751 88.2027 35.054 88.9791 35.054 89.7886C35.054 90.5981 35.3751 91.3745 35.9468 91.9469C36.5185 92.5193 37.2939 92.8409 38.1024 92.8409H68.6957C69.5042 92.8409 70.2796 92.5193 70.8513 91.9469C71.423 91.3745 71.7441 90.5981 71.7441 89.7886C71.7441 88.9791 71.423 88.2027 70.8513 87.6303C70.2796 87.0579 69.5041 86.7363 68.6956 86.7363Z" fill="#E6E6E6"/>
<path d="M318.127 44.1301H31.8991C31.7651 44.1301 31.6367 44.0769 31.542 43.982C31.4472 43.8872 31.394 43.7586 31.394 43.6245C31.394 43.4903 31.4472 43.3617 31.542 43.2669C31.6367 43.1721 31.7651 43.1188 31.8991 43.1188H318.127C318.261 43.1188 318.389 43.1721 318.484 43.2669C318.578 43.3617 318.632 43.4903 318.632 43.6245C318.632 43.7586 318.578 43.8872 318.484 43.982C318.389 44.0769 318.261 44.1301 318.127 44.1301Z" fill="#E6E6E6"/>
<path d="M46.2197 28.9494C48.5786 28.9494 50.4908 26.9921 50.4908 24.5777C50.4908 22.1633 48.5786 20.2061 46.2197 20.2061C43.8609 20.2061 41.9487 22.1633 41.9487 24.5777C41.9487 26.9921 43.8609 28.9494 46.2197 28.9494Z" fill="#E6E6E6"/>
<path d="M60.9741 28.9494C63.333 28.9494 65.2452 26.9921 65.2452 24.5777C65.2452 22.1633 63.333 20.2061 60.9741 20.2061C58.6153 20.2061 56.7031 22.1633 56.7031 24.5777C56.7031 26.9921 58.6153 28.9494 60.9741 28.9494Z" fill="#E6E6E6"/>
<path d="M75.7285 28.9494C78.0873 28.9494 79.9996 26.9921 79.9996 24.5777C79.9996 22.1633 78.0873 20.2061 75.7285 20.2061C73.3697 20.2061 71.4575 22.1633 71.4575 24.5777C71.4575 26.9921 73.3697 28.9494 75.7285 28.9494Z" fill="#E6E6E6"/>
<path d="M92.5525 28.0328C92.4852 28.0329 92.4186 28.0195 92.3566 27.9934C92.2946 27.9672 92.2384 27.9289 92.1915 27.8807L89.3096 24.9311C89.2172 24.8366 89.1655 24.7097 89.1655 24.5775C89.1655 24.4453 89.2172 24.3184 89.3096 24.2239L92.1915 21.2745C92.2377 21.2263 92.2929 21.1877 92.3541 21.161C92.4153 21.1343 92.4812 21.12 92.5479 21.119C92.6146 21.1179 92.6809 21.1301 92.7429 21.1548C92.8049 21.1796 92.8614 21.2163 92.9091 21.2631C92.9568 21.3098 92.9948 21.3655 93.0209 21.427C93.0469 21.4886 93.0606 21.5546 93.061 21.6215C93.0614 21.6883 93.0486 21.7545 93.0233 21.8163C92.9979 21.8782 92.9606 21.9344 92.9135 21.9817L90.3772 24.5775L92.9135 27.1736C92.983 27.2447 93.03 27.3348 93.0486 27.4326C93.0672 27.5304 93.0565 27.6315 93.018 27.7232C92.9794 27.815 92.9147 27.8933 92.8319 27.9484C92.7491 28.0034 92.6519 28.0328 92.5525 28.0328Z" fill="#E6E6E6"/>
<path d="M97.3952 28.0329C97.2957 28.0329 97.1986 28.0035 97.1157 27.9484C97.0329 27.8933 96.9682 27.815 96.9297 27.7233C96.8911 27.6315 96.8805 27.5304 96.899 27.4326C96.9176 27.3349 96.9646 27.2448 97.0341 27.1736L99.5702 24.5775L97.0341 21.9817C96.942 21.8855 96.8915 21.7568 96.8936 21.6236C96.8957 21.4904 96.9503 21.3633 97.0454 21.2702C97.1406 21.177 97.2686 21.1252 97.4017 21.126C97.5348 21.1268 97.6622 21.1802 97.7562 21.2746L100.638 24.2239C100.73 24.3184 100.782 24.4453 100.782 24.5775C100.782 24.7097 100.73 24.8367 100.638 24.9311L97.7562 27.8808C97.7092 27.929 97.6531 27.9673 97.5911 27.9934C97.529 28.0195 97.4624 28.0329 97.3952 28.0329Z" fill="#E6E6E6"/>
<path d="M292.602 20.7122H287.244C287.098 20.7121 286.954 20.7407 286.82 20.7964C286.686 20.852 286.564 20.9336 286.461 21.0364C286.359 21.1393 286.277 21.2614 286.222 21.3958C286.166 21.5301 286.137 21.6742 286.137 21.8196V27.1899C286.137 27.3354 286.166 27.4794 286.222 27.6138C286.277 27.7482 286.359 27.8703 286.461 27.9731C286.564 28.076 286.686 28.1575 286.82 28.2132C286.954 28.2688 287.098 28.2974 287.244 28.2974H292.602C292.896 28.2977 293.178 28.1812 293.386 27.9736C293.595 27.766 293.712 27.4842 293.713 27.1899V21.8196C293.712 21.5253 293.595 21.2435 293.386 21.0359C293.178 20.8283 292.896 20.7119 292.602 20.7122Z" fill="#E6E6E6"/>
<path d="M279.471 20.7122H274.112C273.967 20.7121 273.823 20.7407 273.689 20.7964C273.555 20.852 273.433 20.9336 273.33 21.0364C273.227 21.1393 273.146 21.2614 273.09 21.3958C273.035 21.5301 273.006 21.6742 273.006 21.8196V27.1899C273.006 27.3354 273.035 27.4794 273.09 27.6138C273.146 27.7482 273.227 27.8703 273.33 27.9731C273.433 28.076 273.555 28.1575 273.689 28.2132C273.823 28.2688 273.967 28.2974 274.112 28.2974H279.471C279.765 28.2977 280.047 28.1812 280.255 27.9736C280.463 27.766 280.581 27.4842 280.582 27.1899V21.8196C280.581 21.5253 280.463 21.2435 280.255 21.0359C280.047 20.8283 279.765 20.7119 279.471 20.7122Z" fill="#E6E6E6"/>
<path d="M304.976 20.965H299.617C299.472 20.9649 299.328 20.9935 299.194 21.0492C299.06 21.1048 298.938 21.1864 298.835 21.2892C298.732 21.3921 298.651 21.5142 298.595 21.6486C298.54 21.7829 298.511 21.927 298.511 22.0724V27.4427C298.511 27.5882 298.54 27.7322 298.595 27.8666C298.651 28.001 298.732 28.1231 298.835 28.2259C298.938 28.3288 299.06 28.4103 299.194 28.466C299.328 28.5216 299.472 28.5502 299.617 28.5502H304.976C305.27 28.5505 305.552 28.434 305.76 28.2264C305.968 28.0188 306.086 27.737 306.087 27.4427V22.0724C306.086 21.7781 305.968 21.4963 305.76 21.2887C305.552 21.0811 305.27 20.9647 304.976 20.965Z" fill="#E6E6E6"/>
<path d="M196.429 23.0079H153.596C153.238 23.0079 152.895 23.1502 152.642 23.4034C152.39 23.6566 152.248 24 152.248 24.3581C152.248 24.7162 152.39 25.0596 152.642 25.3128C152.895 25.566 153.238 25.7083 153.596 25.7083H196.429C196.787 25.7083 197.13 25.566 197.383 25.3128C197.636 25.0596 197.778 24.7162 197.778 24.3581C197.778 24 197.636 23.6566 197.383 23.4034C197.13 23.1502 196.787 23.0079 196.429 23.0079Z" fill="#E6E6E6"/>
<path d="M81.62 207.555L56.0054 206.745C52.4528 206.632 48.4577 206.638 45.9237 208.476C43.0478 210.563 43.4833 214.259 45.871 216.656C48.2588 219.054 52.0715 220.424 55.8137 221.537C75.6944 227.454 97.6968 228.655 119.061 227.316C140.424 225.977 161.348 222.193 182.169 218.421C184.144 218.063 186.382 217.548 187.188 216.173C187.967 214.841 186.947 213.236 185.364 212.376C183.781 211.516 181.773 211.226 179.837 210.97C144.763 206.355 109.309 205.342 74.0287 207.948" fill="#F5BF33"/>
<path d="M127.641 187.83V181.762C123.243 181.825 107.505 181.717 103.399 181.762C103.093 202.971 101.221 198.817 118.575 198.899C119.372 198.902 120.136 199.221 120.7 199.787C121.263 200.352 121.58 201.118 121.581 201.916V202.007C121.581 202.807 121.263 203.575 120.698 204.14C120.133 204.706 119.367 205.024 118.568 205.024H103.399V211.092H127.641C127.675 211.071 127.617 205.232 127.642 205.024C128.667 187.444 126.638 193.766 111.901 193.061C111.242 193.028 110.621 192.741 110.166 192.262C109.712 191.782 109.459 191.146 109.46 190.485V190.409C109.46 189.725 109.731 189.069 110.214 188.586C110.697 188.102 111.352 187.83 112.035 187.83H127.641Z" fill="#3F3D56"/>
<path d="M157.439 187.83V181.762C153.041 181.825 137.303 181.717 133.197 181.762C132.889 203.155 130.986 198.742 148.829 198.902C149.508 198.909 150.156 199.184 150.634 199.667C151.111 200.15 151.379 200.802 151.379 201.481C151.379 201.8 151.379 202.126 151.379 202.445C151.379 202.784 151.312 203.119 151.183 203.432C151.053 203.745 150.863 204.029 150.624 204.269C150.385 204.508 150.101 204.698 149.789 204.828C149.476 204.957 149.141 205.024 148.803 205.024H133.197V211.092H157.439C157.473 211.071 157.415 205.232 157.439 205.024C158.464 187.444 156.436 193.766 141.699 193.061C141.04 193.028 140.419 192.741 139.964 192.262C139.51 191.782 139.257 191.146 139.257 190.485V190.409C139.257 189.725 139.529 189.069 140.012 188.586C140.495 188.102 141.15 187.83 141.833 187.83H157.439Z" fill="#3F3D56"/>
<path d="M96.3283 187.83V181.762H72.0859C72.0688 187.175 72.0983 201.5 72.0859 207.046C67.334 215.101 94.3295 209.524 96.3297 211.094C96.3283 211.092 96.3283 205.024 96.3283 205.024C77.8833 204.927 77.4198 208.384 78.0132 191.658C78.0489 190.632 78.4813 189.658 79.2193 188.944C79.9573 188.23 80.9433 187.831 81.9696 187.83C87.3021 187.83 96.3283 187.83 96.3283 187.83Z" fill="#3F3D56"/>
<path d="M144.246 135.074L118.632 134.398C115.079 134.304 111.084 134.309 108.55 135.842C105.674 137.581 106.109 140.662 108.497 142.66C110.885 144.659 114.698 145.801 118.44 146.729C138.321 151.661 160.323 152.662 181.687 151.546C203.051 150.43 223.975 147.275 244.796 144.131C246.77 143.833 249.008 143.404 249.814 142.257C250.593 141.148 249.573 139.81 247.99 139.092C246.407 138.375 244.4 138.134 242.463 137.92C207.329 134.072 171.932 133.229 136.655 135.401" fill="#F5BF33"/>
<path d="M139.762 108.438C139.35 117.807 142.789 120.756 130.924 119.562C130.122 113.973 134.187 106.217 124.864 108.187C126.731 112.241 119.66 143 130.922 137.513C131.555 128.272 127.386 124.219 139.763 125.633C140.755 131.345 136.123 139.752 145.823 137.767C143.955 133.711 151.026 102.955 139.762 108.438Z" fill="#3F3D56"/>
<path d="M201.884 108.438C202.716 108.953 194.262 117.907 194.08 118.64C193.826 118.014 185.758 109.254 186.732 108.439C175.505 102.884 182.502 133.821 180.67 137.769C180.672 137.768 186.732 137.768 186.732 137.768V118.553C195.251 130.057 193.669 128.121 201.884 117.988L201.884 137.768C213.11 143.325 206.114 112.383 207.946 108.437C207.944 108.438 201.884 108.438 201.884 108.438Z" fill="#3F3D56"/>
<path d="M175.116 108.438H150.874C149.449 116.945 154.159 114.092 159.966 114.506L159.965 137.768H166.025V114.507C171.805 114.113 176.559 116.908 175.116 108.438Z" fill="#3F3D56"/>
<path d="M219.056 131.7C217.656 124.009 217.656 116.129 219.056 108.438H212.995C213.03 112.283 212.984 127.797 212.988 134.892C212.987 135.657 213.291 136.392 213.831 136.933C214.372 137.475 215.105 137.78 215.869 137.78C221.975 137.788 233.632 137.743 237.237 137.768L237.237 131.7H219.056Z" fill="#3F3D56"/>
<path d="M64.2328 132.711H39.5994C38.3939 132.711 37.2377 133.191 36.3853 134.044C35.5328 134.898 35.054 136.055 35.054 137.262C35.054 138.469 35.5328 139.627 36.3853 140.48C37.2377 141.334 38.3939 141.813 39.5994 141.813H64.2328C65.4384 141.813 66.5945 141.334 67.447 140.48C68.2994 139.627 68.7783 138.469 68.7783 137.262C68.7783 136.055 68.2994 134.898 67.447 134.044C66.5945 133.191 65.4383 132.711 64.2328 132.711Z" fill="#E6E6E6"/>
<path d="M287.572 261.725L282.571 261.724L280.192 242.412L287.573 242.413L287.572 261.725Z" fill="#FFB6B6"/>
<path d="M287.748 266.948L272.371 266.947V266.752C272.371 265.163 273.001 263.639 274.124 262.515C275.246 261.391 276.769 260.76 278.356 260.76L281.165 258.626L286.406 260.76L287.748 260.76L287.748 266.948Z" fill="#2F2E41"/>
<path d="M305.248 261.725L300.248 261.724L297.869 242.412L305.249 242.413L305.248 261.725Z" fill="#FFB6B6"/>
<path d="M305.425 266.948L290.047 266.947V266.752C290.047 265.163 290.678 263.639 291.801 262.515C292.923 261.391 294.445 260.76 296.033 260.76L298.842 258.626L304.083 260.76L305.425 260.76L305.425 266.948Z" fill="#2F2E41"/>
<path d="M275.121 156.499C275.121 156.499 270.31 171.294 271.198 173.241C272.086 175.188 273.601 173.671 272.086 175.188C270.571 176.705 269.248 175.093 270.667 177.669C272.086 180.245 274.235 201.453 275.181 202.48C276.126 203.507 277.426 203.534 276.271 204.532C275.116 205.529 273.601 203.507 275.116 205.529C276.631 207.552 280.652 254.214 280.652 254.214H288.506C288.506 254.214 290.462 251.957 289.355 250.487C288.247 249.018 289.452 248.452 289.355 247.471C289.258 246.49 289.626 244.374 289.694 243.409C289.763 242.444 291.09 219.451 287.901 206.169L293.716 180.879L296.623 211.446C296.623 211.446 293.383 237.085 296.623 245.327C296.623 245.327 294.011 247.505 295.17 248.767C296.328 250.029 297.338 249.018 296.328 250.029C295.318 251.041 297.843 254.58 297.843 254.58L306.429 254.075L311.289 206.169C311.289 206.169 312.108 201.173 311.289 200.317C310.47 199.461 310.47 202.495 310.47 199.461V195.416C310.47 195.416 314.132 170.534 314.068 169.068C314.005 167.603 307.944 156.984 307.944 156.984L275.121 156.499Z" fill="#2F2E41"/>
<path d="M300.515 96.6597L287.978 95.7964L284.227 101.719L275.192 105.397V134.572C276.132 137.397 276.618 140.353 276.631 143.33C276.597 149.143 275.105 155.99 275.621 157.49C280.672 172.154 308.45 157.49 308.45 157.49L307.944 141.813L308.63 106.386L302.954 101.853L300.515 96.6597Z" fill="#E6E6E6"/>
<path d="M274.612 162.832L273.748 153.607L268.416 153.367L269.677 163.087C269.353 163.564 269.17 164.123 269.146 164.699C269.122 165.276 269.259 165.847 269.542 166.35C269.825 166.852 270.243 167.266 270.748 167.544C271.252 167.822 271.825 167.954 272.4 167.924C272.976 167.894 273.532 167.705 274.005 167.376C274.479 167.047 274.851 166.593 275.081 166.064C275.311 165.535 275.389 164.952 275.306 164.381C275.223 163.81 274.983 163.273 274.612 162.832Z" fill="#FFB6B6"/>
<path d="M277.236 104.619L277.089 104.644C275.714 104.877 274.416 105.442 273.309 106.291C272.201 107.139 271.317 108.245 270.733 109.513C269.206 112.819 264.248 134.552 266.421 137.83C268.107 140.372 267.697 139.876 266.905 141.793C266.113 143.711 264.836 141.665 265.882 144.708C266.928 147.751 268.078 147.317 267.107 148.493C266.136 149.669 265.14 149.438 266.084 151.407C267.028 153.377 266.875 154.041 267.053 154.783C267.232 155.524 267.077 160.741 267.077 160.741C267.077 160.741 272.772 160.308 275.606 161.664C275.606 161.664 274.025 156.396 274.919 155.553C275.813 154.709 276.885 154.608 276.12 153.38C275.354 152.152 273.618 152.101 275.508 151.488C277.398 150.875 276.789 139.879 276.789 139.879C279.902 131.717 278.672 118.293 277.236 104.619Z" fill="#E6E6E6"/>
<path d="M311.577 163.49L311.975 154.234L317.288 153.724L316.519 163.495C316.866 163.956 317.078 164.504 317.131 165.079C317.183 165.653 317.075 166.231 316.818 166.748C316.56 167.264 316.164 167.698 315.674 168.001C315.184 168.305 314.619 168.465 314.043 168.464C313.467 168.464 312.902 168.302 312.412 167.998C311.923 167.694 311.528 167.259 311.271 166.742C311.015 166.225 310.908 165.647 310.962 165.072C311.016 164.498 311.229 163.95 311.577 163.49Z" fill="#FFB6B6"/>
<path d="M306.023 105.484L306.172 105.501C307.557 105.665 308.881 106.164 310.03 106.955C311.179 107.747 312.118 108.806 312.765 110.043C314.457 113.268 319.808 135.109 318.498 138.106C317.276 140.901 317.327 140.214 318.215 142.089C319.103 143.964 320.274 141.856 319.383 144.948C318.492 148.041 317.322 147.665 318.351 148.79C319.38 149.915 320.363 149.635 319.519 151.649C318.675 153.664 318.862 154.32 318.721 155.07C318.58 155.819 318.998 161.021 318.998 161.021C318.998 161.021 313.288 160.877 310.526 162.374C310.526 162.374 311.84 157.033 310.904 156.236C309.969 155.439 308.892 155.391 309.595 154.126C310.298 152.862 312.03 152.722 310.111 152.206C308.193 151.689 308.247 140.677 308.247 140.677L306.023 105.484Z" fill="#E6E6E6"/>
<path d="M294.554 93.9418C299.955 93.9418 304.333 89.5582 304.333 84.1507C304.333 78.7432 299.955 74.3596 294.554 74.3596C289.153 74.3596 284.775 78.7432 284.775 84.1507C284.775 89.5582 289.153 93.9418 294.554 93.9418Z" fill="#FFB6B6"/>
<path d="M301.359 92.5317C302.719 91.466 302.852 89.4347 304.012 88.1542C305.953 86.0133 306.864 83.7099 305.848 81.1731C304.949 78.9294 305.14 76.1713 303.203 74.727C304.154 74.3823 304.378 73.6665 303.539 73.6533C302.973 73.6444 300.864 74.7272 301.879 73.3783C302.894 72.0293 300.972 72.5618 301.1 72.0096C301.227 71.4575 302.042 71.1516 302.401 71.5893C302.097 71.279 301.727 71.0422 301.318 70.897C300.91 70.7517 300.473 70.7019 300.042 70.7512C299.611 70.8006 299.197 70.9479 298.832 71.1818C298.466 71.4157 298.159 71.7301 297.933 72.101C296.79 70.3848 295.576 69.2038 293.825 70.293C292.107 71.3626 292.129 72.6849 290.281 72.3671C289.412 72.2178 289.329 73.8616 288.736 74.5143C288.461 74.8612 288.105 75.1338 287.698 75.3074C287.292 75.481 286.848 75.55 286.408 75.5082C285.542 75.3443 284.879 74.2633 285.365 73.5263L283.323 78.1905L282.5 77.1798C281.192 78.0331 281.622 80.2596 282.938 81.0994C284.254 81.9393 285.965 81.7598 287.481 81.3875C289.305 80.9393 291.189 80.7829 293.062 80.924C295.924 81.3288 297.917 84.7543 296.857 87.4466C297.957 86.3655 299.991 87.2627 300.561 88.6963C301.13 90.1299 300.712 91.7451 300.29 93.229" fill="#2F2E41"/>
</svg>
