<svg width="480" height="267" viewBox="0 0 480 267" fill="none" xmlns="http://www.w3.org/2000/svg">
<g clip-path="url(#clip0_753_3340)">
<path d="M125.853 83.6408C141.036 83.6408 153.343 71.2979 153.343 56.0721C153.343 40.8463 141.036 28.5034 125.853 28.5034C110.671 28.5034 98.3628 40.8463 98.3628 56.0721C98.3628 71.2979 110.671 83.6408 125.853 83.6408Z" fill="#FF6584"/>
<path d="M212.06 141.029H77.2005C77.0316 141.031 76.8629 141.018 76.6965 140.989L140.479 30.1937C140.868 29.5037 141.433 28.9296 142.116 28.5303C142.799 28.1309 143.575 27.9204 144.366 27.9204C145.156 27.9204 145.933 28.1309 146.615 28.5303C147.298 28.9296 147.863 29.5037 148.253 30.1937L191.058 104.546L193.109 108.103L212.06 141.029Z" fill="#3F3D56"/>
<path opacity="0.2" d="M212.06 141.029H166.015L188.618 108.103L190.245 105.731L191.059 104.546L193.109 108.103L212.06 141.029Z" fill="black"/>
<path d="M287.148 141.029H170.506L193.109 108.103L194.736 105.732L224.189 62.8237C226.12 60.0115 230.766 59.8364 233.036 62.2933C233.188 62.4609 233.33 62.638 233.46 62.8237L287.148 141.029Z" fill="#3F3D56"/>
<path d="M321.388 122.802C325.963 122.802 329.672 119.082 329.672 114.494C329.672 109.906 325.963 106.187 321.388 106.187C316.813 106.187 313.104 109.906 313.104 114.494C313.104 119.082 316.813 122.802 321.388 122.802Z" fill="#B98809"/>
<path d="M322.186 139.517H320.49L321.263 113.243L322.186 139.517Z" fill="#3F3D56"/>
<path d="M321.412 118.223L323.234 115.695L321.388 118.848L321.188 118.498L321.412 118.223Z" fill="#3F3D56"/>
<path d="M321.213 120.775L319.391 118.248L321.238 121.4L321.437 121.05L321.213 120.775Z" fill="#3F3D56"/>
<path d="M397.376 122.802C401.951 122.802 405.659 119.082 405.659 114.494C405.659 109.906 401.951 106.187 397.376 106.187C392.801 106.187 389.092 109.906 389.092 114.494C389.092 119.082 392.801 122.802 397.376 122.802Z" fill="#B98809"/>
<path d="M398.174 139.517H396.477L397.251 113.243L398.174 139.517Z" fill="#3F3D56"/>
<path d="M397.401 118.223L399.222 115.695L397.376 118.848L397.176 118.498L397.401 118.223Z" fill="#3F3D56"/>
<path d="M397.201 120.775L395.379 118.248L397.226 121.4L397.425 121.05L397.201 120.775Z" fill="#3F3D56"/>
<path d="M345.384 114.83C352.141 114.83 357.619 109.337 357.619 102.561C357.619 95.7844 352.141 90.2913 345.384 90.2913C338.627 90.2913 333.15 95.7844 333.15 102.561C333.15 109.337 338.627 114.83 345.384 114.83Z" fill="#B98809"/>
<path d="M346.563 139.517H344.058L345.2 100.713L346.563 139.517Z" fill="#3F3D56"/>
<path d="M345.421 108.067L348.111 104.335L345.385 108.991L345.089 108.474L345.421 108.067Z" fill="#3F3D56"/>
<path d="M345.126 111.836L342.436 108.104L345.163 112.76L345.458 112.243L345.126 111.836Z" fill="#3F3D56"/>
<path d="M375.22 114.83C381.977 114.83 387.454 109.337 387.454 102.561C387.454 95.7844 381.977 90.2913 375.22 90.2913C368.463 90.2913 362.986 95.7844 362.986 102.561C362.986 109.337 368.463 114.83 375.22 114.83Z" fill="#B98809"/>
<path d="M376.399 139.517H373.894L375.036 100.713L376.399 139.517Z" fill="#3F3D56"/>
<path d="M375.257 108.067L377.947 104.335L375.22 108.991L374.925 108.474L375.257 108.067Z" fill="#3F3D56"/>
<path d="M374.962 111.836L372.272 108.104L374.999 112.76L375.294 112.243L374.962 111.836Z" fill="#3F3D56"/>
<path d="M297.834 114.83C304.59 114.83 310.068 109.337 310.068 102.561C310.068 95.7844 304.59 90.2913 297.834 90.2913C291.077 90.2913 285.599 95.7844 285.599 102.561C285.599 109.337 291.077 114.83 297.834 114.83Z" fill="#B98809"/>
<path d="M299.013 139.517H296.507L297.65 100.713L299.013 139.517Z" fill="#3F3D56"/>
<path d="M297.87 108.067L300.56 104.335L297.833 108.991L297.539 108.474L297.87 108.067Z" fill="#3F3D56"/>
<path d="M297.576 111.836L294.885 108.104L297.612 112.76L297.907 112.243L297.576 111.836Z" fill="#3F3D56"/>
<path d="M442.578 267H43.315C38.2846 267 33.3035 266.006 28.656 264.076C24.0086 262.145 19.7858 259.316 16.2288 255.749C12.6717 252.181 9.85017 247.947 7.92513 243.286C6.00009 238.625 5.00928 233.63 5.00928 228.585C5.00928 223.54 6.00009 218.545 7.92513 213.884C9.85017 209.224 12.6717 204.989 16.2288 201.422C19.7858 197.854 24.0086 195.025 28.656 193.094C33.3035 191.164 38.2846 190.17 43.315 190.17H441.694C445.602 190.17 449.349 188.613 452.112 185.843C454.875 183.072 456.427 179.314 456.427 175.395C456.427 171.477 454.875 167.719 452.112 164.948C449.349 162.177 445.602 160.62 441.694 160.62H30.0553V136.98H441.694C451.854 136.98 461.597 141.028 468.781 148.232C475.964 155.436 480 165.207 480 175.395C480 185.583 475.964 195.354 468.781 202.559C461.597 209.763 451.854 213.81 441.694 213.81H43.315C39.4076 213.81 35.6602 215.367 32.8972 218.138C30.1342 220.908 28.582 224.667 28.582 228.585C28.582 232.504 30.1342 236.262 32.8972 239.033C35.6602 241.803 39.4076 243.36 43.315 243.36H442.578V267Z" fill="#E6E6E6"/>
<path d="M63.0572 148.209H44.7883V149.391H63.0572V148.209Z" fill="white"/>
<path d="M114.917 148.209H96.6482V149.391H114.917V148.209Z" fill="white"/>
<path d="M166.777 148.209H148.508V149.391H166.777V148.209Z" fill="white"/>
<path d="M218.637 148.209H200.368V149.391H218.637V148.209Z" fill="white"/>
<path d="M270.497 148.209H252.228V149.391H270.497V148.209Z" fill="white"/>
<path d="M322.357 148.209H304.088V149.391H322.357V148.209Z" fill="white"/>
<path d="M374.217 148.209H355.948V149.391H374.217V148.209Z" fill="white"/>
<path d="M426.077 148.209H407.808V149.391H426.077V148.209Z" fill="white"/>
<path d="M63.0572 201.399H44.7883V202.581H63.0572V201.399Z" fill="white"/>
<path d="M114.917 201.399H96.6482V202.581H114.917V201.399Z" fill="white"/>
<path d="M166.777 201.399H148.508V202.581H166.777V201.399Z" fill="white"/>
<path d="M218.637 201.399H200.368V202.581H218.637V201.399Z" fill="white"/>
<path d="M270.497 201.399H252.228V202.581H270.497V201.399Z" fill="white"/>
<path d="M322.357 201.399H304.088V202.581H322.357V201.399Z" fill="white"/>
<path d="M374.217 201.399H355.948V202.581H374.217V201.399Z" fill="white"/>
<path d="M426.077 201.399H407.808V202.581H426.077V201.399Z" fill="white"/>
<path d="M63.0572 254.589H44.7883V255.771H63.0572V254.589Z" fill="white"/>
<path d="M114.917 254.589H96.6482V255.771H114.917V254.589Z" fill="white"/>
<path d="M166.777 254.589H148.508V255.771H166.777V254.589Z" fill="white"/>
<path d="M218.637 254.589H200.368V255.771H218.637V254.589Z" fill="white"/>
<path d="M270.497 254.589H252.228V255.771H270.497V254.589Z" fill="white"/>
<path d="M322.357 254.589H304.088V255.771H322.357V254.589Z" fill="white"/>
<path d="M374.217 254.589H355.948V255.771H374.217V254.589Z" fill="white"/>
<path d="M426.077 254.589H407.808V255.771H426.077V254.589Z" fill="white"/>
<path d="M320.524 46.9089C322.443 46.9071 324.331 47.3964 326.009 48.3304H315.052C316.725 47.3967 318.609 46.9074 320.524 46.9089Z" fill="#E6E6E6"/>
<path d="M299.262 45.4876C302.468 45.4838 305.596 46.4771 308.216 48.3305H290.32C292.936 46.4792 296.06 45.4861 299.262 45.4876Z" fill="#E6E6E6"/>
<path d="M178.825 27.4928C179.214 20.5978 182.032 14.0655 186.776 9.06038C191.521 4.05527 197.884 0.902759 204.731 0.164904C211.578 -0.572951 218.464 1.15181 224.161 5.03169C229.857 8.91157 233.995 14.6944 235.836 21.349C236.188 21.3364 236.539 21.3222 236.895 21.3222C243.172 21.3233 249.281 23.3629 254.307 27.1357C259.332 30.9085 263.005 36.2117 264.775 42.252C268.934 40.419 273.583 40.0213 277.992 41.1212C282.402 42.2211 286.323 44.7565 289.142 48.3304H198.502C195.858 48.3379 193.239 47.8102 190.803 46.7789C188.367 45.7477 186.163 44.234 184.324 42.3286C182.485 40.4233 181.048 38.1653 180.1 35.6899C179.151 33.2146 178.711 30.5727 178.804 27.9226C178.81 27.7795 178.817 27.6363 178.825 27.4928Z" fill="#E6E6E6"/>
<path d="M327.138 68.1848C325.218 68.183 323.33 68.6723 321.652 69.6063H332.609C330.936 68.6726 329.052 68.1832 327.138 68.1848Z" fill="#E6E6E6"/>
<path d="M348.399 66.7634C345.193 66.7597 342.065 67.7529 339.445 69.6064H357.341C354.725 67.7551 351.601 66.762 348.399 66.7634Z" fill="#E6E6E6"/>
<path d="M468.836 48.7689C468.447 41.874 465.629 35.3416 460.885 30.3365C456.14 25.3314 449.777 22.1789 442.93 21.441C436.083 20.7032 429.197 22.4279 423.501 26.3078C417.804 30.1877 413.666 35.9705 411.825 42.6252C411.473 42.6125 411.122 42.5983 410.767 42.5983C404.489 42.5995 398.38 44.639 393.355 48.4118C388.329 52.1846 384.656 57.4878 382.887 63.5281C378.727 61.6951 374.078 61.2974 369.669 62.3973C365.259 63.4972 361.338 66.0326 358.52 69.6065H449.159C451.803 69.614 454.422 69.0863 456.858 68.055C459.294 67.0238 461.498 65.5101 463.337 63.6047C465.176 61.6994 466.613 59.4414 467.561 56.966C468.51 54.4907 468.95 51.8488 468.857 49.1987C468.851 49.0556 468.844 48.9124 468.836 48.7689Z" fill="#E6E6E6"/>
<path d="M408.408 250.48L418.942 250.486L418.943 248.809L408.409 248.803L408.408 250.48Z" fill="#3F3D56"/>
<path d="M332.242 249.182L334.416 249.686L417.02 249.73L417.763 247.994C419.058 245.017 419.503 241.738 419.047 238.522C418.691 236.125 417.8 233.743 415.775 232.709L412.109 208.224L366.409 208.142L348.727 222.444C348.727 222.444 340.387 222.293 335.856 227.95C334.221 230.054 333.256 232.602 333.086 235.264L332.907 238.206L332.242 249.182Z" fill="#B98809"/>
<path d="M350.385 259.001C356.019 259.001 360.585 254.421 360.585 248.772C360.585 243.122 356.019 238.543 350.385 238.543C344.752 238.543 340.185 243.122 340.185 248.772C340.185 254.421 344.752 259.001 350.385 259.001Z" fill="#3F3D56"/>
<path d="M350.385 254.156C353.35 254.156 355.754 251.745 355.754 248.772C355.754 245.799 353.35 243.388 350.385 243.388C347.42 243.388 345.017 245.799 345.017 248.772C345.017 251.745 347.42 254.156 350.385 254.156Z" fill="#CCCCCC"/>
<path d="M400.717 259.028C406.35 259.028 410.917 254.448 410.917 248.799C410.917 243.15 406.35 238.57 400.717 238.57C395.084 238.57 390.517 243.15 390.517 248.799C390.517 254.448 395.084 259.028 400.717 259.028Z" fill="#3F3D56"/>
<path d="M400.717 254.183C403.682 254.183 406.085 251.772 406.085 248.799C406.085 245.825 403.682 243.415 400.717 243.415C397.752 243.415 395.348 245.825 395.348 248.799C395.348 251.772 397.752 254.183 400.717 254.183Z" fill="#CCCCCC"/>
<path d="M355.752 220.772L380.427 220.783H383.439L388.524 220.786V220.414L388.528 215.929L388.532 210.894H385.148L382.136 210.891L376.801 210.887H373.789L367.629 210.883L355.752 220.772Z" fill="white"/>
<path d="M392.539 220.79L405.58 220.797L405.583 218.231V213.746L405.587 210.905H403.677L400.665 210.901L392.543 210.898L392.539 220.79Z" fill="white"/>
<path d="M386.847 231.352L388.52 231.353L388.521 228.166L386.849 228.165L386.847 231.352Z" fill="#3F3D56"/>
<path d="M362.437 225.302L362.438 223.625L359.261 223.623L359.26 225.3L362.437 225.302Z" fill="#3F3D56"/>
<path d="M361.267 224.362L361.083 224.362C360.624 224.361 360.17 224.271 359.746 224.094C359.322 223.918 358.937 223.659 358.613 223.334C358.288 223.008 358.031 222.622 357.856 222.196C357.68 221.771 357.59 221.315 357.59 220.855C357.591 220.395 357.681 219.939 357.857 219.514C358.033 219.089 358.291 218.703 358.615 218.377C358.94 218.052 359.325 217.794 359.75 217.618C360.174 217.442 360.628 217.352 361.087 217.352L361.271 217.352L361.267 224.362Z" fill="#3F3D56"/>
<path d="M332.907 238.206C334.172 238.344 335.444 238.03 336.5 237.32C337.557 236.609 338.329 235.547 338.681 234.322C339.034 233.096 338.944 231.785 338.427 230.619C337.91 229.454 336.999 228.509 335.855 227.95C334.221 230.054 333.256 232.602 333.086 235.263L332.907 238.206Z" fill="#3F3D56"/>
<path d="M382.136 210.891L388.524 220.414L388.528 215.929L385.148 210.894L382.136 210.891Z" fill="#F2F2F2"/>
<path d="M400.665 210.901L405.583 218.231V213.746L403.677 210.905L400.665 210.901Z" fill="#F2F2F2"/>
<path d="M373.789 210.887L380.427 220.782H383.439L376.801 210.887H373.789Z" fill="#F2F2F2"/>
<path d="M27.1087 168.894C42.0804 168.894 54.2173 156.723 54.2173 141.708C54.2173 126.694 42.0804 114.522 27.1087 114.522C12.137 114.522 0 126.694 0 141.708C0 156.723 12.137 168.894 27.1087 168.894Z" fill="#3F3D56"/>
<path d="M27.2215 149.893L13.6554 136.288C13.2141 135.844 12.9665 135.243 12.9668 134.617C12.9671 133.99 13.2155 133.39 13.6573 132.946C14.099 132.503 14.6981 132.254 15.3229 132.254C15.9477 132.254 16.5471 132.502 16.9893 132.945L26.996 142.98L58.9277 106.463C59.3401 105.992 59.9219 105.705 60.5452 105.665C61.1685 105.624 61.7823 105.834 62.2519 106.246C62.7215 106.659 63.0085 107.243 63.0498 107.868C63.0911 108.493 62.8834 109.108 62.4722 109.58L27.2215 149.893Z" fill="#B98809"/>
</g>
<defs>
<clipPath id="clip0_753_3340">
<rect width="480" height="267" fill="white"/>
</clipPath>
</defs>
</svg>
