<svg width="428" height="329" viewBox="0 0 428 329" fill="none" xmlns="http://www.w3.org/2000/svg">
<g clip-path="url(#clip0_754_3617)">
<path opacity="0.4" d="M196.122 290.511C294.353 290.511 373.984 284.325 373.984 276.695C373.984 269.064 294.353 262.878 196.122 262.878C97.891 262.878 18.2593 269.064 18.2593 276.695C18.2593 284.325 97.891 290.511 196.122 290.511Z" fill="#B98809"/>
<g opacity="0.4">
<path d="M353.654 197.967C352.591 194.739 348.28 193.253 344.028 194.651C343.415 194.851 342.823 195.107 342.258 195.417C341.986 195.342 341.705 195.275 341.421 195.225C341.653 194.296 341.742 193.337 341.684 192.382C343.151 191.4 344.341 190.058 345.14 188.484C345.939 186.91 346.319 185.157 346.246 183.393C347.709 182.408 348.895 181.065 349.69 179.491C350.486 177.918 350.865 176.166 350.791 174.404C352.265 173.432 353.454 172.085 354.235 170.502C356.286 166.441 355.436 161.877 352.335 160.307C349.234 158.737 345.053 160.759 343.003 164.82C342.19 166.388 341.81 168.144 341.902 169.907C340.439 170.892 339.253 172.235 338.458 173.809C337.662 175.383 337.283 177.134 337.357 178.896C335.894 179.881 334.709 181.224 333.913 182.798C333.117 184.372 332.738 186.123 332.812 187.885C331.346 188.868 330.157 190.212 329.358 191.786C328.559 193.361 328.178 195.114 328.251 196.878C326.777 197.85 325.588 199.197 324.806 200.78C324.421 201.544 324.129 202.351 323.936 203.184C323.422 202.432 322.795 201.764 322.078 201.203C321.996 200.564 321.856 199.933 321.659 199.319C320.261 195.061 316.512 192.466 313.289 193.529C310.067 194.592 308.577 198.901 309.975 203.159C310.547 204.984 311.648 206.599 313.139 207.797C313.221 208.437 313.361 209.068 313.557 209.682C314.369 212.152 315.972 214.061 317.805 215.02C317.642 215.553 317.526 216.099 317.457 216.652C315.729 218.316 314.617 220.517 314.302 222.895C312.572 224.559 311.459 226.762 311.146 229.142C310.29 229.964 309.582 230.929 309.054 231.993C306.999 236.054 307.849 240.622 310.95 242.188C314.051 243.753 318.232 241.74 320.287 237.674C320.828 236.614 321.182 235.468 321.333 234.287C323.061 232.624 324.174 230.423 324.488 228.045C326.218 226.381 327.331 224.178 327.644 221.798C329.36 220.131 330.46 217.93 330.762 215.556C332.498 213.892 333.614 211.685 333.925 209.301C334.458 208.796 334.934 208.234 335.344 207.626C337.054 207.977 338.827 207.866 340.479 207.303C341.092 207.104 341.684 206.847 342.249 206.537C344.1 207.026 346.054 206.956 347.866 206.336C352.105 204.95 354.712 201.199 353.654 197.967Z" fill="#3F3D56"/>
<g opacity="0.1">
<path d="M346.15 185.239C345.711 185.671 345.228 186.057 344.71 186.391C344.776 187.586 344.618 188.783 344.246 189.92C344.575 189.465 344.869 188.985 345.124 188.484C345.643 187.467 345.99 186.37 346.15 185.239Z" fill="#161616"/>
<path d="M350.695 176.25C350.255 176.682 349.773 177.068 349.255 177.402C349.321 178.597 349.163 179.794 348.791 180.931C349.121 180.475 349.415 179.993 349.669 179.491C350.186 178.474 350.533 177.379 350.695 176.25Z" fill="#161616"/>
<path d="M340.387 172.905C340.348 172.289 340.372 171.67 340.458 171.059C339.645 171.86 338.97 172.789 338.458 173.809C338.205 174.312 337.992 174.835 337.822 175.371C338.514 174.395 339.385 173.558 340.387 172.905Z" fill="#161616"/>
<path d="M311.54 227.303C311.905 226.794 312.319 226.32 312.774 225.888C312.846 225.32 312.967 224.76 313.138 224.214C312.775 224.703 312.454 225.222 312.18 225.767C311.927 226.262 311.713 226.775 311.54 227.303Z" fill="#161616"/>
<path d="M314.695 221.065C315.061 220.555 315.474 220.082 315.93 219.65C315.998 219.097 316.114 218.551 316.277 218.017C315.93 218.492 315.622 218.995 315.357 219.52C315.098 220.018 314.877 220.534 314.695 221.065Z" fill="#161616"/>
<path d="M341.601 194.228C341.164 194.66 340.683 195.045 340.165 195.375C340.223 196.331 340.134 197.289 339.902 198.218C340.184 198.267 340.463 198.331 340.739 198.411C341.304 198.101 341.896 197.844 342.509 197.644C346.769 196.246 351.076 197.732 352.134 200.96C352.397 201.772 352.443 202.638 352.268 203.472C353.67 201.823 354.252 199.813 353.649 197.971C352.586 194.743 348.276 193.257 344.024 194.655C343.411 194.855 342.819 195.111 342.254 195.421C341.982 195.346 341.701 195.279 341.417 195.229C341.496 194.894 341.555 194.563 341.601 194.228Z" fill="#161616"/>
<path d="M309.983 230.439C309.619 230.928 309.298 231.448 309.025 231.993C308.77 232.498 308.555 233.021 308.38 233.559C308.754 233.046 309.174 232.57 309.636 232.135C309.7 231.561 309.816 230.993 309.983 230.439Z" fill="#161616"/>
<path d="M335.821 181.894C335.783 181.278 335.807 180.659 335.892 180.048C335.08 180.849 334.404 181.778 333.892 182.798C333.639 183.301 333.427 183.824 333.256 184.36C333.949 183.384 334.819 182.547 335.821 181.894Z" fill="#161616"/>
<path d="M329.255 218.553C329.172 219.176 329.032 219.79 328.836 220.387C329.164 219.93 329.456 219.448 329.711 218.947C329.985 218.409 330.214 217.849 330.393 217.272C330.051 217.73 329.67 218.159 329.255 218.553Z" fill="#161616"/>
<path d="M322.944 231.038C322.862 231.661 322.722 232.275 322.525 232.872C322.856 232.416 323.149 231.934 323.404 231.432C323.677 230.893 323.905 230.333 324.086 229.757C323.743 230.217 323.361 230.645 322.944 231.038Z" fill="#161616"/>
<path d="M326.099 224.791C326.017 225.414 325.877 226.028 325.681 226.625C326.014 226.177 326.314 225.704 326.577 225.21C326.851 224.672 327.079 224.112 327.259 223.535C326.908 223.986 326.52 224.406 326.099 224.791Z" fill="#161616"/>
<path d="M332.41 212.311C332.328 212.932 332.188 213.545 331.992 214.14C332.32 213.685 332.613 213.205 332.867 212.704C333.144 212.157 333.374 211.587 333.553 211C333.212 211.47 332.83 211.909 332.41 212.311Z" fill="#161616"/>
<path d="M311.749 196.523C314.98 195.463 318.73 198.055 320.119 202.313C320.315 202.928 320.455 203.56 320.538 204.201C321.255 204.762 321.882 205.43 322.396 206.181C322.589 205.347 322.881 204.539 323.266 203.774C323.413 203.489 323.572 203.217 323.735 202.937C323.26 202.279 322.697 201.69 322.061 201.187C321.979 200.547 321.839 199.917 321.643 199.303C320.245 195.045 316.495 192.449 313.273 193.512C311.431 194.115 310.159 195.777 309.665 197.879C310.231 197.255 310.949 196.788 311.749 196.523Z" fill="#161616"/>
<path d="M326.731 199.872C326.694 199.257 326.72 198.64 326.807 198.03C325.991 198.83 325.314 199.759 324.802 200.78C324.549 201.282 324.336 201.803 324.166 202.338C324.861 201.364 325.731 200.527 326.731 199.872Z" fill="#161616"/>
<path d="M331.276 190.879C331.239 190.264 331.265 189.647 331.352 189.037C330.535 189.834 329.858 190.762 329.347 191.783C329.094 192.286 328.882 192.808 328.711 193.345C329.404 192.369 330.274 191.532 331.276 190.879Z" fill="#161616"/>
<path d="M319.788 237.281C319.706 237.905 319.566 238.52 319.37 239.119C320.058 238.165 320.585 237.106 320.931 235.983C320.589 236.448 320.206 236.882 319.788 237.281Z" fill="#161616"/>
</g>
<path d="M359.856 156.426C361.331 155.455 362.52 154.108 363.3 152.524C365.355 148.463 364.505 143.895 361.404 142.325C358.303 140.755 354.122 142.777 352.067 146.842C351.253 148.414 350.875 150.175 350.971 151.942C349.508 152.926 348.322 154.27 347.527 155.843C346.731 157.417 346.352 159.169 346.426 160.931C344.95 161.9 343.761 163.248 342.982 164.833C342.73 165.33 342.519 165.847 342.35 166.378C343.442 164.795 345.027 163.618 346.857 163.028C347.065 163.673 347.4 164.27 347.84 164.785C348.281 165.3 348.819 165.722 349.424 166.028C350.029 166.333 350.688 166.515 351.364 166.564C352.04 166.612 352.718 166.526 353.361 166.311C353.979 168.131 353.979 170.105 353.361 171.925C353.687 171.474 353.979 170.998 354.231 170.502C355.043 168.934 355.421 167.178 355.328 165.415C356.792 164.432 357.979 163.089 358.775 161.515C359.571 159.941 359.949 158.188 359.872 156.426H359.856Z" fill="#3F3D56"/>
<path d="M409.808 98.7992C411.069 98.2103 412.289 97.5346 413.457 96.777L399.927 86.8879L415.83 95.0814C419.047 92.5246 421.709 89.3376 423.652 85.7157C425.595 82.0938 426.778 78.1132 427.13 74.0178L400.103 74.2941L427.188 69.764C426.908 65.6645 425.793 61.6655 423.912 58.0128C422.031 54.36 419.423 51.1306 416.249 48.5229C413.075 45.9151 409.401 43.9842 405.454 42.8486C401.506 41.713 397.368 41.3968 393.294 41.9193C389.22 42.4418 385.296 43.7921 381.763 45.8872C378.23 47.9823 375.162 50.778 372.748 54.1025C370.334 57.4269 368.625 61.2101 367.725 65.2194C366.826 69.2288 366.756 73.3798 367.518 77.4174C365.554 78.3313 363.693 79.4542 361.969 80.7668L376.093 100.415L359.136 83.2161C355.557 86.7317 352.911 91.0847 351.437 95.881C349.963 100.677 349.708 105.766 350.695 110.685C345.572 113.077 341.225 116.863 338.151 121.609C335.077 126.356 333.4 131.872 333.311 137.527C333.222 143.181 334.725 148.747 337.648 153.588C340.571 158.429 344.797 162.35 349.841 164.902C354.886 167.454 360.547 168.535 366.177 168.021C371.807 167.507 377.179 165.419 381.678 161.996C386.178 158.572 389.625 153.952 391.624 148.661C393.623 143.371 394.095 137.625 392.984 132.08C399.114 129.225 404.106 124.391 407.158 118.355C410.209 112.318 411.143 105.431 409.808 98.7992Z" fill="#B98809"/>
<path opacity="0.1" d="M353.36 91.1291C350.299 97.1626 349.363 104.053 350.703 110.685C345.58 113.078 341.234 116.863 338.16 121.609C335.086 126.356 333.408 131.872 333.319 137.527C333.23 143.181 334.733 148.747 337.656 153.588C340.579 158.429 344.805 162.35 349.85 164.902C354.895 167.454 360.555 168.535 366.185 168.021C371.815 167.507 377.187 165.419 381.687 161.996C386.187 158.572 389.633 153.952 391.632 148.662C393.632 143.371 394.103 137.625 392.992 132.08C398.906 129.333 354.875 88.1105 353.36 91.1291Z" fill="#161616"/>
<path d="M387.318 47.4821C389.789 47.4821 391.792 45.4782 391.792 43.0064C391.792 40.5346 389.789 38.5308 387.318 38.5308C384.847 38.5308 382.844 40.5346 382.844 43.0064C382.844 45.4782 384.847 47.4821 387.318 47.4821Z" fill="#B98809"/>
<path d="M413.449 50.3541C415.92 50.3541 417.923 48.3503 417.923 45.8785C417.923 43.4066 415.92 41.4028 413.449 41.4028C410.978 41.4028 408.975 43.4066 408.975 45.8785C408.975 48.3503 410.978 50.3541 413.449 50.3541Z" fill="#B98809"/>
<path d="M423.526 90.5722C425.997 90.5722 428 88.5683 428 86.0965C428 83.6247 425.997 81.6208 423.526 81.6208C421.055 81.6208 419.052 83.6247 419.052 86.0965C419.052 88.5683 421.055 90.5722 423.526 90.5722Z" fill="#B98809"/>
<path d="M409.925 110.656C412.396 110.656 414.399 108.652 414.399 106.18C414.399 103.709 412.396 101.705 409.925 101.705C407.454 101.705 405.451 103.709 405.451 106.18C405.451 108.652 407.454 110.656 409.925 110.656Z" fill="#B98809"/>
<path d="M391.344 152.369C393.814 152.369 395.817 150.365 395.817 147.893C395.817 145.421 393.814 143.417 391.344 143.417C388.873 143.417 386.87 145.421 386.87 147.893C386.87 150.365 388.873 152.369 391.344 152.369Z" fill="#B98809"/>
<path opacity="0.1" d="M391.344 152.369C393.814 152.369 395.817 150.365 395.817 147.893C395.817 145.421 393.814 143.417 391.344 143.417C388.873 143.417 386.87 145.421 386.87 147.893C386.87 150.365 388.873 152.369 391.344 152.369Z" fill="#161616"/>
<path d="M350.029 105.125C352.5 105.125 354.503 103.122 354.503 100.65C354.503 98.1779 352.5 96.1741 350.029 96.1741C347.559 96.1741 345.556 98.1779 345.556 100.65C345.556 103.122 347.559 105.125 350.029 105.125Z" fill="#B98809"/>
<path opacity="0.1" d="M350.029 105.125C352.5 105.125 354.503 103.122 354.503 100.65C354.503 98.1779 352.5 96.1741 350.029 96.1741C347.559 96.1741 345.556 98.1779 345.556 100.65C345.556 103.122 347.559 105.125 350.029 105.125Z" fill="#161616"/>
<path opacity="0.1" d="M345.258 174.266C342.283 172.763 341.383 168.505 343.12 164.577C343.028 164.736 342.94 164.9 342.856 165.071C340.801 169.133 341.651 173.696 344.752 175.266C347.853 176.836 352.034 174.814 354.085 170.753C354.172 170.585 354.248 170.414 354.323 170.246C352.193 173.977 348.23 175.773 345.258 174.266Z" fill="#161616"/>
<path opacity="0.1" d="M340.839 183.008C337.868 181.505 336.964 177.247 338.705 173.315C338.613 173.478 338.52 173.642 338.437 173.809C336.382 177.87 337.231 182.438 340.333 184.004C343.434 185.57 347.614 183.556 349.669 179.491C349.753 179.323 349.833 179.156 349.908 178.984C347.774 182.714 343.815 184.511 340.839 183.008Z" fill="#161616"/>
<path opacity="0.1" d="M336.42 191.745C333.448 190.242 332.544 185.984 334.285 182.057C334.193 182.216 334.101 182.38 334.018 182.551C331.963 186.612 332.816 191.176 335.918 192.746C339.019 194.316 343.195 192.294 345.25 188.233C345.334 188.065 345.413 187.893 345.489 187.726C343.358 191.456 339.395 193.253 336.42 191.745Z" fill="#161616"/>
<path opacity="0.1" d="M332.017 200.508C329.041 199.005 328.142 194.747 329.879 190.82C329.786 190.979 329.699 191.142 329.611 191.31C327.56 195.371 328.41 199.939 331.511 201.509C334.612 203.079 338.793 201.057 340.843 196.991C340.931 196.824 341.006 196.656 341.082 196.485C338.939 200.194 334.976 201.99 332.017 200.508Z" fill="#161616"/>
<path opacity="0.1" d="M327.585 209.225C324.61 207.722 323.71 203.464 325.447 199.537C325.354 199.696 325.267 199.859 325.183 200.031C323.128 204.092 323.978 208.656 327.079 210.226C330.18 211.796 334.361 209.774 336.415 205.712C336.499 205.545 336.579 205.373 336.654 205.206C334.528 208.936 330.556 210.732 327.585 209.225Z" fill="#161616"/>
<path opacity="0.1" d="M323.166 217.967C320.194 216.464 319.29 212.206 321.031 208.279C320.939 208.438 320.847 208.601 320.763 208.769C318.709 212.83 319.558 217.398 322.663 218.968C325.769 220.538 329.924 218.511 332.017 214.45C332.101 214.283 332.18 214.115 332.255 213.944C330.1 217.674 326.158 219.47 323.166 217.967Z" fill="#161616"/>
<path opacity="0.1" d="M318.746 226.705C315.775 225.202 314.871 220.944 316.612 217.017C316.52 217.18 316.432 217.339 316.344 217.511C314.294 221.572 315.143 226.135 318.244 227.705C321.345 229.275 325.526 227.253 327.577 223.192C327.665 223.025 327.74 222.853 327.815 222.685C325.685 226.416 321.722 228.212 318.746 226.705Z" fill="#161616"/>
<path opacity="0.1" d="M314.331 235.447C311.356 233.944 310.456 229.686 312.193 225.759C312.101 225.918 312.013 226.081 311.929 226.248C309.874 230.31 310.724 234.877 313.825 236.447C316.926 238.017 321.107 235.995 323.162 231.93C323.245 231.762 323.321 231.595 323.396 231.423C321.266 235.154 317.303 236.933 314.331 235.447Z" fill="#161616"/>
<path opacity="0.1" d="M311.427 241.191C308.456 239.684 307.552 235.43 309.293 231.499C309.2 231.662 309.108 231.825 309.025 231.993C306.97 236.054 307.819 240.621 310.92 242.187C314.022 243.753 318.202 241.739 320.257 237.674C320.341 237.507 320.42 237.339 320.496 237.167C318.361 240.898 314.398 242.694 311.427 241.191Z" fill="#161616"/>
<path d="M391.272 202.292C391.733 200.969 392.015 199.59 392.109 198.193C392.417 198.192 392.721 198.128 393.002 198.005C393.284 197.881 393.537 197.701 393.745 197.475C393.954 197.249 394.114 196.983 394.215 196.692C394.316 196.402 394.356 196.094 394.333 195.787C394.309 195.48 394.223 195.182 394.079 194.91C393.935 194.639 393.737 194.399 393.496 194.208C393.256 194.016 392.978 193.877 392.682 193.797C392.385 193.718 392.074 193.701 391.771 193.747C391.273 191.48 390.277 189.354 388.856 187.521C387.434 185.688 385.622 184.195 383.551 183.15C383.819 182.62 383.865 182.006 383.68 181.442C383.494 180.878 383.093 180.411 382.563 180.144C382.034 179.876 381.42 179.83 380.857 180.015C380.293 180.201 379.826 180.602 379.559 181.132C379.462 181.32 379.394 181.522 379.358 181.731C376.902 181.273 374.373 181.408 371.98 182.126C369.588 182.843 367.401 184.121 365.602 185.854C364.243 185.635 362.861 185.594 361.492 185.733L359.68 193.985L359.571 186.03C357.491 186.486 355.526 187.362 353.796 188.604C352.066 189.845 350.607 191.427 349.509 193.252C348.41 195.076 347.695 197.106 347.408 199.217C347.12 201.327 347.265 203.475 347.835 205.527C348.405 207.579 349.387 209.494 350.722 211.154C352.057 212.814 353.715 214.184 355.597 215.18C357.479 216.177 359.544 216.779 361.667 216.95C363.789 217.121 365.924 216.857 367.941 216.175C368.157 216.564 368.485 216.88 368.883 217.079C369.293 217.288 369.757 217.364 370.212 217.299C370.667 217.234 371.09 217.03 371.425 216.715C371.76 216.4 371.99 215.99 372.083 215.539C372.176 215.089 372.129 214.621 371.946 214.199C372.66 213.708 373.332 213.159 373.955 212.558C377.222 213.089 380.574 212.572 383.529 211.081C386.484 209.589 388.892 207.2 390.406 204.255L381.973 202.836L391.272 202.292Z" fill="#B98809"/>
<g opacity="0.1">
<path d="M378.245 206.299C375.131 202.187 373.223 197.318 371.025 192.646C370.143 190.728 369.155 188.86 368.067 187.052L366.418 185.13C366.141 185.365 365.865 185.608 365.581 185.863C364.222 185.643 362.84 185.602 361.471 185.742L359.659 193.994L359.55 186.039C357.47 186.495 355.505 187.371 353.775 188.612C352.045 189.854 350.586 191.435 349.488 193.26C348.389 195.085 347.674 197.115 347.387 199.225C347.099 201.336 347.244 203.483 347.814 205.536C348.384 207.588 349.366 209.503 350.701 211.162C352.036 212.822 353.694 214.192 355.576 215.189C357.458 216.185 359.523 216.788 361.646 216.959C363.768 217.13 365.903 216.866 367.92 216.184C368.136 216.573 368.464 216.888 368.862 217.088C369.272 217.296 369.736 217.373 370.191 217.308C370.646 217.243 371.069 217.039 371.404 216.724C371.739 216.409 371.969 215.998 372.062 215.548C372.155 215.098 372.108 214.63 371.925 214.207C372.639 213.717 373.311 213.168 373.934 212.566C377.133 213.084 380.413 212.599 383.325 211.176C381.381 209.833 379.666 208.186 378.245 206.299Z" fill="#161616"/>
</g>
<path d="M323.107 188.63C323.28 188.289 323.362 187.909 323.346 187.527C323.33 187.145 323.216 186.773 323.015 186.448C322.814 186.122 322.534 185.854 322.199 185.668C321.865 185.482 321.489 185.385 321.107 185.386C320.472 182.021 318.752 178.957 316.21 176.665C316.62 175.066 316.775 173.413 316.671 171.766L308.447 170.364L316.432 169.861C316.289 169.111 316.092 168.372 315.842 167.651C316.153 167.437 316.406 167.149 316.579 166.813C316.78 166.413 316.857 165.962 316.799 165.517C316.741 165.073 316.552 164.656 316.255 164.321C315.958 163.985 315.567 163.747 315.133 163.636C314.699 163.525 314.242 163.547 313.821 163.698C311.706 160.709 308.611 158.555 305.074 157.611C301.537 156.667 297.781 156.993 294.459 158.531C291.136 160.07 288.458 162.724 286.889 166.033C285.32 169.342 284.959 173.096 285.869 176.644C285.385 176.848 284.99 177.22 284.756 177.69C284.551 178.096 284.474 178.554 284.535 179.005C284.597 179.455 284.795 179.876 285.101 180.211C285.408 180.546 285.81 180.78 286.253 180.881C286.696 180.982 287.159 180.945 287.581 180.776C288.383 182.125 289.384 183.346 290.548 184.398C289.7 187.704 289.956 191.198 291.276 194.345L302.304 191.482L292.469 196.656C294.208 199.421 296.767 201.572 299.788 202.81C302.809 204.048 306.142 204.31 309.319 203.56C312.497 202.81 315.361 201.085 317.51 198.627C319.66 196.168 320.987 193.099 321.308 189.849C321.687 189.816 322.051 189.687 322.366 189.474C322.681 189.26 322.936 188.97 323.107 188.63Z" fill="#B98809"/>
<path opacity="0.1" d="M323.107 188.63C323.28 188.289 323.362 187.909 323.346 187.527C323.329 187.145 323.216 186.773 323.015 186.448C322.814 186.122 322.533 185.854 322.199 185.668C321.865 185.482 321.489 185.385 321.107 185.386C320.472 182.021 318.752 178.957 316.21 176.665C316.277 176.401 316.336 176.141 316.386 175.877C316.094 176.089 315.823 176.329 315.578 176.593C314.093 178.222 313.331 180.412 311.862 182.057C310.129 184 307.535 185.013 304.944 185.285C302.354 185.557 299.746 185.159 297.189 184.661C295.072 184.243 292.925 183.757 290.778 183.962C290.569 183.962 290.359 184.008 290.167 184.042C290.292 184.163 290.418 184.284 290.548 184.402C289.7 187.708 289.956 191.202 291.276 194.349L302.303 191.482L292.469 196.656C294.208 199.421 296.767 201.572 299.788 202.81C302.809 204.048 306.142 204.31 309.319 203.56C312.497 202.81 315.361 201.085 317.51 198.627C319.66 196.168 320.987 193.099 321.308 189.849C321.686 189.816 322.051 189.687 322.366 189.474C322.681 189.26 322.936 188.97 323.107 188.63Z" fill="#161616"/>
</g>
<g opacity="0.4">
<path d="M37.4514 214.044C37.9871 212.415 40.1591 211.666 42.3019 212.369C42.6101 212.47 42.9084 212.599 43.1933 212.754C43.3314 212.717 43.4737 212.683 43.6118 212.658C43.4942 212.19 43.449 211.708 43.4778 211.226C42.7423 210.729 42.146 210.051 41.7454 209.258C41.3447 208.466 41.1531 207.584 41.1887 206.696C40.4467 206.208 39.8485 205.53 39.4561 204.733C39.0471 203.943 38.855 203.059 38.8995 202.17C38.158 201.679 37.5601 201 37.1669 200.202C36.1374 198.159 36.5559 195.861 38.1252 195.065C39.6946 194.27 41.7955 195.296 42.8292 197.339C43.2374 198.13 43.4281 199.016 43.3816 199.905C44.1191 200.4 44.717 201.076 45.1179 201.869C45.5188 202.661 45.7092 203.544 45.6708 204.431C46.4081 204.927 47.0057 205.604 47.4065 206.397C47.8074 207.19 47.9979 208.073 47.96 208.961C48.6975 209.456 49.2954 210.132 49.6963 210.925C50.0972 211.717 50.2876 212.6 50.2492 213.487C50.9922 213.977 51.5916 214.657 51.986 215.455C52.1741 215.841 52.3147 216.249 52.4045 216.669C52.6623 216.289 52.9771 215.952 53.3377 215.668C53.3807 215.346 53.4536 215.027 53.5553 214.718C54.2626 212.574 56.15 211.268 57.778 211.787C59.406 212.306 60.1509 214.496 59.452 216.64C59.1631 217.56 58.6083 218.375 57.8575 218.98C57.814 219.301 57.7412 219.618 57.6399 219.926C57.2964 221.063 56.5312 222.024 55.5014 222.614C55.5821 222.888 55.6409 223.168 55.6771 223.452C56.1092 223.866 56.4673 224.352 56.7359 224.888C57.0097 225.422 57.1882 226 57.2632 226.596C57.6969 227.01 58.0565 227.496 58.3262 228.032C58.5995 228.566 58.7779 229.144 58.8535 229.74C59.2882 230.155 59.6479 230.642 59.9165 231.18C60.9502 233.223 60.5234 235.526 58.9623 236.313C57.4013 237.1 55.2921 236.087 54.2584 234.04C53.9859 233.505 53.8075 232.927 53.7311 232.332C52.8592 231.495 52.2982 230.386 52.1408 229.187C51.2689 228.351 50.7079 227.242 50.5505 226.043C50.1171 225.628 49.7576 225.143 49.4875 224.607C49.2169 224.071 49.0386 223.494 48.9602 222.899C48.5281 222.484 48.17 221.998 47.9014 221.463C47.6276 220.928 47.4491 220.35 47.3741 219.755C47.1046 219.503 46.8646 219.223 46.6584 218.917C45.7974 219.093 44.9051 219.039 44.0721 218.758C43.7628 218.655 43.4631 218.525 43.1765 218.369C42.2458 218.616 41.2625 218.581 40.3517 218.268C38.2299 217.561 36.92 215.673 37.4514 214.044Z" fill="#3F3D56"/>
<g opacity="0.1">
<path d="M41.2307 207.626C41.4526 207.844 41.6966 208.04 41.9589 208.208C41.9235 208.809 42.003 209.411 42.1933 209.983C42.0251 209.754 41.8767 209.512 41.7497 209.259C41.4879 208.747 41.3126 208.195 41.2307 207.626Z" fill="#161616"/>
<path d="M38.9414 203.104C39.1644 203.32 39.4084 203.514 39.6696 203.682C39.6344 204.284 39.714 204.888 39.904 205.461C39.397 204.765 39.0667 203.956 38.9414 203.104Z" fill="#161616"/>
<path d="M44.1436 201.417C44.1635 201.107 44.1523 200.795 44.1101 200.487C44.5192 200.891 44.8599 201.359 45.1187 201.873C45.245 202.127 45.3514 202.39 45.4368 202.66C45.088 202.168 44.6492 201.746 44.1436 201.417Z" fill="#161616"/>
<path d="M58.6653 228.823C58.4824 228.567 58.2749 228.328 58.046 228.112C58.0078 227.828 57.9462 227.548 57.8618 227.274C58.0434 227.52 58.2044 227.78 58.3431 228.053C58.4701 228.301 58.5778 228.559 58.6653 228.823Z" fill="#161616"/>
<path d="M57.0625 225.679C56.8795 225.422 56.6721 225.184 56.4431 224.967C56.4089 224.684 56.3501 224.403 56.2673 224.13C56.6121 224.597 56.8779 225.117 57.0541 225.671L57.0625 225.679Z" fill="#161616"/>
<path d="M43.5241 212.164C43.7438 212.381 43.9866 212.574 44.2481 212.738C44.2168 213.219 44.262 213.703 44.382 214.17C44.241 214.195 44.1013 214.227 43.9635 214.266C43.6769 214.112 43.3772 213.983 43.0679 213.881C40.9252 213.177 38.7532 213.927 38.2217 215.556C38.0885 215.961 38.064 216.394 38.1505 216.812C37.8062 216.449 37.5614 216.004 37.4396 215.519C37.3179 215.034 37.3235 214.526 37.4558 214.044C37.9915 212.415 40.1635 211.666 42.3063 212.369C42.6145 212.471 42.9128 212.599 43.1977 212.755C43.3358 212.717 43.4781 212.683 43.6162 212.658C43.5759 212.496 43.5452 212.331 43.5241 212.164Z" fill="#161616"/>
<path d="M59.4521 230.402C59.6347 230.648 59.7957 230.91 59.9334 231.185C60.0612 231.438 60.1689 231.701 60.2557 231.972C60.0727 231.714 59.8653 231.474 59.6363 231.256C59.599 230.966 59.5374 230.681 59.4521 230.402Z" fill="#161616"/>
<path d="M46.4327 205.951C46.4526 205.641 46.4414 205.329 46.3992 205.021C46.8093 205.425 47.15 205.893 47.4078 206.407C47.5341 206.66 47.6404 206.921 47.7258 207.19C47.377 206.699 46.9382 206.279 46.4327 205.951Z" fill="#161616"/>
<path d="M49.7431 224.415C49.7823 224.727 49.8509 225.036 49.9482 225.336C49.5994 224.857 49.3335 224.324 49.1614 223.757C49.3353 223.993 49.5299 224.213 49.7431 224.415Z" fill="#161616"/>
<path d="M52.9193 230.703C52.9615 231.016 53.0316 231.324 53.1286 231.624C52.9604 231.396 52.812 231.153 52.685 230.9C52.5473 230.631 52.4325 230.351 52.3418 230.062C52.5171 230.291 52.7102 230.505 52.9193 230.703Z" fill="#161616"/>
<path d="M51.3332 227.559C51.3724 227.872 51.441 228.18 51.5382 228.48C51.3716 228.25 51.2232 228.008 51.0946 227.756C50.9565 227.487 50.8417 227.207 50.7515 226.918C50.9261 227.148 51.1208 227.363 51.3332 227.559Z" fill="#161616"/>
<path d="M48.1526 221.266C48.1913 221.581 48.26 221.89 48.3577 222.192C48.199 221.962 48.059 221.72 47.9392 221.467C47.7988 221.199 47.6826 220.919 47.5918 220.63C47.759 220.859 47.9467 221.072 48.1526 221.266Z" fill="#161616"/>
<path d="M58.5608 213.315C56.9328 212.78 55.0454 214.086 54.3423 216.246C54.2405 216.556 54.1677 216.874 54.1246 217.197C53.7627 217.478 53.4465 217.814 53.1872 218.193C53.0901 217.772 52.9425 217.364 52.7478 216.979C52.6766 216.836 52.5971 216.698 52.5134 216.56C52.751 216.23 53.0326 215.934 53.3504 215.681C53.3934 215.358 53.4663 215.04 53.568 214.731C54.2753 212.587 56.1627 211.281 57.7907 211.8C58.2575 211.979 58.6701 212.276 58.9884 212.662C59.3066 213.048 59.5197 213.509 59.607 214.002C59.3226 213.688 58.9624 213.451 58.5608 213.315Z" fill="#161616"/>
<path d="M51.011 215.003C51.0309 214.693 51.0197 214.381 50.9775 214.073C51.3876 214.477 51.7284 214.945 51.9861 215.459C52.1125 215.713 52.2188 215.976 52.3042 216.246C51.9565 215.753 51.5175 215.331 51.011 215.003Z" fill="#161616"/>
<path d="M48.722 210.473C48.7418 210.162 48.7306 209.851 48.6885 209.543C49.0967 209.948 49.4372 210.416 49.6971 210.929C49.8234 211.183 49.9297 211.446 50.0151 211.716C49.6664 211.224 49.2276 210.802 48.722 210.473Z" fill="#161616"/>
<path d="M54.5097 233.847C54.5498 234.162 54.6199 234.472 54.7189 234.773C54.5516 234.542 54.4033 234.299 54.2753 234.044C54.1377 233.775 54.0229 233.495 53.9321 233.207C54.1074 233.435 54.3005 233.649 54.5097 233.847Z" fill="#161616"/>
</g>
<path d="M34.3255 193.114C33.5835 192.626 32.9854 191.948 32.5929 191.151C31.5592 189.103 31.9861 186.805 33.5471 186.014C35.1081 185.222 37.2173 186.24 38.251 188.287C38.6599 189.077 38.8506 189.961 38.8034 190.849C39.5407 191.345 40.1384 192.022 40.5392 192.815C40.94 193.609 41.1306 194.491 41.0926 195.379C41.8351 195.869 42.4344 196.546 42.8294 197.343C42.955 197.594 43.0613 197.854 43.1475 198.122C42.5931 197.33 41.795 196.742 40.875 196.447C40.7725 196.774 40.6059 197.077 40.3849 197.339C40.1639 197.601 39.893 197.816 39.5879 197.972C39.2828 198.128 38.9497 198.222 38.608 198.247C38.2664 198.273 37.9231 198.23 37.5982 198.122C37.2879 199.038 37.2879 200.031 37.5982 200.948C37.4409 200.72 37.301 200.481 37.1797 200.232C36.7707 199.442 36.5786 198.558 36.6231 197.669C35.8866 197.173 35.2896 196.496 34.8889 195.703C34.4882 194.91 34.2971 194.027 34.3339 193.139L34.3255 193.114Z" fill="#3F3D56"/>
<path d="M9.16514 164.083C8.53032 163.786 7.91649 163.446 7.32793 163.066L14.1411 158.084L6.13102 162.208C4.51147 160.919 3.17174 159.314 2.19382 157.49C1.21589 155.665 0.620334 153.661 0.443602 151.598L14.0616 151.741L0.414307 149.455C0.531815 147.372 1.0768 145.336 2.0153 143.473C2.95381 141.61 4.26573 139.96 5.86932 138.627C7.47292 137.293 9.33383 136.304 11.3361 135.722C13.3384 135.139 15.4392 134.975 17.5075 135.24C19.5759 135.505 21.5675 136.194 23.3583 137.263C25.1491 138.331 26.7007 139.758 27.9165 141.452C29.1323 143.147 29.9861 145.075 30.4249 147.114C30.8637 149.153 30.8779 151.261 30.4668 153.307C31.4553 153.764 32.3925 154.326 33.2624 154.981L26.1479 164.879L34.6895 156.221C36.4919 157.992 37.8245 160.185 38.5669 162.601C39.3093 165.017 39.438 167.58 38.9414 170.058C41.5253 171.262 43.7183 173.169 45.2697 175.561C46.8211 177.954 47.6683 180.734 47.7143 183.585C47.7603 186.437 47.0033 189.243 45.53 191.684C44.0566 194.126 41.9263 196.103 39.3826 197.389C36.8389 198.676 33.9846 199.221 31.146 198.961C28.3075 198.702 25.5992 197.648 23.331 195.921C21.0628 194.194 19.3262 191.863 18.3197 189.196C17.3133 186.528 17.0777 183.63 17.6398 180.835C14.5558 179.397 12.044 176.964 10.5072 173.927C8.97044 170.89 8.49781 167.425 9.16514 164.087V164.083Z" fill="#B98809"/>
<path opacity="0.1" d="M37.6023 160.223C39.1457 163.262 39.6176 166.734 38.9414 170.074C41.5253 171.279 43.7183 173.186 45.2697 175.578C46.8211 177.97 47.6683 180.751 47.7143 183.602C47.7603 186.453 47.0034 189.26 45.53 191.701C44.0566 194.142 41.9263 196.119 39.3826 197.406C36.839 198.693 33.9846 199.238 31.1461 198.978C28.3075 198.718 25.5993 197.665 23.3311 195.938C21.0628 194.211 19.3262 191.88 18.3198 189.212C17.3133 186.544 17.0777 183.647 17.6398 180.851C14.6559 179.465 36.8364 158.703 37.6023 160.223Z" fill="#161616"/>
<path d="M20.494 138.234C21.7398 138.234 22.7497 137.224 22.7497 135.978C22.7497 134.731 21.7398 133.721 20.494 133.721C19.2482 133.721 18.2383 134.731 18.2383 135.978C18.2383 137.224 19.2482 138.234 20.494 138.234Z" fill="#B98809"/>
<path d="M7.32798 139.683C8.57378 139.683 9.5837 138.673 9.5837 137.426C9.5837 136.18 8.57378 135.17 7.32798 135.17C6.08218 135.17 5.07227 136.18 5.07227 137.426C5.07227 138.673 6.08218 139.683 7.32798 139.683Z" fill="#B98809"/>
<path d="M2.25572 159.943C3.50151 159.943 4.51143 158.932 4.51143 157.686C4.51143 156.44 3.50151 155.429 2.25572 155.429C1.00992 155.429 0 156.44 0 157.686C0 158.932 1.00992 159.943 2.25572 159.943Z" fill="#B98809"/>
<path d="M9.10654 170.062C10.3523 170.062 11.3623 169.052 11.3623 167.805C11.3623 166.559 10.3523 165.549 9.10654 165.549C7.86075 165.549 6.85083 166.559 6.85083 167.805C6.85083 169.052 7.86075 170.062 9.10654 170.062Z" fill="#B98809"/>
<path d="M18.4642 191.075C19.71 191.075 20.7199 190.065 20.7199 188.819C20.7199 187.572 19.71 186.562 18.4642 186.562C17.2184 186.562 16.2085 187.572 16.2085 188.819C16.2085 190.065 17.2184 191.075 18.4642 191.075Z" fill="#B98809"/>
<path opacity="0.1" d="M18.4642 191.075C19.71 191.075 20.7199 190.065 20.7199 188.819C20.7199 187.572 19.71 186.562 18.4642 186.562C17.2184 186.562 16.2085 187.572 16.2085 188.819C16.2085 190.065 17.2184 191.075 18.4642 191.075Z" fill="#161616"/>
<path d="M39.2762 167.274C40.522 167.274 41.5319 166.263 41.5319 165.017C41.5319 163.771 40.522 162.76 39.2762 162.76C38.0304 162.76 37.0205 163.771 37.0205 165.017C37.0205 166.263 38.0304 167.274 39.2762 167.274Z" fill="#B98809"/>
<path opacity="0.1" d="M39.2762 167.274C40.522 167.274 41.5319 166.263 41.5319 165.017C41.5319 163.771 40.522 162.76 39.2762 162.76C38.0304 162.76 37.0205 163.771 37.0205 165.017C37.0205 166.263 38.0304 167.274 39.2762 167.274Z" fill="#161616"/>
<path opacity="0.1" d="M41.6826 202.103C43.1808 201.346 43.6328 199.202 42.7581 197.222C42.8042 197.305 42.8502 197.385 42.892 197.469C43.9257 199.516 43.4989 201.815 41.9337 202.606C40.3685 203.397 38.2676 202.38 37.2339 200.332C37.1921 200.249 37.1502 200.165 37.1125 200.077C38.1881 201.957 40.1843 202.861 41.6826 202.103Z" fill="#161616"/>
<path opacity="0.1" d="M43.9049 206.508C45.4032 205.75 45.8593 203.602 44.9847 201.626C45.0307 201.706 45.0768 201.789 45.1186 201.873C46.1523 203.92 45.7254 206.219 44.1602 207.01C42.595 207.801 40.4942 206.784 39.4605 204.737C39.4144 204.653 39.3768 204.565 39.3391 204.481C40.4147 206.37 42.4151 207.266 43.9049 206.508Z" fill="#161616"/>
<path opacity="0.1" d="M46.1313 210.908C47.6295 210.15 48.0857 208.007 47.2068 206.026C47.257 206.11 47.2989 206.19 47.3449 206.278C48.3786 208.321 47.9476 210.623 46.3866 211.411C44.8255 212.198 42.7205 211.184 41.6868 209.137C41.6408 209.053 41.6031 208.97 41.5654 208.882C42.6368 210.762 44.633 211.666 46.1313 210.908Z" fill="#161616"/>
<path opacity="0.1" d="M48.3576 215.313C49.8558 214.555 50.312 212.411 49.4331 210.431C49.4792 210.51 49.5252 210.594 49.5671 210.678C50.6049 212.725 50.1739 215.024 48.6129 215.815C47.0519 216.606 44.9426 215.589 43.9089 213.542C43.8671 213.458 43.8294 213.37 43.7917 213.286C44.8631 215.162 46.8594 216.07 48.3576 215.313Z" fill="#161616"/>
<path opacity="0.1" d="M50.5842 219.713C52.0824 218.955 52.5344 216.811 51.6597 214.835C51.7058 214.915 51.7518 214.999 51.7936 215.082C52.8273 217.13 52.4005 219.428 50.8395 220.219C49.2785 221.011 47.1692 219.989 46.1355 217.946C46.0937 217.858 46.056 217.774 46.0142 217.691C47.0897 219.566 49.0859 220.471 50.5842 219.713Z" fill="#161616"/>
<path opacity="0.1" d="M52.8105 224.117C54.3087 223.36 54.7607 221.216 53.886 219.236C53.9321 219.319 53.9781 219.399 54.02 219.483C55.0537 221.53 54.6268 223.828 53.0658 224.62C51.5048 225.411 49.3955 224.394 48.3618 222.346C48.32 222.263 48.2781 222.179 48.2405 222.091C49.316 223.954 51.3123 224.875 52.8105 224.117Z" fill="#161616"/>
<path opacity="0.1" d="M55.0371 228.522C56.5311 227.764 56.9873 225.616 56.1126 223.64C56.1586 223.72 56.2047 223.803 56.2465 223.887C57.2802 225.934 56.8533 228.233 55.2882 229.024C53.723 229.816 51.6221 228.794 50.5884 226.751C50.5466 226.663 50.5047 226.579 50.467 226.496C51.5426 228.371 53.5388 229.28 55.0371 228.522Z" fill="#161616"/>
<path opacity="0.1" d="M57.2592 232.922C58.7574 232.164 59.2136 230.021 58.3347 228.04C58.385 228.124 58.4268 228.204 58.4728 228.291C59.5065 230.335 59.0755 232.637 57.5145 233.424C55.9535 234.212 53.8484 233.198 52.8147 231.151C52.7687 231.067 52.731 230.984 52.6934 230.896C53.7689 232.776 55.761 233.68 57.2592 232.922Z" fill="#161616"/>
<path opacity="0.1" d="M58.7365 235.815C60.2348 235.057 60.6867 232.914 59.8121 230.933C59.8581 231.017 59.9041 231.097 59.946 231.185C60.9797 233.228 60.5528 235.53 58.9918 236.318C57.4308 237.105 55.3216 236.091 54.2879 234.044C54.246 233.96 54.2042 233.877 54.1665 233.789C55.2295 235.677 57.2257 236.573 58.7365 235.815Z" fill="#161616"/>
<path d="M18.502 216.221C18.2695 215.555 18.1287 214.861 18.0835 214.157C17.9287 214.156 17.7757 214.124 17.6341 214.062C17.4924 213.999 17.3652 213.908 17.2602 213.795C17.1552 213.681 17.0748 213.547 17.024 213.4C16.9733 213.254 16.9531 213.099 16.965 212.945C16.9768 212.79 17.0203 212.64 17.0928 212.503C17.1653 212.366 17.2651 212.246 17.3862 212.15C17.5073 212.053 17.6469 211.983 17.7964 211.943C17.9459 211.903 18.102 211.894 18.2551 211.917C18.5062 210.776 19.0078 209.705 19.7237 208.782C20.4395 207.858 21.3517 207.106 22.394 206.579C22.2592 206.312 22.2359 206.002 22.3293 205.718C22.4227 205.434 22.6251 205.198 22.892 205.063C23.159 204.928 23.4685 204.905 23.7527 204.999C24.0368 205.092 24.2721 205.295 24.407 205.562C24.456 205.656 24.4899 205.758 24.5074 205.863C25.7458 205.636 27.0205 205.707 28.2258 206.071C29.4311 206.435 30.5322 207.081 31.4378 207.956C32.1295 207.843 32.8333 207.823 33.5303 207.898L34.4426 212.051L34.4636 208.044C35.5012 208.284 36.4795 208.732 37.3396 209.36C38.1996 209.989 38.9236 210.785 39.4678 211.701C40.012 212.617 40.3653 213.633 40.5062 214.689C40.6471 215.745 40.5728 216.819 40.2878 217.846C40.0027 218.872 39.5129 219.831 38.8477 220.663C38.1825 221.495 37.3558 222.183 36.4174 222.687C35.479 223.191 34.4484 223.5 33.3876 223.594C32.3268 223.689 31.2578 223.568 30.2451 223.238C30.1349 223.433 29.9706 223.591 29.7722 223.694C29.5653 223.799 29.3314 223.837 29.102 223.804C28.8727 223.771 28.6591 223.668 28.49 223.51C28.321 223.351 28.2048 223.145 28.1572 222.918C28.1096 222.691 28.1328 222.455 28.2237 222.242C27.8649 221.991 27.5275 221.711 27.2151 221.404C25.569 221.671 23.8807 221.41 22.3921 220.658C20.9036 219.905 19.6913 218.701 18.9288 217.217L23.1766 216.502L18.502 216.221Z" fill="#B98809"/>
<g opacity="0.1">
<path d="M25.0641 218.239C26.6335 216.146 27.596 213.717 28.7008 211.364C29.1433 210.396 29.6407 209.454 30.1907 208.543L31.0277 207.575C31.17 207.697 31.3081 207.818 31.4462 207.944C32.1379 207.831 32.8417 207.811 33.5387 207.885L34.451 212.039L34.4636 208.044C35.5012 208.284 36.4796 208.732 37.3396 209.36C38.1997 209.989 38.9236 210.785 39.4678 211.701C40.0121 212.617 40.3653 213.633 40.5062 214.689C40.6471 215.745 40.5728 216.819 40.2878 217.846C40.0028 218.872 39.5129 219.831 38.8477 220.663C38.1826 221.495 37.3559 222.184 36.4175 222.687C35.4791 223.191 34.4484 223.5 33.3876 223.594C32.3268 223.689 31.2578 223.568 30.2451 223.238C30.135 223.433 29.9707 223.591 29.7722 223.694C29.5654 223.799 29.3314 223.837 29.1021 223.804C28.8727 223.771 28.6591 223.668 28.4901 223.51C28.3211 223.351 28.2049 223.145 28.1572 222.918C28.1096 222.691 28.1328 222.455 28.2238 222.242C27.8649 221.991 27.5276 221.711 27.2152 221.404C25.6031 221.663 23.9505 221.419 22.4819 220.705C23.4697 220.027 24.3416 219.195 25.0641 218.239Z" fill="#161616"/>
</g>
<path d="M52.8398 209.338C52.7729 209.206 52.7327 209.062 52.7215 208.915C52.7103 208.768 52.7284 208.619 52.7746 208.479C52.8209 208.338 52.8945 208.208 52.9912 208.097C53.0878 207.985 53.2056 207.893 53.3378 207.827C53.4958 207.746 53.6709 207.704 53.8484 207.705C54.1676 206.01 55.0335 204.466 56.3134 203.309C56.1064 202.505 56.0287 201.672 56.0832 200.843L60.2222 200.148L56.2004 199.893C56.2732 199.515 56.3739 199.142 56.5017 198.779C56.3436 198.674 56.2154 198.53 56.1292 198.36C56.0286 198.159 55.9905 197.932 56.0199 197.708C56.0493 197.485 56.1448 197.275 56.2942 197.106C56.4435 196.937 56.6399 196.817 56.8581 196.761C57.0763 196.705 57.3063 196.715 57.5186 196.79C58.2578 195.738 59.2455 194.886 60.3937 194.308C61.7462 193.621 63.268 193.339 64.7765 193.496C66.285 193.653 67.7164 194.242 68.8989 195.192C70.0813 196.142 70.9649 197.413 71.4434 198.853C71.922 200.293 71.9753 201.84 71.597 203.309C71.7937 203.394 71.9623 203.532 72.083 203.709C72.2038 203.886 72.2716 204.093 72.2786 204.307C72.2857 204.521 72.2316 204.733 72.1227 204.917C72.0138 205.102 71.8547 205.251 71.664 205.348C71.5209 205.421 71.3641 205.462 71.2039 205.469C71.0437 205.476 70.8838 205.449 70.7349 205.39C70.331 206.067 69.8273 206.68 69.2408 207.207C69.6698 208.877 69.5419 210.641 68.8767 212.231L63.34 210.774L68.2908 213.383C67.5475 214.569 66.5022 215.537 65.2619 216.186C64.0216 216.835 62.6311 217.143 61.2328 217.077C59.8346 217.012 58.4789 216.575 57.3048 215.813C56.1307 215.05 55.1805 213.989 54.5515 212.738C54.1136 211.867 53.8384 210.923 53.7396 209.954C53.5496 209.936 53.3671 209.871 53.2096 209.763C53.0521 209.655 52.9248 209.509 52.8398 209.338Z" fill="#B98809"/>
<path opacity="0.1" d="M52.8398 209.338C52.7729 209.206 52.7327 209.062 52.7215 208.915C52.7103 208.767 52.7284 208.619 52.7746 208.479C52.8209 208.338 52.8945 208.208 52.9912 208.096C53.0878 207.984 53.2056 207.893 53.3378 207.827C53.4958 207.746 53.6709 207.704 53.8484 207.705C54.1676 206.01 55.0335 204.465 56.3134 203.309C56.2799 203.179 56.2506 203.045 56.2255 202.916C56.3756 203.023 56.5157 203.143 56.644 203.276C57.3931 204.113 57.7781 205.197 58.5147 206.026C59.4376 206.979 60.6784 207.558 62.0008 207.655C63.3107 207.745 64.6267 207.639 65.9054 207.341C66.9599 207.069 68.0478 206.949 69.1362 206.985L69.4459 207.027L69.2534 207.207C69.6823 208.877 69.5545 210.641 68.8893 212.231L63.34 210.774L68.2908 213.382C67.5475 214.569 66.5022 215.537 65.2619 216.186C64.0216 216.835 62.6311 217.143 61.2328 217.077C59.8345 217.011 58.4789 216.575 57.3048 215.812C56.1307 215.05 55.1805 213.989 54.5515 212.738C54.1136 211.867 53.8384 210.923 53.7396 209.953C53.5496 209.936 53.3671 209.871 53.2096 209.763C53.0521 209.655 52.9248 209.509 52.8398 209.338Z" fill="#161616"/>
</g>
<path opacity="0.1" d="M144.947 21.7335C143.293 21.4193 141.582 21.6059 140.034 22.2694C139.106 22.6834 138.1 22.8973 137.084 22.8973C136.067 22.8973 135.062 22.6834 134.133 22.2694C133.036 21.7881 131.847 21.5512 130.649 21.5751C129.451 21.5989 128.272 21.883 127.195 22.4076C126.579 22.7327 125.894 22.9037 125.198 22.9058C122.386 22.9058 120.047 20.0714 119.561 16.3326C120.122 15.9214 120.599 15.407 120.967 14.817C122.616 12.1584 125.152 10.4502 128.036 10.4502C130.919 10.4502 133.43 12.1249 135.079 14.7667C135.572 15.5601 136.26 16.2133 137.078 16.6635C137.896 17.1138 138.816 17.3458 139.75 17.3374H139.825C142.043 17.3249 143.981 19.121 144.947 21.7335Z" fill="#B98809"/>
<path opacity="0.4" d="M153.493 10.0105L148.948 12.8952L151.706 7.87111C150.924 7.24764 149.957 6.90289 148.957 6.89141H148.885C148.57 6.89527 148.255 6.87145 147.944 6.82024L146.4 7.79994L147.061 6.59834C145.973 6.21947 145.03 5.50943 144.366 4.56776L141.599 6.29689L143.34 3.12751C141.729 1.18904 139.553 0 137.163 0C134.297 0 131.723 1.7082 130.091 4.36679C129.602 5.1609 128.913 5.81158 128.092 6.25278C127.271 6.69398 126.347 6.90998 125.416 6.87885H125.278C122.114 6.87885 119.544 10.4669 119.544 14.9007C119.544 19.3345 122.114 22.9183 125.278 22.9183C125.974 22.9162 126.659 22.7453 127.274 22.4201C128.352 21.8951 129.53 21.6111 130.729 21.588C131.927 21.5648 133.116 21.8031 134.213 22.2861C135.142 22.6988 136.147 22.9121 137.163 22.9121C138.18 22.9121 139.185 22.6988 140.114 22.2861C141.202 21.8133 142.38 21.5806 143.566 21.6037C144.753 21.6268 145.92 21.9053 146.99 22.4201C147.6 22.7366 148.277 22.903 148.965 22.9058C152.133 22.9058 154.698 19.3177 154.698 14.8881C154.71 13.1872 154.295 11.5104 153.493 10.0105Z" fill="#B98809"/>
<path opacity="0.1" d="M50.3666 79.7369C48.0034 79.2896 45.5606 79.5548 43.3483 80.4989C42.0207 81.0877 40.584 81.3901 39.1318 81.3865C37.6796 81.3829 36.2444 81.0733 34.9197 80.478C33.3523 79.7905 31.6542 79.452 29.9431 79.4859C28.2319 79.5199 26.5486 79.9256 25.0097 80.6748C24.1295 81.1386 23.1503 81.3828 22.1555 81.3865C18.1379 81.3865 14.7941 77.3379 14.0994 71.9956C14.9022 71.4104 15.5843 70.6754 16.1082 69.8311C18.4643 66.0337 22.1136 63.5928 26.2108 63.5928C30.3079 63.5928 33.9112 66.0044 36.2548 69.7599C36.9591 70.8981 37.946 71.8345 39.1194 72.478C40.2928 73.1214 41.6128 73.45 42.9508 73.4317H43.0554C46.2276 73.4275 48.9981 75.994 50.3666 79.7369Z" fill="#B98809"/>
<path opacity="0.4" d="M62.5866 62.9689L56.0915 67.0887L60.0338 59.9168C58.9165 59.0246 57.5335 58.531 56.1041 58.5142H55.9995C55.5482 58.5208 55.0972 58.4872 54.6519 58.4137L52.4589 59.8331L53.4047 58.1165C51.8441 57.5709 50.4963 56.545 49.5545 55.1857L45.6123 57.6978L48.094 53.1342C45.788 50.3668 42.6828 48.6711 39.2678 48.6711C35.1707 48.6711 31.5214 51.1078 29.1652 54.9052C28.4674 56.0447 27.48 56.9787 26.3037 57.612C25.1274 58.2452 23.8043 58.5551 22.4692 58.51H22.2474C17.7234 58.51 14.0574 63.6388 14.0574 69.9692C14.0574 76.2996 17.7234 81.4284 22.2474 81.4284C23.2429 81.4257 24.2226 81.18 25.1016 80.7124C26.6408 79.9639 28.3243 79.559 30.0355 79.5257C31.7466 79.4925 33.4445 79.8317 35.0117 80.5199C36.3364 81.1152 37.7715 81.4248 39.2237 81.4284C40.676 81.432 42.1126 81.1296 43.4403 80.5408C44.9958 79.8653 46.6785 79.5326 48.374 79.5651C50.0694 79.5976 51.7381 79.9946 53.2666 80.7292C54.1373 81.185 55.1047 81.4248 56.0873 81.4284C60.6113 81.4284 64.2774 76.2954 64.2774 69.9692C64.3089 67.5309 63.7275 65.1238 62.5866 62.9689Z" fill="#B98809"/>
<path opacity="0.1" d="M313.025 38.0618C314.68 37.7479 316.391 37.9345 317.939 38.5977C318.866 39.0119 319.871 39.2259 320.887 39.2259C321.903 39.2259 322.907 39.0119 323.835 38.5977C324.933 38.1164 326.122 37.8795 327.32 37.9034C328.518 37.9272 329.696 38.2113 330.774 38.7359C331.39 39.0606 332.074 39.2315 332.77 39.2341C335.583 39.2341 337.926 36.3997 338.412 32.6609C337.85 32.2508 337.372 31.7362 337.005 31.1453C335.365 28.4783 332.8 26.7576 329.924 26.7576C327.049 26.7576 324.534 28.4323 322.885 31.0741C322.393 31.871 321.704 32.5275 320.885 32.9801C320.065 33.4326 319.143 33.6659 318.206 33.6574H318.135C315.909 33.6532 313.967 35.4493 313.025 38.0618Z" fill="#B98809"/>
<path opacity="0.4" d="M304.454 26.339L308.999 29.2153L306.237 24.1912C307.02 23.5683 307.987 23.2236 308.987 23.2115H309.062C309.378 23.2151 309.693 23.1913 310.004 23.1403L311.544 24.12L310.883 22.9184C311.979 22.5459 312.93 21.8385 313.603 20.8962L316.361 22.6463L314.616 19.4769C316.231 17.5384 318.382 16.3494 320.797 16.3494C323.664 16.3494 326.237 18.0576 327.87 20.7162C328.358 21.5106 329.047 22.1615 329.868 22.6027C330.689 23.044 331.613 23.2598 332.544 23.2282H332.695C335.863 23.2282 338.428 26.8163 338.428 31.2501C338.428 35.6838 335.863 39.2677 332.695 39.2677C331.999 39.2646 331.314 39.0937 330.699 38.7695C329.621 38.2444 328.442 37.9605 327.244 37.9374C326.046 37.9142 324.857 38.1525 323.76 38.6355C322.832 39.0481 321.827 39.2613 320.812 39.2613C319.796 39.2613 318.791 39.0481 317.863 38.6355C316.774 38.1626 315.596 37.9298 314.409 37.953C313.221 37.9761 312.053 38.2546 310.983 38.7695C310.373 39.0864 309.695 39.2529 309.008 39.2551C305.844 39.2551 303.274 35.6671 303.274 31.2375C303.252 29.5316 303.658 27.8474 304.454 26.339Z" fill="#B98809"/>
<path opacity="0.1" d="M257.641 325.261C284.221 325.261 305.769 321.512 305.769 316.888C305.769 312.263 284.221 308.514 257.641 308.514C231.061 308.514 209.514 312.263 209.514 316.888C209.514 321.512 231.061 325.261 257.641 325.261Z" fill="#B98809"/>
<path d="M232.452 277.113L157.879 276.155L158.101 274.241L161.704 242.677H227.195L232.012 274.241L232.381 276.636L232.452 277.113Z" fill="#D0D2D5"/>
<path opacity="0.1" d="M232.381 276.636H195.168L157.879 276.155L158.101 274.241H232.012L232.381 276.636Z" fill="#161616"/>
<path d="M244.404 274.723H145.45V277.114H244.404V274.723Z" fill="#D0D2D5"/>
<path d="M338.813 53.1007C338.819 51.4509 338.17 49.8665 337.008 48.6952C335.847 47.524 334.269 46.8618 332.62 46.854H56.2757C55.4584 46.8578 54.65 47.0227 53.8964 47.3391C53.1428 47.6555 52.459 48.1173 51.8838 48.6982C51.3087 49.279 50.8535 49.9675 50.5443 50.7243C50.2351 51.4811 50.078 52.2915 50.0819 53.109V220.684H338.813V53.1007Z" fill="#3F3D56"/>
<path d="M50.0818 219.01V238.637C50.0818 240.28 50.7343 241.857 51.8959 243.019C53.0575 244.181 54.6329 244.833 56.2756 244.833H332.62C334.262 244.833 335.838 244.181 336.999 243.019C338.161 241.857 338.813 240.28 338.813 238.637V219.01H50.0818Z" fill="#D0D2D5"/>
<path d="M328.296 57.3628H62.0342V208.007H328.296V57.3628Z" fill="white"/>
<path d="M195.883 237.385C196.861 237.386 197.826 237.165 198.706 236.738C199.585 236.31 200.356 235.688 200.96 234.919C201.143 234.685 201.311 234.439 201.462 234.182L197.917 233.584L201.746 233.609C202.114 232.81 202.314 231.944 202.335 231.065C202.355 230.186 202.197 229.312 201.868 228.497L196.733 231.159L201.47 227.676C201.025 226.911 200.428 226.246 199.715 225.721C199.002 225.197 198.189 224.825 197.327 224.628C196.464 224.431 195.57 224.414 194.701 224.578C193.831 224.741 193.004 225.082 192.272 225.578C191.54 226.075 190.917 226.717 190.443 227.464C189.969 228.211 189.654 229.048 189.517 229.923C189.38 230.797 189.424 231.69 189.647 232.547C189.869 233.404 190.266 234.205 190.811 234.902C191.413 235.674 192.182 236.299 193.061 236.729C193.94 237.159 194.905 237.384 195.883 237.385Z" fill="#B98809"/>
<path opacity="0.1" d="M202.336 244.829L232.088 274.723L227.522 244.829H202.336Z" fill="#161616"/>
<path opacity="0.1" d="M328.376 57.3796H61.825V66.1802H328.376V57.3796Z" fill="#444053"/>
<path opacity="0.3" d="M234.439 58.9119H154.615C154.481 58.9119 154.372 59.0206 154.372 59.1547V64.0239C154.372 64.158 154.481 64.2667 154.615 64.2667H234.439C234.574 64.2667 234.682 64.158 234.682 64.0239V59.1547C234.682 59.0206 234.574 58.9119 234.439 58.9119Z" fill="#B98809"/>
<path d="M232.297 62.1441H232.1L232.029 62.0813C232.272 61.7885 232.406 61.4197 232.406 61.0388C232.403 60.7261 232.308 60.4212 232.133 60.1626C231.957 59.9039 231.709 59.703 231.419 59.5852C231.13 59.4675 230.812 59.4382 230.506 59.501C230.2 59.5638 229.919 59.716 229.699 59.9382C229.479 60.1604 229.33 60.4428 229.271 60.7498C229.211 61.0567 229.244 61.3744 229.365 61.6627C229.485 61.9511 229.689 62.1973 229.949 62.3701C230.21 62.543 230.515 62.6348 230.828 62.6339C231.209 62.6326 231.578 62.4978 231.87 62.2529L231.941 62.3157V62.5125L233.167 63.7392L233.531 63.3708L232.297 62.1441ZM230.828 62.1441C230.609 62.1449 230.395 62.0808 230.213 61.9599C230.031 61.8389 229.888 61.6666 229.804 61.4647C229.72 61.2628 229.697 61.0404 229.739 60.8257C229.782 60.611 229.887 60.4137 230.041 60.2587C230.195 60.1037 230.392 59.998 230.606 59.955C230.821 59.912 231.043 59.9337 231.245 60.0172C231.448 60.1008 231.62 60.2424 231.742 60.4243C231.864 60.6061 231.928 60.82 231.928 61.0388C231.93 61.1839 231.902 61.3278 231.847 61.4621C231.792 61.5964 231.711 61.7185 231.609 61.8213C231.506 61.9241 231.385 62.0056 231.251 62.061C231.117 62.1164 230.973 62.1446 230.828 62.1441Z" fill="#3F3D56"/>
<path opacity="0.8" d="M66.6168 63.3918C67.5067 63.3918 68.2281 62.6701 68.2281 61.7799C68.2281 60.8896 67.5067 60.168 66.6168 60.168C65.727 60.168 65.0056 60.8896 65.0056 61.7799C65.0056 62.6701 65.727 63.3918 66.6168 63.3918Z" fill="#FA5959"/>
<path opacity="0.8" d="M71.0487 63.3918C71.9386 63.3918 72.6599 62.6701 72.6599 61.7799C72.6599 60.8896 71.9386 60.168 71.0487 60.168C70.1589 60.168 69.4375 60.8896 69.4375 61.7799C69.4375 62.6701 70.1589 63.3918 71.0487 63.3918Z" fill="#FED253"/>
<path opacity="0.8" d="M75.4848 63.3918C76.3746 63.3918 77.096 62.6701 77.096 61.7799C77.096 60.8896 76.3746 60.168 75.4848 60.168C74.5949 60.168 73.8735 60.8896 73.8735 61.7799C73.8735 62.6701 74.5949 63.3918 75.4848 63.3918Z" fill="#8CCF4D"/>
<path d="M209.271 122.002C205.617 117.146 200.323 114.081 194.431 114.081C188.538 114.081 183.244 117.146 179.591 122.002C180.398 123.984 181.594 125.785 183.106 127.298C184.975 129.168 187.278 130.545 189.808 131.308C192.338 132.071 195.018 132.196 197.609 131.672C200.199 131.147 202.619 129.99 204.654 128.303C206.689 126.616 208.275 124.451 209.271 122.002Z" fill="#B98809"/>
<path d="M177.662 124.845C177.402 124.733 177.155 124.593 176.925 124.426C176.578 124.142 176.301 123.783 176.113 123.376C176.353 122.883 176.453 122.335 176.404 121.79C176.355 121.245 176.158 120.724 175.835 120.283C175.512 119.841 175.074 119.496 174.569 119.286C174.064 119.075 173.511 119.006 172.97 119.086C172.429 119.167 171.92 119.393 171.498 119.742C171.077 120.09 170.758 120.547 170.577 121.064C170.395 121.58 170.358 122.136 170.47 122.672C170.581 123.208 170.836 123.703 171.208 124.104C171.418 124.327 171.658 124.52 171.92 124.678C172.261 124.875 172.538 125.165 172.719 125.515C173.062 126.207 173.533 126.826 174.109 127.34C174.699 127.847 175.337 128.296 176.013 128.68C175.082 131.316 174.554 134.076 174.448 136.869C173.366 136.888 172.292 137.061 171.259 137.384C170.73 137.549 170.231 137.798 169.781 138.121C169.661 138.107 169.539 138.098 169.417 138.096C168.868 138.096 168.329 138.247 167.86 138.531C167.39 138.815 167.007 139.223 166.752 139.709C166.497 140.196 166.38 140.743 166.414 141.291C166.448 141.84 166.631 142.368 166.943 142.82C167.256 143.272 167.686 143.629 168.187 143.854C168.688 144.078 169.241 144.161 169.786 144.094C170.331 144.027 170.848 143.811 171.279 143.471C171.71 143.131 172.041 142.68 172.234 142.166C172.353 141.834 172.56 141.542 172.834 141.32C173.108 141.099 173.437 140.957 173.786 140.91C174.043 140.879 174.302 140.862 174.561 140.859C174.92 144.799 176.142 148.611 178.139 152.026C176.364 153.403 175.272 154.906 174.812 156.572C174.726 156.62 174.646 156.678 174.573 156.744C174.447 156.843 174.329 156.952 174.222 157.071C173.863 157.465 173.616 157.948 173.505 158.47C173.395 158.991 173.425 159.533 173.593 160.039C173.76 160.545 174.06 160.998 174.46 161.35C174.86 161.702 175.346 161.941 175.87 162.044C176.393 162.146 176.934 162.107 177.437 161.931C177.94 161.755 178.387 161.448 178.733 161.042C179.078 160.636 179.31 160.145 179.403 159.62C179.497 159.095 179.449 158.555 179.265 158.055C179.128 157.691 179.101 157.295 179.188 156.917C179.276 156.539 179.472 156.195 179.754 155.928C179.955 155.739 180.173 155.538 180.466 155.316C183.86 159.281 187.898 161.823 192.941 162.124V135.224C186.274 134.86 180.466 130.518 177.662 124.845ZM219.441 138.126C219.319 138.127 219.197 138.136 219.077 138.151C218.623 137.834 218.125 137.586 217.599 137.414C216.567 137.089 215.492 136.916 214.41 136.899C214.294 134.108 213.767 131.35 212.845 128.714C213.521 128.329 214.159 127.881 214.749 127.374C215.343 126.83 215.831 126.182 216.189 125.461C216.357 125.147 216.615 124.892 216.93 124.728C217.44 124.441 217.856 124.011 218.125 123.49C218.395 122.97 218.506 122.382 218.446 121.8C218.386 121.217 218.157 120.664 217.788 120.21C217.418 119.755 216.923 119.419 216.365 119.242C215.807 119.065 215.209 119.055 214.645 119.213C214.081 119.372 213.576 119.691 213.191 120.133C212.807 120.575 212.559 121.12 212.48 121.7C212.401 122.281 212.493 122.872 212.745 123.401C212.56 123.81 212.282 124.17 211.933 124.452C211.698 124.646 211.452 124.826 211.196 124.992C208.392 130.661 202.588 134.881 195.929 135.245V162.17C200.951 161.869 205.015 159.315 208.405 155.362C208.668 155.572 208.89 155.76 209.079 155.936C209.372 156.208 209.579 156.562 209.673 156.951C209.766 157.341 209.743 157.749 209.606 158.126C209.423 158.625 209.376 159.165 209.469 159.689C209.563 160.213 209.794 160.703 210.139 161.108C210.483 161.514 210.93 161.82 211.432 161.997C211.934 162.173 212.474 162.213 212.996 162.112C213.519 162.011 214.005 161.773 214.406 161.423C214.806 161.072 215.106 160.622 215.276 160.117C215.445 159.612 215.477 159.072 215.369 158.551C215.262 158.029 215.017 157.546 214.661 157.15C214.554 157.032 214.436 156.922 214.31 156.824C214.172 156.715 214.071 156.652 214.071 156.652C213.611 154.977 212.523 153.483 210.723 152.105C212.72 148.691 213.942 144.879 214.301 140.939C214.549 140.942 214.796 140.959 215.042 140.989C215.398 141.035 215.736 141.176 216.019 141.397C216.303 141.618 216.522 141.911 216.653 142.245C216.903 142.882 217.363 143.415 217.957 143.755C218.55 144.096 219.242 144.223 219.918 144.117C220.593 144.01 221.213 143.676 221.673 143.17C222.133 142.664 222.407 142.016 222.45 141.333C222.47 140.922 222.408 140.512 222.267 140.127C222.126 139.741 221.908 139.388 221.627 139.089C221.346 138.789 221.008 138.55 220.632 138.384C220.256 138.219 219.851 138.131 219.441 138.126Z" fill="#B98809"/>
<path d="M284.998 312.006C284.755 311.62 284.448 311.279 284.09 310.997C282.261 309.268 281.412 306.731 280.96 304.244C280.508 301.757 280.378 299.22 279.654 296.787C279.26 295.54 278.768 294.326 278.181 293.157C277.763 292.261 277.235 290.507 276.469 289.879C276.319 289.749 276.137 289.661 275.942 289.623C275.58 288.854 275.065 288.167 274.427 287.605C273.23 286.521 271.77 285.659 270.97 284.256C270.751 283.77 270.48 283.308 270.163 282.879C269.623 282.284 268.769 282.041 268.271 281.413C267.622 280.601 267.769 279.437 267.853 278.403C267.936 277.369 267.853 276.13 266.957 275.585C266.421 275.254 265.731 275.288 265.174 274.995C264.337 274.576 264.007 273.521 264.023 272.579C264.04 271.637 264.333 270.72 264.408 269.778C264.643 266.78 262.667 263.799 263.429 260.894C263.718 259.793 264.379 258.838 264.869 257.812C265.039 257.471 265.179 257.115 265.287 256.749C266.593 257.267 267.965 257.598 269.363 257.733C267.057 252.558 267.643 246.546 266.568 240.986L266.706 240.797C267.792 239.364 268.409 237.63 268.472 235.832C268.472 233.764 267.505 231.829 267.07 229.803C266.697 228.082 266.714 226.282 266.233 224.59C265.899 223.539 265.456 222.526 264.91 221.568C264.389 220.599 263.84 219.646 263.266 218.708C262.73 216.933 262.193 215.158 261.655 213.383C260.901 210.891 260.127 208.358 258.662 206.206C258.127 205.419 257.963 203.82 257.139 203.343C256.47 202.996 255.71 202.863 254.963 202.962C253.799 202.309 252.778 201.366 252.632 200.077C252.617 199.795 252.645 199.513 252.715 199.24H252.858C254.699 199.072 255.632 197.448 256.591 196.024C258.139 193.721 257.549 190.607 256.591 187.986C256.353 187.158 255.923 186.399 255.335 185.771C253.992 184.515 251.866 184.791 250.133 184.184C249.552 183.983 249.007 183.677 248.413 183.535C247.262 183.267 246.057 183.644 245.002 184.176C243.948 184.707 242.964 185.394 241.859 185.813C240.755 186.231 239.39 186.562 239.118 187.697C239.042 188.079 239.074 188.475 239.21 188.84C239.465 189.568 239.912 190.213 240.504 190.707C240.033 191.677 239.779 192.738 239.758 193.816C239.737 194.895 239.95 195.965 240.382 196.952C240.815 197.94 241.456 198.823 242.263 199.538C243.069 200.254 244.021 200.786 245.053 201.099C245.371 201.609 245.668 202.128 245.94 202.66C246.425 203.598 246.835 204.703 246.668 205.708C246.365 206.03 246.086 206.373 245.831 206.734C244.63 208.409 243.948 210.372 243.32 212.332C242.477 214.834 241.802 217.389 241.299 219.981C240.278 222.154 239.03 224.23 238.29 226.512C236.963 226.514 235.643 226.336 234.364 225.985L230.832 225.185C229.602 224.904 228.321 224.603 227.358 223.791C226.848 223.372 226.45 222.815 225.931 222.401C225.412 221.986 224.37 221.501 223.801 221.844C223.697 221.907 223.6 221.982 223.512 222.066C222.993 221.015 222.5 219.972 221.897 218.955C221.031 217.532 219.742 216.23 218.11 215.957C217.112 215.797 216.092 216.034 215.268 216.619C214.314 217.297 213.715 218.712 214.431 219.667C214.61 219.879 214.804 220.078 215.013 220.261C215.497 220.82 215.93 221.421 216.306 222.057C217.655 223.952 219.673 225.263 221.951 225.725L221.805 226.144C221.508 227.015 220.876 228.065 221.035 228.97L236.745 234.35C237.753 234.759 238.823 234.995 239.909 235.049C240.333 235.045 240.755 234.989 241.165 234.882V235.685V235.719C241.207 241.241 240.328 246.726 240.165 252.244C240.135 253.253 240.165 254.337 240.801 255.125C241.512 255.987 242.776 256.159 243.877 255.962C244.142 255.917 244.401 255.859 244.655 255.786C245.027 257.175 245.296 258.59 245.459 260.019L246.496 267.496C246.63 268.262 246.685 269.039 246.66 269.816C246.538 271.57 245.613 273.14 244.944 274.76C244.274 276.381 243.877 278.319 244.755 279.835C245.032 280.304 245.413 280.701 245.659 281.187C245.973 281.939 246.116 282.751 246.078 283.565C246.142 285.82 246.204 288.079 246.262 290.339C246.079 290.309 245.892 290.347 245.735 290.444C244.864 291.122 244.961 294.35 244.898 295.351C244.831 297.026 244.898 298.734 244.806 300.425C244.697 302.705 244.33 304.965 243.713 307.162C243.563 307.876 243.233 308.54 242.755 309.092C242.266 309.518 241.682 309.821 241.052 309.975C238.967 310.629 236.786 310.926 234.603 310.855C233.72 310.825 232.799 310.741 231.979 311.076C231.158 311.411 230.497 312.332 230.794 313.17C231.05 313.873 231.824 314.208 232.523 314.472C234.119 315.034 235.66 315.744 237.126 316.59C237.69 316.975 238.285 317.312 238.905 317.599C239.499 317.813 240.113 317.964 240.738 318.052L248.158 319.333C249.677 319.592 251.506 319.751 252.473 318.495C252.996 317.817 253.071 316.896 253.046 316.034C253.004 314.359 252.669 312.655 252.887 310.98C253.052 309.99 253.313 309.018 253.665 308.079C254.405 305.882 255.147 303.687 255.892 301.493C256.637 299.291 257.39 297.068 257.679 294.756C257.783 293.919 257.775 292.964 257.135 292.441C256.973 292.308 256.784 292.211 256.582 292.156C256.557 290.138 256.294 288.116 256.407 286.098C256.436 285.596 256.486 285.093 256.528 284.587C256.916 284.956 257.262 285.365 257.562 285.809C258.277 286.931 258.541 288.413 259.633 289.159C260.562 289.795 261.939 289.762 262.592 290.683C262.802 291.037 262.96 291.419 263.061 291.817C263.44 292.804 264.008 293.708 264.735 294.476C264.984 295.395 265.331 296.285 265.768 297.13C266.385 298.434 266.999 299.733 267.61 301.028C268.238 302.426 268.936 303.791 269.702 305.119C270.287 305.954 270.759 306.864 271.104 307.823C271.694 309.892 270.732 312.161 269.208 313.685C267.685 315.209 265.676 316.084 263.697 316.9C263.488 316.971 263.297 317.085 263.136 317.235C262.964 317.438 262.874 317.698 262.881 317.964C262.881 318.931 263.676 319.76 264.588 320.057C265.521 320.308 266.498 320.343 267.447 320.162C272.795 319.513 278.127 318.206 282.856 315.606C283.563 315.271 284.19 314.787 284.693 314.187C284.936 313.885 285.093 313.523 285.146 313.139C285.2 312.755 285.149 312.363 284.998 312.006Z" fill="url(#paint0_linear_754_3617)"/>
<path d="M262.395 218.118C263.288 219.488 264.125 220.892 264.906 222.33C265.454 223.28 265.898 224.287 266.233 225.331C266.718 227.006 266.706 228.794 267.07 230.502C267.488 232.512 268.468 234.429 268.468 236.489C268.404 238.274 267.787 239.995 266.702 241.413C265.62 242.819 264.381 244.097 263.01 245.223C259.85 237.032 258.085 228.37 257.788 219.596C257.746 218.381 257.737 217.13 258.181 215.995C258.453 215.283 259.759 213.332 260.6 214.098C260.905 214.379 260.985 215.643 261.173 216.066C261.526 216.781 261.935 217.467 262.395 218.118Z" fill="#2F2E41"/>
<path opacity="0.1" d="M262.395 218.118C263.288 219.488 264.125 220.892 264.906 222.33C265.454 223.28 265.898 224.287 266.233 225.331C266.718 227.006 266.706 228.794 267.07 230.502C267.488 232.512 268.468 234.429 268.468 236.489C268.404 238.274 267.787 239.995 266.702 241.413C265.62 242.819 264.381 244.097 263.01 245.223C259.85 237.032 258.085 228.37 257.788 219.596C257.746 218.381 257.737 217.13 258.181 215.995C258.453 215.283 259.759 213.332 260.6 214.098C260.905 214.379 260.985 215.643 261.173 216.066C261.526 216.781 261.935 217.467 262.395 218.118Z" fill="#161616"/>
<path d="M152.062 160.998C148.752 164.305 148.354 165.762 146.366 166.42C144.378 167.077 137.226 170.782 139.474 174.889L145.517 178.884L145.693 179.001L146.617 181.781L137.477 198.059C137.477 198.059 122.411 191.167 120.934 201.362C119.457 211.557 120.394 214.341 119.997 219.784C119.599 225.227 120.126 226.801 118.8 226.801C117.473 226.801 116.95 223.226 116.95 223.226C116.95 223.226 116.866 223.062 116.72 222.757C114.749 218.658 101.369 188.567 122.801 167.885C122.801 167.885 132.727 167.232 135.117 155.844C136.766 147.973 142.533 148.651 146.366 150.254C147.612 150.743 148.773 151.426 149.806 152.277C150.736 153.157 151.563 154.14 152.271 155.207C153.364 156.932 153.958 159.097 152.062 160.998Z" fill="#D0D2D5"/>
<path opacity="0.1" d="M145.692 179.001L146.617 181.781L137.477 198.059C137.477 198.059 122.411 191.168 120.934 201.362C119.457 211.557 120.394 214.341 119.997 219.784C119.599 225.227 120.126 226.801 118.8 226.801C117.473 226.801 116.95 223.226 116.95 223.226C116.95 223.226 116.866 223.062 116.72 222.757C116.054 217.666 112.681 187.885 124.91 189.468C124.91 189.468 134.832 194.107 136.419 192.256C137.674 190.791 143.248 182.363 145.517 178.905L145.692 179.001Z" fill="#161616"/>
<path opacity="0.1" d="M152.271 155.182L146.228 162.053C146.228 162.053 139.21 171.448 137.753 171.05C137.317 170.955 136.873 170.903 136.427 170.895C135.941 170.858 135.476 170.684 135.085 170.393C134.694 170.102 134.393 169.706 134.218 169.251C134.043 168.796 134 168.301 134.095 167.823C134.189 167.345 134.418 166.903 134.753 166.549C137.147 164.037 141.558 159.269 141.846 158.209C142.135 157.15 144.943 152.507 146.349 150.234C147.595 150.722 148.756 151.405 149.789 152.256C150.725 153.134 151.557 154.116 152.271 155.182Z" fill="#161616"/>
<path d="M323.254 254.028C322.228 256.079 316.976 263.774 314.679 267.136L313.603 268.719C313.603 268.719 313.185 271.499 306.325 268.053C299.466 264.608 138.306 196.577 138.306 196.577L137.214 193.294L145.165 181.383L321.801 249.657C321.801 249.657 324.58 251.377 323.254 254.028Z" fill="#454B69"/>
<path opacity="0.1" d="M314.679 267.136L313.603 268.719C313.603 268.719 313.185 271.499 306.325 268.053C299.466 264.608 138.306 196.577 138.306 196.577L137.214 193.294L314.679 267.136Z" fill="#161616"/>
<path d="M217.469 222.698C215.833 222.43 214.017 222.56 212.745 223.623C211.976 224.275 211.489 225.199 211.389 226.202C211.28 227.362 211.954 228.74 213.117 228.828C213.397 228.831 213.677 228.813 213.954 228.773C214.689 228.77 215.423 228.832 216.147 228.957C217.572 229.091 219.009 228.882 220.336 228.345C221.664 227.809 222.844 226.962 223.776 225.876C224.776 224.62 223.458 224.076 222.278 223.824C220.663 223.481 219.085 222.958 217.469 222.698Z" fill="#FBBEBE"/>
<path d="M245.459 260.509L246.497 267.886C246.629 268.647 246.682 269.42 246.656 270.193C246.534 271.93 245.609 273.488 244.944 275.095C244.278 276.703 243.873 278.629 244.756 280.119C245.028 280.584 245.408 280.982 245.655 281.463C245.969 282.208 246.112 283.013 246.074 283.821L246.358 294.287C249.589 294.508 252.831 294.49 256.059 294.233C256.186 294.239 256.31 294.201 256.411 294.124C256.496 294.016 256.539 293.881 256.532 293.743C256.674 291.294 256.248 288.841 256.386 286.391C256.436 285.495 256.561 284.604 256.578 283.703C256.628 280.057 254.829 276.485 255.373 272.881C255.544 271.971 255.767 271.072 256.043 270.188C257.763 263.908 257.398 257.31 257.018 250.825C257.024 250.72 256.995 250.617 256.934 250.532C256.872 250.47 256.794 250.428 256.708 250.41C254.877 249.861 252.941 249.76 251.063 250.117C249.185 250.474 247.421 251.278 245.919 252.462C245.463 252.83 244.312 253.186 244.011 253.626C243.592 254.237 244.14 254.848 244.383 255.497C244.921 257.124 245.281 258.804 245.459 260.509Z" fill="#3F3D56"/>
<path opacity="0.1" d="M245.459 260.509L246.497 267.886C246.629 268.647 246.682 269.42 246.656 270.193C246.534 271.93 245.609 273.488 244.944 275.095C244.278 276.703 243.873 278.629 244.756 280.119C245.028 280.584 245.408 280.982 245.655 281.463C245.969 282.208 246.112 283.013 246.074 283.821L246.358 294.287C249.589 294.508 252.831 294.49 256.059 294.233C256.186 294.239 256.31 294.201 256.411 294.124C256.496 294.016 256.539 293.881 256.532 293.743C256.674 291.294 256.248 288.841 256.386 286.391C256.436 285.495 256.561 284.604 256.578 283.703C256.628 280.057 254.829 276.485 255.373 272.881C255.544 271.971 255.767 271.072 256.043 270.188C257.763 263.908 257.398 257.31 257.018 250.825C257.024 250.72 256.995 250.617 256.934 250.532C256.872 250.47 256.794 250.428 256.708 250.41C254.877 249.861 252.941 249.76 251.063 250.117C249.185 250.474 247.421 251.278 245.919 252.462C245.463 252.83 244.312 253.186 244.011 253.626C243.592 254.237 244.14 254.848 244.383 255.497C244.921 257.124 245.281 258.804 245.459 260.509Z" fill="#161616"/>
<path d="M264.864 258.285C264.375 259.303 263.718 260.249 263.425 261.342C262.663 264.226 264.634 267.203 264.4 270.159C264.325 271.093 264.036 272.001 264.015 272.935C263.994 273.869 264.337 274.907 265.166 275.338C265.722 275.623 266.421 275.594 266.944 275.92C267.827 276.46 267.928 277.687 267.84 278.717C267.752 279.747 267.606 280.898 268.259 281.702C268.757 282.326 269.61 282.569 270.146 283.159C270.465 283.583 270.736 284.041 270.954 284.524C271.753 285.922 273.214 286.776 274.41 287.873C275.607 288.97 276.62 290.578 276.084 292.098C275.691 293.211 274.586 293.898 273.523 294.421C271.584 295.38 269.537 296.104 267.426 296.578C267.199 296.646 266.959 296.659 266.727 296.615C266.491 296.529 266.281 296.385 266.116 296.197C264.881 294.987 263.605 293.718 263.036 292.089C262.934 291.695 262.777 291.317 262.567 290.967C261.914 290.05 260.537 290.084 259.608 289.452C258.52 288.711 258.256 287.241 257.545 286.132C256.833 285.022 255.791 284.361 255.034 283.385C253.753 281.761 253.439 279.592 252.523 277.737C252.134 276.95 251.636 276.213 251.326 275.393C251.013 274.409 250.821 273.391 250.753 272.361C250.163 267.471 248.66 262.548 249.606 257.708C249.815 256.644 250.137 255.614 250.271 254.517C250.502 252.621 250.137 250.678 250.418 248.786C250.425 248.548 250.485 248.315 250.595 248.104C250.704 247.893 250.86 247.71 251.05 247.567C251.276 247.466 251.522 247.416 251.77 247.421C254.251 247.288 256.738 247.344 259.211 247.588C260.466 247.71 261.872 247.965 262.626 248.991C263.266 249.87 263.232 251.047 263.437 252.114C263.693 253.429 264.358 254.145 265.057 255.175C265.756 256.205 265.379 257.222 264.864 258.285Z" fill="#3F3D56"/>
<path d="M255.21 292.307C255.871 292.307 256.603 292.265 257.114 292.684C257.75 293.207 257.758 294.166 257.658 294.983C257.365 297.277 256.616 299.483 255.867 301.681L253.64 308.217C253.288 309.15 253.027 310.114 252.862 311.097C252.644 312.772 252.979 314.447 253.021 316.122C253.021 316.959 252.967 317.888 252.443 318.562C251.498 319.781 249.652 319.638 248.133 319.4L240.721 318.144C240.096 318.06 239.481 317.91 238.888 317.696C238.27 317.41 237.675 317.075 237.11 316.695C235.643 315.857 234.102 315.156 232.506 314.602C231.811 314.342 231.033 314.011 230.782 313.312C230.485 312.475 231.146 311.554 231.966 311.219C232.786 310.884 233.703 310.968 234.59 310.993C236.772 311.062 238.95 310.768 241.035 310.122C241.663 309.968 242.246 309.666 242.734 309.243C243.231 308.685 243.569 308.004 243.714 307.271C244.345 305.089 244.721 302.841 244.835 300.572C244.923 298.897 244.864 297.222 244.931 295.548C244.973 294.556 244.877 291.361 245.747 290.679C246.413 290.168 249.15 291.579 250.05 291.784C251.741 292.172 253.475 292.348 255.21 292.307Z" fill="#2F2E41"/>
<path d="M279.625 296.963C280.349 299.362 280.462 301.899 280.931 304.365C281.399 306.831 282.228 309.347 284.057 311.064C284.413 311.347 284.72 311.686 284.965 312.069C285.119 312.427 285.172 312.821 285.116 313.208C285.061 313.594 284.9 313.958 284.651 314.258C284.146 314.854 283.52 315.335 282.814 315.669C278.089 318.248 272.77 319.55 267.409 320.195C266.462 320.373 265.487 320.337 264.555 320.091C263.642 319.781 262.835 318.96 262.851 317.997C262.843 317.733 262.932 317.475 263.103 317.273C263.265 317.124 263.458 317.011 263.668 316.942C265.643 316.13 267.647 315.246 269.175 313.748C270.703 312.249 271.661 309.979 271.071 307.945C270.721 306.992 270.247 306.089 269.66 305.261C268.895 303.945 268.197 302.591 267.568 301.204L265.727 297.34C265.187 296.209 264.643 295.045 264.551 293.798C266.864 293.901 269.174 293.531 271.339 292.709C272.349 292.297 273.291 291.732 274.13 291.034C274.841 290.44 275.49 289.33 276.448 290.105C277.219 290.725 277.704 292.47 278.156 293.354C278.743 294.515 279.234 295.722 279.625 296.963Z" fill="#2F2E41"/>
<path d="M252.64 201.006C252.824 202.614 254.381 203.673 255.867 204.31L246.463 207.312C247.07 206.148 246.58 204.724 245.978 203.544C245.487 202.609 244.927 201.712 244.304 200.86C244.211 200.73 244.107 200.567 244.174 200.416C244.234 200.318 244.327 200.245 244.437 200.211C246.371 199.348 248.363 198.457 250.476 198.143C251.087 198.055 252.243 197.812 252.699 198.432C253.155 199.051 252.552 200.265 252.64 201.006Z" fill="#FBBEBE"/>
<path opacity="0.1" d="M252.64 201.006C252.824 202.614 254.381 203.673 255.867 204.31L246.463 207.312C247.07 206.148 246.58 204.724 245.978 203.544C245.487 202.609 244.927 201.712 244.304 200.86C244.211 200.73 244.107 200.567 244.174 200.416C244.234 200.318 244.327 200.245 244.437 200.211C246.371 199.348 248.363 198.457 250.476 198.143C251.087 198.055 252.243 197.812 252.699 198.432C253.155 199.051 252.552 200.265 252.64 201.006Z" fill="#161616"/>
<path d="M247.175 202.309C251.247 202.309 254.548 199.006 254.548 194.932C254.548 190.857 251.247 187.554 247.175 187.554C243.102 187.554 239.801 190.857 239.801 194.932C239.801 199.006 243.102 202.309 247.175 202.309Z" fill="#FBBEBE"/>
<path d="M240.784 255.639C241.5 256.498 242.759 256.665 243.86 256.477C246.434 256.058 248.539 254.162 251.058 253.479C254.147 252.642 257.415 253.718 260.332 255.037C263.249 256.355 266.149 257.967 269.338 258.193C266.455 251.763 268.104 244.025 265.346 237.54C264.672 235.953 263.73 234.425 263.58 232.709C263.391 230.577 264.454 228.522 264.618 226.403C264.768 224.515 264.199 222.635 263.655 220.835C262.983 218.624 262.31 216.414 261.638 214.203C260.885 211.729 260.11 209.212 258.65 207.086C258.11 206.303 257.947 204.716 257.127 204.243C255.335 203.209 252.619 204.511 250.677 204.582C248.736 204.653 246.965 206.035 245.831 207.596C244.63 209.246 243.948 211.21 243.32 213.152C242.321 216.045 241.574 219.019 241.09 222.041C241.027 222.493 240.972 222.945 240.931 223.401C240.512 227.701 241.123 232.026 241.157 236.347V236.376C241.198 241.857 240.32 247.304 240.156 252.78C240.14 253.781 240.165 254.873 240.784 255.639Z" fill="#2F2E41"/>
<path opacity="0.1" d="M241.169 236.351C242.613 235.987 243.919 235.053 245.04 234.032C246.012 233.162 246.874 232.178 247.61 231.101C248.536 229.653 249.279 228.096 249.824 226.466C251.373 222.106 252.358 217.566 252.753 212.956C252.862 211.7 252.895 210.351 252.146 209.355C251.726 208.815 251.135 208.434 250.47 208.272C249.805 208.111 249.105 208.18 248.484 208.467C247.497 208.949 246.856 209.924 246.262 210.858C245.086 212.709 243.902 214.584 243.144 216.644C242.81 217.557 242.563 218.495 242.236 219.412C241.904 220.316 241.521 221.201 241.09 222.062C241.027 222.514 240.972 222.966 240.931 223.422C240.541 227.722 241.136 232.03 241.169 236.351Z" fill="#161616"/>
<path d="M252.125 208.547C252.875 209.543 252.841 210.904 252.736 212.143C252.342 216.754 251.357 221.294 249.807 225.654C249.267 227.298 248.523 228.868 247.593 230.326C246.856 231.402 245.994 232.386 245.023 233.257C243.601 234.555 241.868 235.715 239.939 235.732C238.853 235.68 237.783 235.447 236.775 235.041L221.06 229.69C220.901 228.794 221.533 227.747 221.83 226.885L222.667 224.402C222.906 223.716 223.182 222.975 223.806 222.602C224.429 222.229 225.417 222.74 225.936 223.155C226.455 223.569 226.848 224.113 227.359 224.536C228.325 225.34 229.602 225.641 230.832 225.918L234.36 226.709C235.639 227.06 236.96 227.236 238.286 227.232C239.269 224.226 241.14 221.58 242.199 218.599C242.525 217.687 242.772 216.745 243.111 215.832C243.864 213.772 245.053 211.901 246.229 210.046C246.819 209.116 247.459 208.141 248.451 207.655C249.074 207.364 249.777 207.294 250.445 207.456C251.112 207.618 251.705 208.003 252.125 208.547Z" fill="#2F2E41"/>
<path d="M249.526 196.598C249.471 196.113 249.32 195.643 249.083 195.216C248.96 195.002 248.771 194.833 248.546 194.734C248.32 194.635 248.068 194.61 247.827 194.663C247.091 194.894 246.844 196.033 246.074 196.07C245.555 196.095 245.182 195.568 245.019 195.074C244.856 194.58 244.768 194.014 244.379 193.667C244.108 193.464 243.797 193.322 243.467 193.248C241.68 192.683 239.834 191.641 239.24 189.861C239.1 189.5 239.066 189.106 239.143 188.727C239.415 187.6 240.817 187.261 241.885 186.855C242.952 186.449 243.977 185.754 245.023 185.226C246.07 184.699 247.283 184.326 248.434 184.594C249.018 184.778 249.592 184.992 250.154 185.235C251.887 185.838 254.009 185.557 255.352 186.809C255.939 187.43 256.369 188.182 256.607 189.003C257.545 191.607 258.139 194.697 256.587 196.983C255.628 198.394 254.699 200.006 252.858 200.177C250.715 200.357 249.865 198.415 249.526 196.598Z" fill="#2F2E41"/>
<g opacity="0.1">
<path d="M246.254 194.186C246.091 193.692 246.003 193.127 245.618 192.779C245.347 192.577 245.036 192.434 244.705 192.361C242.914 191.796 241.073 190.753 240.474 188.974C240.338 188.612 240.306 188.218 240.382 187.839C240.423 187.66 240.499 187.491 240.604 187.341C239.922 187.638 239.328 188.032 239.16 188.727C239.083 189.106 239.117 189.5 239.257 189.861C239.851 191.641 241.696 192.683 243.483 193.248C243.814 193.322 244.125 193.464 244.396 193.667C244.785 194.015 244.869 194.576 245.036 195.074C245.203 195.572 245.572 196.095 246.091 196.07C246.61 196.045 246.861 195.572 247.191 195.174C246.735 195.116 246.405 194.647 246.254 194.186Z" fill="#161616"/>
<path d="M254.088 199.277C251.937 199.474 251.088 197.515 250.74 195.71C250.694 195.226 250.552 194.756 250.322 194.328C250.198 194.115 250.01 193.947 249.784 193.847C249.558 193.748 249.307 193.723 249.066 193.776C248.684 193.961 248.364 194.252 248.141 194.613C248.333 194.632 248.519 194.694 248.683 194.796C248.847 194.897 248.985 195.035 249.087 195.199C249.324 195.626 249.475 196.096 249.531 196.581C249.87 198.385 250.719 200.349 252.879 200.148C253.732 200.054 254.52 199.645 255.088 199.001C254.773 199.148 254.435 199.242 254.088 199.277Z" fill="#161616"/>
</g>
<path d="M340.287 277.159C347.75 277.159 353.8 275.995 353.8 274.559C353.8 273.124 347.75 271.959 340.287 271.959C332.823 271.959 326.773 273.124 326.773 274.559C326.773 275.995 332.823 277.159 340.287 277.159Z" fill="#B98809"/>
<path d="M340.061 275.514C340.93 275.514 341.634 274.592 341.634 273.454C341.634 272.317 340.93 271.394 340.061 271.394C339.192 271.394 338.487 272.317 338.487 273.454C338.487 274.592 339.192 275.514 340.061 275.514Z" fill="#3F3D56"/>
<path d="M340.061 272.994C340.93 272.994 341.634 272.072 341.634 270.934C341.634 269.796 340.93 268.874 340.061 268.874C339.192 268.874 338.487 269.796 338.487 270.934C338.487 272.072 339.192 272.994 340.061 272.994Z" fill="#3F3D56"/>
<path d="M340.061 270.477C340.93 270.477 341.634 269.555 341.634 268.418C341.634 267.28 340.93 266.358 340.061 266.358C339.192 266.358 338.487 267.28 338.487 268.418C338.487 269.555 339.192 270.477 340.061 270.477Z" fill="#3F3D56"/>
<path d="M340.061 267.957C340.93 267.957 341.634 267.035 341.634 265.897C341.634 264.759 340.93 263.837 340.061 263.837C339.192 263.837 338.487 264.759 338.487 265.897C338.487 267.035 339.192 267.957 340.061 267.957Z" fill="#3F3D56"/>
<path d="M340.061 265.437C340.93 265.437 341.634 264.514 341.634 263.377C341.634 262.239 340.93 261.317 340.061 261.317C339.192 261.317 338.487 262.239 338.487 263.377C338.487 264.514 339.192 265.437 340.061 265.437Z" fill="#3F3D56"/>
<path d="M340.061 262.92C340.93 262.92 341.634 261.998 341.634 260.86C341.634 259.723 340.93 258.801 340.061 258.801C339.192 258.801 338.487 259.723 338.487 260.86C338.487 261.998 339.192 262.92 340.061 262.92Z" fill="#3F3D56"/>
<path d="M340.061 260.4C340.93 260.4 341.634 259.478 341.634 258.34C341.634 257.202 340.93 256.28 340.061 256.28C339.192 256.28 338.487 257.202 338.487 258.34C338.487 259.478 339.192 260.4 340.061 260.4Z" fill="#3F3D56"/>
<path d="M345.949 241.12C346.164 240.846 346.359 240.558 346.535 240.257L342.4 239.579L346.874 239.608C347.301 238.674 347.534 237.663 347.558 236.636C347.582 235.609 347.398 234.587 347.016 233.634L341.015 236.749L346.547 232.679C346.028 231.785 345.331 231.008 344.498 230.395C343.666 229.782 342.716 229.347 341.709 229.117C340.701 228.887 339.657 228.867 338.641 229.059C337.626 229.25 336.66 229.648 335.805 230.228C334.95 230.809 334.223 231.559 333.67 232.432C333.117 233.306 332.749 234.284 332.59 235.305C332.431 236.327 332.484 237.37 332.745 238.371C333.007 239.371 333.471 240.307 334.109 241.12C333.773 241.545 333.484 242.006 333.247 242.493L338.617 245.286L332.892 243.364C332.492 244.55 332.394 245.818 332.606 247.052C332.819 248.286 333.336 249.447 334.109 250.431C333.236 251.543 332.694 252.878 332.543 254.284C332.393 255.69 332.64 257.11 333.258 258.381C333.876 259.653 334.839 260.725 336.037 261.475C337.235 262.225 338.62 262.623 340.033 262.623C341.447 262.623 342.831 262.225 344.029 261.475C345.227 260.725 346.19 259.653 346.808 258.381C347.426 257.11 347.674 255.69 347.523 254.284C347.373 252.878 346.83 251.543 345.957 250.431C347.003 249.102 347.571 247.46 347.571 245.769C347.571 244.078 347.003 242.436 345.957 241.107L345.949 241.12Z" fill="#B98809"/>
<path opacity="0.1" d="M332.486 245.767C332.485 247.461 333.057 249.105 334.11 250.431C333.237 251.543 332.694 252.878 332.543 254.284C332.393 255.69 332.641 257.11 333.259 258.381C333.876 259.653 334.839 260.725 336.037 261.475C337.235 262.225 338.62 262.623 340.034 262.623C341.447 262.623 342.832 262.225 344.03 261.475C345.228 260.725 346.191 259.653 346.808 258.381C347.426 257.11 347.674 255.69 347.524 254.284C347.373 252.878 346.83 251.543 345.957 250.431C346.958 249.146 332.486 244.922 332.486 245.767Z" fill="#161616"/>
<path d="M62.1138 329C72.8591 329 81.5699 327.324 81.5699 325.257C81.5699 323.19 72.8591 321.514 62.1138 321.514C51.3685 321.514 42.6577 323.19 42.6577 325.257C42.6577 327.324 51.3685 329 62.1138 329Z" fill="#B98809"/>
<path d="M61.7873 326.635C63.0377 326.635 64.0514 325.306 64.0514 323.666C64.0514 322.027 63.0377 320.698 61.7873 320.698C60.5369 320.698 59.5232 322.027 59.5232 323.666C59.5232 325.306 60.5369 326.635 61.7873 326.635Z" fill="#3F3D56"/>
<path d="M61.7873 323.009C63.0377 323.009 64.0514 321.68 64.0514 320.04C64.0514 318.401 63.0377 317.072 61.7873 317.072C60.5369 317.072 59.5232 318.401 59.5232 320.04C59.5232 321.68 60.5369 323.009 61.7873 323.009Z" fill="#3F3D56"/>
<path d="M61.7873 319.383C63.0377 319.383 64.0514 318.054 64.0514 316.415C64.0514 314.775 63.0377 313.446 61.7873 313.446C60.5369 313.446 59.5232 314.775 59.5232 316.415C59.5232 318.054 60.5369 319.383 61.7873 319.383Z" fill="#3F3D56"/>
<path d="M61.7873 315.757C63.0377 315.757 64.0514 314.428 64.0514 312.789C64.0514 311.149 63.0377 309.82 61.7873 309.82C60.5369 309.82 59.5232 311.149 59.5232 312.789C59.5232 314.428 60.5369 315.757 61.7873 315.757Z" fill="#3F3D56"/>
<path d="M61.7873 312.132C63.0377 312.132 64.0514 310.803 64.0514 309.163C64.0514 307.524 63.0377 306.195 61.7873 306.195C60.5369 306.195 59.5232 307.524 59.5232 309.163C59.5232 310.803 60.5369 312.132 61.7873 312.132Z" fill="#3F3D56"/>
<path d="M61.7873 308.502C63.0377 308.502 64.0514 307.173 64.0514 305.533C64.0514 303.894 63.0377 302.565 61.7873 302.565C60.5369 302.565 59.5232 303.894 59.5232 305.533C59.5232 307.173 60.5369 308.502 61.7873 308.502Z" fill="#3F3D56"/>
<path d="M61.7873 304.876C63.0377 304.876 64.0514 303.547 64.0514 301.907C64.0514 300.268 63.0377 298.939 61.7873 298.939C60.5369 298.939 59.5232 300.268 59.5232 301.907C59.5232 303.547 60.5369 304.876 61.7873 304.876Z" fill="#3F3D56"/>
<path d="M70.2662 277.097C70.5726 276.697 70.8522 276.277 71.1032 275.841L65.1521 274.861L71.5886 274.911C72.2056 273.566 72.5419 272.11 72.5772 270.63C72.6124 269.151 72.3459 267.68 71.7937 266.307L63.1642 270.804L71.1157 264.943C70.3711 263.65 69.3683 262.525 68.1697 261.637C66.9711 260.75 65.6026 260.119 64.1495 259.784C62.6964 259.449 61.1899 259.418 59.724 259.691C58.2582 259.965 56.8644 260.538 55.6296 261.374C54.3949 262.211 53.3457 263.293 52.5475 264.553C51.7494 265.813 51.2194 267.224 50.9906 268.698C50.7618 270.172 50.8391 271.678 51.2178 273.12C51.5965 274.563 52.2683 275.913 53.1914 277.084C52.7026 277.695 52.2817 278.358 51.9359 279.06L59.6656 283.08L51.4253 280.312C50.8478 282.028 50.7084 283.861 51.0197 285.645C51.3311 287.428 52.0834 289.105 53.2081 290.524C51.949 292.125 51.1657 294.048 50.9477 296.074C50.7298 298.1 51.0861 300.146 51.9758 301.979C52.8655 303.811 54.2528 305.357 55.979 306.438C57.7052 307.519 59.7006 308.092 61.7372 308.092C63.7737 308.092 65.7691 307.519 67.4953 306.438C69.2215 305.357 70.6088 303.811 71.4985 301.979C72.3882 300.146 72.7445 298.1 72.5265 296.074C72.3086 294.048 71.5253 292.125 70.2662 290.524C71.7711 288.611 72.5894 286.247 72.5894 283.812C72.5894 281.378 71.7711 279.014 70.2662 277.101V277.097Z" fill="#B98809"/>
<path opacity="0.1" d="M50.8855 283.825C50.8859 286.255 51.704 288.615 53.2082 290.524C51.949 292.125 51.1657 294.048 50.9478 296.074C50.7299 298.1 51.0862 300.146 51.9759 301.979C52.8656 303.811 54.2529 305.356 55.979 306.438C57.7052 307.519 59.7007 308.092 61.7372 308.092C63.7738 308.092 65.7692 307.519 67.4954 306.438C69.2216 305.356 70.6088 303.811 71.4985 301.979C72.3883 300.146 72.7445 298.1 72.5266 296.074C72.3087 294.048 71.5254 292.125 70.2662 290.524C71.7101 288.673 50.8855 282.59 50.8855 283.825Z" fill="#161616"/>
</g>
<defs>
<linearGradient id="paint0_linear_754_3617" x1="251.888" y1="320.851" x2="246.344" y2="183.474" gradientUnits="userSpaceOnUse">
<stop stop-color="#808080" stop-opacity="0.25"/>
<stop offset="0.54" stop-color="#808080" stop-opacity="0.12"/>
<stop offset="1" stop-color="#808080" stop-opacity="0.1"/>
</linearGradient>
<clipPath id="clip0_754_3617">
<rect width="428" height="329" fill="white"/>
</clipPath>
</defs>
</svg>
