<svg width="200" height="200" viewBox="0 0 200 200" fill="none" xmlns="http://www.w3.org/2000/svg">
<g clip-path="url(#clip0_781_388)">
<path d="M100 200C44.8582 200 0 155.139 0 100C0 44.8605 44.8582 0 100 0C155.142 0 200 44.8605 200 100C200 155.139 155.142 200 100 200Z" fill="#D7EBFF"/>
<path d="M200 100C200 44.8605 155.142 0 100 0V200C155.142 200 200 155.139 200 100Z" fill="#C4E2FF"/>
<path d="M100 186.957C52.0508 186.957 13.0434 147.947 13.0434 100C13.0434 52.0527 52.0508 13.0433 100 13.0433C147.949 13.0433 186.957 52.0531 186.957 100C186.957 147.947 147.949 186.957 100 186.957Z" fill="#88CC2A"/>
<path d="M186.957 100C186.957 52.0531 147.949 13.0433 100 13.0433V186.956C147.949 186.957 186.957 147.947 186.957 100Z" fill="#7FB335"/>
<path d="M91.3043 139.131C87.9668 139.131 84.6297 137.857 82.082 135.309L55.2055 108.432C50.1102 103.34 50.1102 95.0813 55.2055 89.9879C60.3008 84.8926 68.5547 84.8926 73.65 89.9879L91.3043 107.64L128.524 70.4223C133.619 65.327 141.873 65.327 146.968 70.4223C152.064 75.5153 152.064 83.7735 146.968 88.8668L100.527 135.309C97.9793 137.857 94.6418 139.131 91.3043 139.131Z" fill="white"/>
<path d="M128.524 70.4231L100 98.9454V135.739C100.17 135.586 100.362 135.473 100.527 135.309L146.968 88.8672C152.064 83.7743 152.064 75.5161 146.968 70.4227C141.873 65.3278 133.619 65.3278 128.524 70.4231Z" fill="#EDF0F2"/>
</g>
<defs>
<clipPath id="clip0_781_388">
<rect width="200" height="200" fill="white"/>
</clipPath>
</defs>
</svg>
