<svg width="60" height="60" viewBox="0 0 60 60" fill="none" xmlns="http://www.w3.org/2000/svg">
<g clip-path="url(#clip0_680_225)">
<g clip-path="url(#clip1_680_225)">
<path d="M60 29.9982C60.0028 34.0626 59.1788 38.0851 57.5781 41.821C55.9773 45.5569 53.6333 48.9281 50.6887 51.7296H9.44789C8.66346 51.0374 7.92303 50.297 7.23091 49.5126L7.02892 49.2663C5.3046 47.2119 -0.279733 39.9352 0.010938 29.9785C0.402605 16.2061 11.9974 0 30.0018 0C37.9578 0 45.588 3.16052 51.2137 8.78628C56.8395 14.412 60 22.0422 60 29.9982Z" fill="#B8BAC0"/>
<path d="M47.2524 47.877C46.0207 51.8183 37.978 53.9343 30.1077 53.9762C22.2399 53.9343 14.1873 51.8307 12.9655 47.877C12.2265 45.5221 14.5125 44.3939 15.4707 38.3391C16.3674 32.6858 14.4509 31.5601 14.8672 25.1259C15.1431 20.9382 15.4141 16.8344 18.3159 13.265C22.5035 8.15612 29.0559 8.01571 29.8934 8.00586C30.6497 8.00586 37.4878 8.02557 41.8528 13.265C45.7448 17.9453 45.2399 24.0223 45.3138 25.1259C45.7375 31.5576 43.821 32.6833 44.7176 38.3366C45.7054 44.3939 47.9815 45.5221 47.2524 47.877Z" fill="#2D2D2D"/>
<path d="M52.9771 49.2909C52.2598 50.1445 51.4949 50.9571 50.6862 51.7247C45.1107 57.0426 37.6995 60.0062 29.9944 59.999C23.612 59.999 18.2715 57.782 14.3672 55.3753C12.6251 54.3045 10.9792 53.0847 9.44793 51.7296C8.6639 51.0371 7.92349 50.2967 7.23094 49.5126C7.17183 49.4486 7.10778 49.3673 7.02649 49.2663C8.87197 47.4224 10.9674 45.8469 13.2513 44.586C15.4116 43.3954 17.6998 42.4534 20.0722 41.7778C23.3665 44.6944 26.6624 47.6085 29.9599 50.5201L39.9388 41.7778C40.0078 41.8 40.0841 41.8172 40.1531 41.8369C40.1734 41.8491 40.1961 41.8567 40.2196 41.8591C42.4826 42.5275 44.6677 43.4359 46.7376 44.5688C49.0283 45.8428 51.1287 47.4324 52.9771 49.2909Z" fill="#5C546A"/>
<path d="M39.9314 41.8049L29.9525 50.5472C26.6517 47.6339 23.3557 44.7198 20.0648 41.8049L20.3111 41.7359L20.5229 41.6768C20.5821 41.6595 20.651 41.6447 20.7225 41.6226H20.7372C20.9836 41.5585 21.289 41.4772 21.6191 41.4009C24.3994 43.7837 27.178 46.1649 29.955 48.5445C32.7681 46.1584 35.5795 43.7772 38.3893 41.4009C39.1209 41.5733 39.6924 41.7359 39.9314 41.8049Z" fill="#4F485B"/>
<path d="M38.3795 41.4012C35.5664 43.7841 32.7549 46.1653 29.9451 48.5448C27.1632 46.1587 24.3846 43.7775 21.6093 41.4012C21.964 41.315 22.3482 41.2337 22.7153 41.1549C23.0823 41.0761 23.4124 41.0194 23.7425 40.9652C23.9112 40.5518 24.0479 40.126 24.1514 39.6917C24.2105 39.4453 24.2548 39.2286 24.2869 39.0118C24.944 39.5645 25.6743 40.0237 26.4571 40.3765C26.5827 40.4307 26.7231 40.4972 26.8906 40.5661C27.845 40.9714 28.8713 41.1803 29.9082 41.1803C30.945 41.1803 31.9713 40.9714 32.9257 40.5661C33.1474 40.475 33.342 40.3888 33.4997 40.3198C34.2706 39.9575 34.991 39.4962 35.6427 38.9478C35.7142 39.268 35.8004 39.6005 35.8891 39.9528C35.9778 40.305 36.1157 40.6598 36.2364 40.9775C36.2395 40.976 36.2428 40.9752 36.2463 40.9752C36.2497 40.9752 36.253 40.976 36.2561 40.9775C36.569 41.0317 36.8621 41.0834 37.1207 41.1376C37.5715 41.2115 37.9804 41.3051 38.3795 41.4012Z" fill="#EAB198"/>
<path opacity="0.2" d="M40.2172 41.8765C40.0103 42.1228 39.8009 42.3371 39.5841 42.5514C39.1012 43.037 38.5833 43.4865 38.0347 43.8964C37.3159 44.4365 36.5301 44.8811 35.697 45.2192C35.1746 45.4344 34.6315 45.5954 34.0761 45.6995C33.5893 45.7935 33.094 45.8373 32.5982 45.8301C31.6179 45.8115 30.6496 45.6101 29.7432 45.2364L29.5806 45.1699C28.8571 44.8618 28.1719 44.4708 27.5385 44.0048C26.3451 43.1153 25.2929 42.0506 24.4175 40.8468C24.2771 40.6571 24.1367 40.4625 24.0037 40.263C24.0283 40.1768 24.0554 40.0905 24.0825 39.9969C24.172 39.6725 24.2443 39.3436 24.2993 39.0116C24.4446 39.1299 24.5973 39.2432 24.7427 39.3516C25.1429 39.6441 25.5635 39.9075 26.0014 40.1398L26.1295 40.2113L26.2872 40.2901L26.4694 40.3763L26.5778 40.4256L26.669 40.4699L26.7823 40.5167L26.8956 40.561L26.9449 40.5832C26.9892 40.6054 27.0311 40.6202 27.0754 40.6374C27.1198 40.6546 27.1887 40.6744 27.2429 40.6965C27.302 40.7187 27.3612 40.7409 27.4154 40.7556L27.4597 40.7729L27.5878 40.8098C27.6494 40.832 27.7134 40.8542 27.7725 40.869C27.8019 40.8734 27.8308 40.8808 27.8587 40.8911L28.0361 40.9404C28.4034 41.0341 28.7772 41.1 29.1544 41.1375C29.1938 41.1399 29.2333 41.1399 29.2727 41.1375C29.2997 41.1399 29.3269 41.1399 29.354 41.1375C29.4038 41.1441 29.454 41.1482 29.5042 41.1498H29.6397H29.9378C30.7508 41.1443 31.5579 41.0113 32.3297 40.7556H32.3444C32.3715 40.7433 32.406 40.7335 32.4331 40.7236C32.5932 40.6744 32.7509 40.6103 32.9135 40.5487C32.9269 40.5411 32.9409 40.5345 32.9553 40.529C33.0268 40.5019 33.0957 40.4699 33.1598 40.4428L33.214 40.4206C33.9341 40.0949 34.617 39.6927 35.2511 39.221L35.6502 38.9131C35.7216 39.2481 35.8177 39.6102 35.931 39.9871C36.0443 40.364 36.1429 40.6473 36.2562 40.9429L36.5247 40.9921L36.7956 41.0414L37.0592 41.0907L37.2587 41.1325C37.3027 41.1392 37.3463 41.1482 37.3893 41.1596C37.7243 41.2311 38.0593 41.3 38.3746 41.3813C38.9001 41.5045 39.4174 41.6392 39.9265 41.7853L40.2172 41.8765Z" fill="black"/>
<path d="M44.289 28.0422C44.2496 29.3207 43.4342 30.6139 42.5203 31.0893C42.3978 31.1539 42.268 31.2036 42.1336 31.2371H42.104C41.9319 31.2789 41.7527 31.2825 41.5791 31.2476C41.4055 31.2127 41.2416 31.1402 41.099 31.0351C41.0744 31.0201 41.0513 31.0028 41.03 30.9834C40.9273 30.9037 40.8347 30.8119 40.7541 30.71C40.0964 29.9192 39.8255 28.4289 40.2615 27.2416C40.438 26.7765 40.7089 26.353 41.0571 25.9976C41.3496 25.6828 41.7282 25.4609 42.1459 25.3596C42.3377 25.3202 42.5355 25.3202 42.7272 25.3596C43.821 25.5813 44.321 26.9731 44.289 28.0422Z" fill="#EAB198"/>
<path opacity="0.3" d="M44.289 28.0421C44.2495 29.3206 43.4342 30.6113 42.5228 31.0917C42.3977 31.1519 42.2675 31.2006 42.1336 31.237C42.1336 31.237 42.1163 31.237 42.1015 31.237C41.9295 31.2778 41.7507 31.2812 41.5773 31.2467C41.4039 31.2123 41.2399 31.1409 41.0965 31.0375L41.0275 30.9833C40.9265 30.9044 40.8355 30.8134 40.7566 30.7123C40.0915 29.9191 39.8279 28.4288 40.2639 27.2415C40.4387 26.7761 40.7088 26.3524 41.0571 25.9975C41.2761 25.771 41.5361 25.588 41.8232 25.4581C41.9264 25.4153 42.0337 25.3831 42.1434 25.362C42.3351 25.3214 42.5331 25.3214 42.7248 25.362C42.7539 25.3677 42.7827 25.3751 42.811 25.3842C43.8505 25.6551 44.321 27.005 44.289 28.0421Z" fill="black"/>
<path d="M19.2248 30.7198C19.1254 30.8429 19.0093 30.9515 18.8799 31.0425C18.7373 31.1475 18.5734 31.2201 18.3998 31.255C18.2262 31.2899 18.047 31.2863 17.8749 31.2445H17.8453C17.7109 31.2109 17.5811 31.1613 17.4586 31.0967C16.5447 30.6213 15.7343 29.328 15.6899 28.0496C15.6579 26.9805 16.158 25.5862 17.2443 25.3719C17.8601 25.2463 18.4513 25.5468 18.9144 26.0124C19.2634 26.3671 19.5344 26.7908 19.71 27.2564C20.1534 28.4363 19.8825 29.9241 19.2248 30.7198Z" fill="#EAB198"/>
<path d="M42.1509 25.3523V25.372C42.1509 25.4681 42.1509 25.5715 42.1509 25.6725C42.0304 27.4893 41.6565 29.2802 41.0399 30.9933C40.9685 31.1928 40.8921 31.3924 40.8182 31.5919C39.6506 34.5676 37.8253 37.191 35.6452 38.935L35.2462 39.2429C34.6121 39.7146 33.9291 40.1168 33.209 40.4426L33.1548 40.4647C33.0908 40.4918 33.0218 40.5239 32.9504 40.551C32.9359 40.5564 32.9219 40.563 32.9085 40.5707C32.7459 40.6322 32.5883 40.6963 32.4282 40.7456C32.4011 40.7456 32.3666 40.7653 32.3395 40.7776H32.3247C31.5529 41.0333 30.7458 41.1662 29.9328 41.1717H29.6348H29.4993C29.449 41.1702 29.3989 41.166 29.349 41.1594C29.322 41.1618 29.2948 41.1618 29.2677 41.1594C29.2284 41.1618 29.1889 41.1618 29.1495 41.1594C28.774 41.1225 28.4018 41.0575 28.0361 40.9648L27.8587 40.9155C27.8308 40.9052 27.8019 40.8978 27.7725 40.8934C27.7134 40.8786 27.6493 40.8564 27.5877 40.8342L27.4597 40.7973L27.4153 40.78C27.3611 40.7653 27.302 40.7431 27.2429 40.7209C27.1887 40.6988 27.1345 40.6815 27.0754 40.6618C27.0163 40.6421 26.9892 40.6298 26.9448 40.6076L26.8956 40.5854L26.7822 40.5411L26.6689 40.4943L26.5778 40.45L26.4694 40.4007L26.2871 40.3145L26.1295 40.2356L26.0014 40.1642C25.5635 39.9319 25.1428 39.6685 24.7426 39.376C24.5973 39.2676 24.4446 39.1543 24.2992 39.036C24.1096 38.8833 23.9273 38.7281 23.7425 38.5655C23.5578 38.4029 23.3804 38.2354 23.208 38.0581C23.0355 37.8807 22.8533 37.7009 22.6907 37.5186C22.5281 37.3363 22.3507 37.1393 22.198 36.9471C19.7553 33.8877 18.2626 30.1795 17.9045 26.281C17.8774 26.0347 17.8626 25.7735 17.8503 25.5198C17.8082 24.6265 17.8354 23.7313 17.9316 22.8422C17.9759 22.4801 18.0227 22.1229 18.0892 21.7682C18.1705 21.3347 18.2666 20.8986 18.3922 20.4552C18.6763 19.3891 19.059 18.3517 19.5352 17.3564C20.5772 15.169 22.0847 13.1121 23.9691 11.6489C25.6935 10.3138 27.7109 9.47134 29.9846 9.46641C33.65 9.44917 36.6848 11.6046 38.8081 14.5039C39.6701 15.6832 40.384 16.9638 40.934 18.3171C41.0744 18.657 41.2 18.997 41.3183 19.3418C41.5875 20.1341 41.7983 20.9451 41.9489 21.7682C42.0104 22.1131 42.0622 22.4628 42.1016 22.8151C42.1832 23.6583 42.1996 24.5066 42.1509 25.3523Z" fill="#EAB198"/>
<path opacity="0.2" d="M42.1656 25.3722C42.1434 25.7244 42.1163 26.0102 42.0843 26.3131C42.035 26.7886 42.0104 27.0201 41.9981 27.0374C41.7025 27.53 39.3426 27.1113 35.8965 25.2712C33.2139 23.835 32.9208 23.2685 30.3195 21.6846C26.4447 19.3223 24.5037 18.1276 22.3606 18.4749C18.9834 19.0143 17.2295 22.6847 16.5915 22.4704C17.3157 22.6256 18.4538 18.8197 21.5649 17.7901C24.6761 16.7604 28.3858 18.9848 32.1966 21.256C33.3962 21.9753 34.9678 23.0542 37.5691 24.244C41.1606 25.8796 41.8897 25.5397 42.1607 25.3672C42.1607 25.3722 42.1607 25.3722 42.1656 25.3722Z" fill="black"/>
<path d="M42.1656 25.3721C41.8946 25.5445 41.1655 25.8844 37.574 24.2488C34.9727 23.059 33.4011 21.9801 32.2015 21.2608C28.3908 18.9896 24.6859 16.7751 21.5698 17.7949C18.4538 18.8147 17.3108 22.6255 16.5915 22.4703L16.5496 22.453C16.0151 22.2067 16.3599 19.8986 17.1482 17.9107C18.3355 14.9252 21.3112 10.6932 26.5827 9.3162C27.7035 9.02307 32.0365 7.95892 36.2586 10.3902C40.4314 12.7919 41.6631 16.8539 42.2297 18.7482C42.4243 19.4133 43.8678 24.2242 42.1656 25.3721Z" fill="#2D2D2D"/>
</g>
</g>
<defs>
<clipPath id="clip0_680_225">
<rect width="60" height="60" fill="white"/>
</clipPath>
<clipPath id="clip1_680_225">
<rect width="60" height="60" fill="white"/>
</clipPath>
</defs>
</svg>
