<svg width="60" height="60" viewBox="0 0 60 60" fill="none" xmlns="http://www.w3.org/2000/svg">
<g clip-path="url(#clip0_711_89)">
<path d="M30 60C46.5685 60 60 46.5685 60 30C60 13.4315 46.5685 0 30 0C13.4315 0 0 13.4315 0 30C0 46.5685 13.4315 60 30 60Z" fill="#B8BAC0"/>
<path d="M30 45.0089C26.507 45.0089 23.3379 43.51 20.9996 41.0874C20.9979 42.5393 20.9451 44.6348 20.5601 46.1638C20.8126 46.3182 21.0086 46.5715 21.0469 46.8868C21.5459 50.9473 25.3945 54.0089 30 54.0089C34.6045 54.0089 38.4531 50.9469 38.9531 46.8868C38.9919 46.5712 39.1836 46.3182 39.44 46.1643C39.055 44.6352 39.0021 42.5394 39.0004 41.0874C36.6621 43.51 33.493 45.0089 30 45.0089Z" fill="#EAB198"/>
<path d="M38.805 41.2719C36.4864 43.5815 33.3997 45.0089 30 45.0089C26.507 45.0089 23.3379 43.51 20.9996 41.0874C20.9979 42.5393 20.9451 44.6348 20.5601 46.1638C20.8126 46.3182 21.0086 46.5715 21.0469 46.8868C21.2675 48.6817 22.1441 50.2798 23.4497 51.506C29.4707 50.6583 36.3046 44.7129 38.805 41.2719Z" fill="black" fill-opacity="0.2"/>
<path d="M39 20.0088H22C19.2431 20.0088 17 22.2519 17 25.0088V31.0088C17 38.7285 22.832 45.0088 30 45.0088C37.168 45.0088 43 38.7285 43 31.0088V24.0088C43 21.8033 41.206 20.0088 39 20.0088Z" fill="#EAB198"/>
<path d="M37 9.00879H24C22.1191 9.00879 20.5381 10.3135 20.1122 12.0649C16.6699 12.5025 14 15.4498 14 19.0088V24.0088C14 26.5859 15.094 28.9902 17 30.6988V25.0088C17 22.2519 19.2431 20.0088 22 20.0088H39C41.206 20.0088 43 21.8032 43 24.0088V30.6977C44.9064 28.9893 46 26.5853 46 24.0088V18.0088C46 13.0464 41.9629 9.00879 37 9.00879Z" fill="#5C546A"/>
<path d="M7.70399 50.0682C13.1952 56.1651 21.1489 60.0002 30 60.0002C38.8511 60.0002 46.8047 56.1651 52.296 50.0682C51.3385 48.7737 49.9882 47.7219 48.252 47.2358C48.212 47.2246 48.1719 47.2158 48.1309 47.2099L40.1485 46.0122C40.0996 46.0048 39.9951 46.0009 39.9454 46.0009C39.4405 46.0009 39.0147 46.3774 38.9531 46.8788C38.4531 50.9388 34.6045 54.0009 30 54.0009C25.3945 54.0009 21.5459 50.9394 21.0469 46.8788C20.9844 46.3627 20.5195 45.9746 20.0292 46.0013C19.9706 45.9979 19.913 46.0028 19.8515 46.0121L11.8691 47.2098C11.8281 47.2157 11.7881 47.2244 11.748 47.2357C10.0117 47.7221 8.66149 48.7737 7.70399 50.0682Z" fill="#5C546A"/>
</g>
<defs>
<clipPath id="clip0_711_89">
<rect width="60" height="60" fill="white"/>
</clipPath>
</defs>
</svg>
