<svg width="647" height="542" viewBox="0 0 647 542" fill="none" xmlns="http://www.w3.org/2000/svg">
<g clip-path="url(#clip0_676_1315)">
<path d="M570.286 32.9249H0.89436C0.655386 32.9196 0.427992 32.8209 0.260856 32.6499C0.0937194 32.479 0.00012207 32.2494 0.00012207 32.0103C0.00012207 31.7712 0.0937194 31.5416 0.260856 31.3706C0.427992 31.1997 0.655386 31.101 0.89436 31.0957H570.286C570.525 31.101 570.753 31.1997 570.92 31.3706C571.087 31.5416 571.181 31.7712 571.181 32.0103C571.181 32.2494 571.087 32.479 570.92 32.6499C570.753 32.8209 570.525 32.9196 570.286 32.9249Z" fill="#CACACA"/>
<path d="M21.0246 20.1207C26.458 20.1207 30.8626 15.6165 30.8626 10.0603C30.8626 4.50417 26.458 0 21.0246 0C15.5912 0 11.1866 4.50417 11.1866 10.0603C11.1866 15.6165 15.5912 20.1207 21.0246 20.1207Z" fill="#F5BF33"/>
<path d="M55.0104 20.1207C60.4438 20.1207 64.8484 15.6165 64.8484 10.0603C64.8484 4.50417 60.4438 0 55.0104 0C49.5771 0 45.1724 4.50417 45.1724 10.0603C45.1724 15.6165 49.5771 20.1207 55.0104 20.1207Z" fill="#F5BF33"/>
<path d="M88.9963 20.1207C94.4296 20.1207 98.8343 15.6165 98.8343 10.0603C98.8343 4.50417 94.4296 0 88.9963 0C83.5629 0 79.1583 4.50417 79.1583 10.0603C79.1583 15.6165 83.5629 20.1207 88.9963 20.1207Z" fill="#F5BF33"/>
<path d="M549.92 2.49365H525.778C525.3 2.50316 524.844 2.69998 524.509 3.04186C524.174 3.38374 523.986 3.84342 523.986 4.32218C523.986 4.80095 524.174 5.26062 524.509 5.6025C524.844 5.94438 525.3 6.14121 525.778 6.15071H549.92C550.399 6.14121 550.854 5.94438 551.189 5.6025C551.525 5.26062 551.712 4.80095 551.712 4.32218C551.712 3.84342 551.525 3.38374 551.189 3.04186C550.854 2.69998 550.399 2.50316 549.92 2.49365Z" fill="#F5BF33"/>
<path d="M549.92 9.35742H525.778C525.3 9.36692 524.844 9.56375 524.509 9.90563C524.174 10.2475 523.986 10.7072 523.986 11.186C523.986 11.6647 524.174 12.1244 524.509 12.4663C524.844 12.8082 525.3 13.005 525.778 13.0145H549.92C550.399 13.005 550.854 12.8082 551.189 12.4663C551.525 12.1244 551.712 11.6647 551.712 11.186C551.712 10.7072 551.525 10.2475 551.189 9.90563C550.854 9.56375 550.399 9.36692 549.92 9.35742Z" fill="#F5BF33"/>
<path d="M549.92 16.2119H525.778C525.3 16.2214 524.844 16.4182 524.509 16.7601C524.174 17.102 523.986 17.5617 523.986 18.0404C523.986 18.5192 524.174 18.9789 524.509 19.3208C524.844 19.6626 525.3 19.8595 525.778 19.869H549.92C550.399 19.8595 550.854 19.6626 551.189 19.3208C551.525 18.9789 551.712 18.5192 551.712 18.0404C551.712 17.5617 551.525 17.102 551.189 16.7601C550.854 16.4182 550.399 16.2214 549.92 16.2119Z" fill="#F5BF33"/>
<path d="M540.905 63.8057H22.285C19.4133 63.81 16.6604 64.953 14.6298 66.9842C12.5992 69.0154 11.4566 71.7691 11.4523 74.6417V76.3892C11.4566 79.2618 12.5992 82.0155 14.6298 84.0467C16.6604 86.0779 19.4133 87.221 22.285 87.2253H540.905C543.777 87.221 546.53 86.0779 548.56 84.0467C550.591 82.0155 551.734 79.2618 551.738 76.3892V74.6417C551.734 71.7691 550.591 69.0154 548.56 66.9842C546.53 64.953 543.777 63.81 540.905 63.8057Z" fill="#F0F0F0"/>
<path d="M84.8729 79.8395H35.5062C34.4017 79.8379 33.3429 79.3979 32.5624 78.616C31.782 77.8342 31.3436 76.7744 31.3436 75.6695C31.3436 74.5646 31.782 73.5049 32.5624 72.723C33.3429 71.9412 34.4017 71.5011 35.5062 71.4995H84.8729C90.249 71.4245 90.3027 79.9153 84.8729 79.8395Z" fill="white"/>
<path d="M232.551 79.8395H183.184C182.08 79.8379 181.021 79.3979 180.24 78.616C179.46 77.8342 179.022 76.7744 179.022 75.6695C179.022 74.5646 179.46 73.5049 180.24 72.723C181.021 71.9412 182.08 71.5011 183.184 71.4995H232.551C237.927 71.4245 237.981 79.9153 232.551 79.8395Z" fill="white"/>
<path d="M380.229 79.8395H330.862C329.758 79.8379 328.699 79.3979 327.919 78.616C327.138 77.8342 326.7 76.7744 326.7 75.6695C326.7 74.5646 327.138 73.5049 327.919 72.723C328.699 71.9412 329.758 71.5011 330.862 71.4995H380.229C385.605 71.4245 385.659 79.9153 380.229 79.8395Z" fill="white"/>
<path d="M520.253 80.2897H470.886C469.781 80.2897 468.72 79.8504 467.939 79.0684C467.157 78.2863 466.718 77.2257 466.718 76.1197C466.718 75.0138 467.157 73.9531 467.939 73.1711C468.72 72.3891 469.781 71.9497 470.886 71.9497H520.253C525.629 71.8747 525.683 80.3655 520.253 80.2897Z" fill="#F5BF33"/>
<path d="M443.231 63.8057H441.43V87.2253H443.231V63.8057Z" fill="white"/>
<path d="M256.873 410.427H45.2129C43.327 410.425 41.5189 409.674 40.1854 408.341C38.8518 407.007 38.1017 405.198 38.0995 403.311V372.303C38.1017 370.416 38.8518 368.607 40.1854 367.274C41.5189 365.94 43.327 365.189 45.2129 365.187H256.873C258.759 365.189 260.567 365.94 261.9 367.274C263.234 368.607 263.984 370.416 263.986 372.303V403.311C263.984 405.198 263.234 407.007 261.9 408.341C260.567 409.674 258.759 410.425 256.873 410.427Z" fill="#F0F0F0"/>
<path d="M236.307 405.627H50.0122C48.1262 405.625 46.3182 404.875 44.9846 403.541C43.6511 402.207 42.9009 400.398 42.8987 398.512V377.106C42.9009 375.219 43.6511 373.411 44.9846 372.077C46.3182 370.743 48.1262 369.992 50.0122 369.99H252.074C253.96 369.992 255.768 370.743 257.102 372.077C258.436 373.411 259.186 375.219 259.188 377.106V382.74C259.181 388.808 256.768 394.625 252.479 398.916C248.189 403.207 242.373 405.62 236.307 405.627Z" fill="white"/>
<path d="M172.046 385.601H86.9752C86.4886 385.601 86.022 385.408 85.6779 385.063C85.3339 384.719 85.1406 384.252 85.1406 383.766C85.1406 383.279 85.3339 382.812 85.6779 382.468C86.022 382.124 86.4886 381.931 86.9752 381.931H172.046C172.533 381.931 172.999 382.124 173.343 382.468C173.688 382.812 173.881 383.279 173.881 383.766C173.881 384.252 173.688 384.719 173.343 385.063C172.999 385.408 172.533 385.601 172.046 385.601Z" fill="#E6E6E6"/>
<path d="M215.111 393.107H86.9752C86.734 393.107 86.495 393.06 86.2719 392.968C86.0489 392.876 85.8461 392.741 85.6753 392.571C85.5046 392.4 85.3691 392.198 85.2766 391.975C85.1842 391.752 85.1366 391.513 85.1366 391.272C85.1366 391.03 85.1842 390.791 85.2766 390.568C85.3691 390.346 85.5046 390.143 85.6753 389.973C85.8461 389.802 86.0489 389.667 86.2719 389.575C86.495 389.483 86.734 389.436 86.9752 389.437H215.111C215.597 389.438 216.062 389.631 216.405 389.975C216.748 390.32 216.941 390.786 216.941 391.272C216.941 391.758 216.748 392.224 216.405 392.568C216.062 392.912 215.597 393.106 215.111 393.107Z" fill="#E6E6E6"/>
<path d="M270.393 329.708H29.0565C27.1308 329.706 25.2845 328.94 23.9228 327.578C22.5611 326.216 21.7952 324.369 21.793 322.442V137.907C21.7952 135.981 22.5611 134.134 23.9229 132.772C25.2846 131.41 27.1308 130.644 29.0565 130.642H270.393C272.319 130.644 274.165 131.41 275.527 132.772C276.889 134.134 277.654 135.981 277.657 137.907V322.442C277.654 324.369 276.889 326.216 275.527 327.578C274.165 328.94 272.319 329.706 270.393 329.708Z" fill="white"/>
<path d="M270.393 330.609H29.0567C26.8922 330.607 24.8171 329.746 23.2866 328.215C21.7561 326.684 20.8951 324.608 20.8926 322.443V137.907C20.8951 135.742 21.7561 133.667 23.2866 132.136C24.8171 130.605 26.8922 129.744 29.0567 129.741H270.393C272.557 129.744 274.633 130.605 276.163 132.136C277.694 133.667 278.555 135.742 278.557 137.907V322.443C278.555 324.608 277.694 326.684 276.163 328.215C274.633 329.746 272.557 330.607 270.393 330.609ZM29.0567 131.543C27.3697 131.545 25.7524 132.216 24.5595 133.409C23.3666 134.602 22.6955 136.22 22.6935 137.907V322.443C22.6954 324.13 23.3664 325.748 24.5593 326.941C25.7522 328.135 27.3696 328.806 29.0567 328.808H270.393C272.08 328.806 273.697 328.135 274.89 326.941C276.083 325.748 276.754 324.13 276.756 322.443V137.907C276.754 136.22 276.083 134.602 274.89 133.409C273.697 132.216 272.08 131.545 270.393 131.543L29.0567 131.543Z" fill="#F0F0F0"/>
<path d="M22.3503 294.579V322.443C22.353 324.221 23.0604 325.926 24.3174 327.183C25.5745 328.441 27.2786 329.148 29.0563 329.151H270.393C272.171 329.148 273.875 328.441 275.132 327.183C276.389 325.926 277.097 324.221 277.099 322.443V294.579H22.3503Z" fill="#F0F0F0"/>
<path d="M24.6246 131.818L23.6537 133.334L276.614 295.337L277.585 293.821L24.6246 131.818Z" fill="#F0F0F0"/>
<path d="M277.328 131.817L24.3679 293.82L25.3388 295.337L278.299 133.334L277.328 131.817Z" fill="#F0F0F0"/>
<path d="M491.087 529.452L479.93 529.451L474.622 486.405L491.089 486.406L491.087 529.452Z" fill="#A0616A"/>
<path d="M490.79 525.805L478.885 520.968L478.534 520.824L471.961 525.805C468.353 525.804 464.885 527.197 462.279 529.693C459.674 532.188 458.132 535.594 457.976 539.199C457.958 539.397 457.958 539.604 457.958 539.812V540.271H493.932V525.805H490.79Z" fill="#2F2E41"/>
<path d="M464.959 519.067L454.434 522.771L435.144 483.926L450.677 478.46L464.959 519.067Z" fill="#A0616A"/>
<path d="M463.468 515.725L450.634 515.114L450.255 515.095L445.707 521.976C442.304 523.173 439.495 525.639 437.865 528.858C436.235 532.077 435.911 535.801 436.96 539.254C437.008 539.447 437.077 539.642 437.146 539.838L437.298 540.271L471.233 528.327L466.433 514.681L463.468 515.725Z" fill="#2F2E41"/>
<path d="M495.03 343.844C505.237 343.448 492.593 424.813 492.593 424.813C492.593 424.813 496.291 496.248 495.507 499.996C494.723 503.745 495.408 513.856 495.408 513.856C493.409 510.215 472.777 512.963 472.777 512.963L469.971 440.564L455.641 382.556L435.775 421.439L454.816 481.124C454.816 481.124 462.527 488.261 461.707 491.082C460.887 493.903 440.689 500.264 436.977 500.408C433.266 500.551 434.942 495.839 434.762 491.198C434.582 486.557 417.116 443.544 410.973 428.908C404.83 414.273 409.606 393.637 412.742 378.642C415.877 363.647 432.375 335.506 432.375 335.506C452.853 312.402 484.823 344.24 495.03 343.844Z" fill="#F6FCB4"/>
<path d="M370.64 278.091C371.199 279.16 371.986 280.093 372.944 280.824C373.903 281.556 375.01 282.068 376.188 282.326C377.366 282.583 378.586 282.579 379.762 282.313C380.938 282.048 382.042 281.528 382.995 280.79L407.54 296.809L407.466 281.574L384.168 268.698C382.822 267.178 380.966 266.205 378.95 265.963C376.935 265.72 374.901 266.226 373.233 267.384C371.566 268.542 370.381 270.271 369.903 272.245C369.425 274.218 369.687 276.298 370.64 278.091Z" fill="#A0616A"/>
<path d="M489.728 356.888C464.416 356.889 450.467 351.821 443.06 347.295C434.002 341.761 432.452 335.925 432.391 335.679L432.373 335.609L433.254 324.511L433.64 323.647C435.417 319.669 435.652 315.173 434.301 311.031L434.274 310.945L434.281 310.856L440.199 234.072L461.144 227.209L467.237 221.085L494.366 220.691L498.146 228.357L519.533 236.411L509.026 298.974L503.989 307.659L506.016 317.12L506.002 317.205L499.394 356.658L499.03 356.674C495.771 356.82 492.671 356.891 489.728 356.888Z" fill="#F5BF33"/>
<path d="M424.244 308.984L414.314 303.095L413.691 302.196C412.427 300.377 410.754 298.879 408.807 297.823C406.859 296.768 404.691 296.184 402.477 296.118L402.361 296.114L388.684 288.071L394.354 271.458L415.794 277.794L430.742 240.643C431.562 238.602 432.933 236.83 434.701 235.522C436.469 234.214 438.565 233.423 440.756 233.236C442.946 233.048 445.146 233.473 447.11 234.461C449.074 235.45 450.726 236.964 451.881 238.835C453.064 240.792 453.678 243.039 453.652 245.326V269.634L453.563 269.755L424.244 308.984Z" fill="#F5BF33"/>
<path d="M490.633 342.6C490.846 341.413 491.316 340.286 492.01 339.301C492.705 338.315 493.607 337.493 494.653 336.894C495.699 336.294 496.864 335.932 498.066 335.832C499.267 335.731 500.476 335.896 501.607 336.313L520.207 313.658L524.712 328.211L506.358 347.494C505.531 349.348 504.052 350.834 502.203 351.671C500.353 352.507 498.261 352.636 496.323 352.033C494.384 351.43 492.735 350.136 491.686 348.398C490.638 346.659 490.263 344.596 490.633 342.6Z" fill="#A0616A"/>
<path d="M518.444 339.737L506.093 327.381L513.955 308.218L525.35 292.654C513.208 286.741 504.093 272.734 497.489 261.138L497.415 261.008L499.059 248.124C499.444 245.11 500.651 242.261 502.547 239.888C504.197 237.825 506.316 236.186 508.728 235.11C511.14 234.034 513.774 233.551 516.411 233.701C519.048 233.852 521.61 234.632 523.884 235.976C526.157 237.32 528.076 239.19 529.48 241.428L551.624 290.67L551.375 291.043L533.563 321.415L528.702 324.568L518.444 339.737Z" fill="#F5BF33"/>
<path d="M500.28 194.863C499.466 200.8 496.328 206.171 491.557 209.796C486.786 213.421 480.772 215.003 474.835 214.195C468.899 213.387 463.526 210.255 459.897 205.486C456.268 200.717 454.679 194.703 455.481 188.764L455.525 188.443C456.461 182.583 459.663 177.326 464.439 173.806C469.216 170.287 475.184 168.786 481.056 169.628C486.929 170.471 492.235 173.589 495.83 178.309C499.425 183.03 501.021 188.975 500.273 194.862L500.28 194.863Z" fill="#A0616A"/>
<path d="M494.527 206.51C495.687 204.151 496.88 201.619 496.554 199.01C496.228 196.401 493.67 193.907 491.158 194.682C489.656 195.146 488.521 196.629 486.951 196.705C484.791 196.81 483.553 194.337 482.88 192.281L480.142 183.907C477.512 185.957 474.463 187.401 471.211 188.136C467.959 188.871 464.585 188.879 461.33 188.159C458.788 187.578 456.219 186.444 454.728 184.304C453.236 182.164 453.245 178.844 455.291 177.225C456.294 176.432 457.629 176.13 458.587 175.283C459.182 174.758 459.592 174.055 459.756 173.279C459.92 172.503 459.83 171.694 459.499 170.973C459.169 170.252 458.614 169.656 457.919 169.274C457.223 168.893 456.423 168.745 455.638 168.853L462.533 167.991L460.478 164.275C461.259 164.806 462.142 165.169 463.071 165.34C464 165.51 464.955 165.485 465.874 165.265C467.729 164.931 469.476 164.167 471.29 163.657C475.689 162.534 480.334 162.877 484.52 164.635C488.706 166.393 492.204 169.47 494.482 173.399C496.178 172.832 498.007 172.794 499.726 173.291C501.444 173.787 502.971 174.794 504.105 176.178C505.951 178.522 506.453 181.649 506.524 184.631C506.658 190.512 505.377 196.338 502.787 201.619C502.044 203.297 500.977 204.811 499.647 206.074C498.978 206.701 498.179 207.173 497.308 207.458C496.437 207.743 495.514 207.834 494.603 207.724" fill="#2F2E41"/>
<path d="M128.204 183.243C128.572 188.51 130.124 193.626 132.742 198.21C138.259 207.903 147.721 214.921 157.912 219.092C170.643 224.304 184.836 224.464 198.348 223.302C210.897 222.223 223.319 219.721 235.915 219.206C245.656 218.894 255.407 219.126 265.122 219.902C283.97 221.241 302.741 223.724 321.39 226.734C326.44 227.539 331.481 228.404 336.51 229.329C336.985 229.371 337.456 229.459 337.914 229.59C338.006 229.628 338.152 229.598 338.236 229.651C338.388 229.747 337.622 229.409 338.086 229.792C338.733 230.471 339.31 231.214 339.808 232.009L346.696 240.875C348.671 243.418 350.504 246.507 353.057 248.511C354.857 249.902 357.028 250.729 359.297 250.887C361.566 251.045 363.831 250.528 365.807 249.4C367.87 248.096 369.516 246.226 370.548 244.013C372.132 241.106 374.022 238.377 376.186 235.872C384.38 226.31 395.769 220.429 405.294 212.383C409.908 208.645 413.845 204.143 416.935 199.071C419.571 194.482 421.21 189.389 421.745 184.124C422.886 173.43 419.606 162.526 414.089 153.429C408.087 143.656 399.466 135.763 389.205 130.646C377.677 124.771 364.921 121.909 352.134 120.483C338.558 118.969 324.824 118.974 311.182 119.127C295.872 119.297 280.589 119.971 265.334 121.147C250.058 122.33 234.843 124.011 219.688 126.19C205.146 128.282 190.426 130.462 176.191 134.162C163.616 137.432 151.077 142.541 141.686 151.8C133.337 160.032 127.53 171.297 128.204 183.243Z" fill="#F5BF33"/>
<path d="M198.495 186.645C197.873 186.617 197.264 186.46 196.706 186.185C196.148 185.91 195.652 185.523 195.251 185.047C194.85 184.571 194.552 184.017 194.375 183.42C194.198 182.823 194.147 182.196 194.224 181.579L194.548 179.034C194.609 178.546 194.552 178.05 194.379 177.59C194.207 177.129 193.926 176.717 193.559 176.389L191.648 174.681C191.023 174.122 190.566 173.399 190.33 172.594C190.093 171.788 190.087 170.933 190.311 170.124C190.536 169.316 190.982 168.586 191.599 168.018C192.217 167.449 192.981 167.065 193.805 166.909L196.324 166.43C196.807 166.339 197.26 166.131 197.645 165.825C198.03 165.519 198.335 165.124 198.533 164.675L199.567 162.326C199.905 161.558 200.452 160.9 201.144 160.427C201.837 159.954 202.648 159.684 203.486 159.647C204.324 159.611 205.156 159.81 205.887 160.221C206.618 160.633 207.219 161.241 207.623 161.977L208.855 164.225C209.092 164.657 209.43 165.024 209.84 165.296C210.25 165.568 210.72 165.736 211.21 165.786L213.76 166.043C214.594 166.128 215.389 166.444 216.053 166.957C216.718 167.469 217.225 168.158 217.519 168.944C217.812 169.73 217.88 170.583 217.715 171.405C217.549 172.228 217.157 172.988 216.582 173.599L214.826 175.467C214.488 175.825 214.243 176.259 214.112 176.733C213.98 177.207 213.966 177.706 214.07 178.186L214.612 180.694C214.79 181.514 214.734 182.368 214.452 183.158C214.17 183.948 213.672 184.643 213.016 185.165C212.359 185.688 211.57 186.015 210.737 186.112C209.903 186.209 209.06 186.071 208.301 185.713L205.982 184.62C205.538 184.409 205.048 184.31 204.557 184.331C204.066 184.352 203.587 184.493 203.162 184.741L200.946 186.032C200.204 186.466 199.354 186.679 198.495 186.645Z" fill="white"/>
<path d="M234.6 185.596C233.456 185.543 232.374 185.06 231.571 184.243C231.086 183.729 230.724 183.112 230.513 182.437C230.302 181.762 230.247 181.049 230.352 180.35L230.649 178.015C230.712 177.518 230.653 177.013 230.478 176.543C230.303 176.074 230.016 175.654 229.642 175.32L227.87 173.736C227.347 173.29 226.93 172.732 226.65 172.105C226.37 171.477 226.233 170.795 226.25 170.107C226.288 169.089 226.672 168.114 227.337 167.343C228.002 166.571 228.909 166.048 229.91 165.86L232.4 165.387C232.892 165.293 233.354 165.081 233.746 164.769C234.138 164.457 234.449 164.055 234.651 163.596L235.579 161.488C235.91 160.689 236.456 159.996 237.156 159.486C237.856 158.977 238.683 158.67 239.546 158.6C240.392 158.552 241.234 158.746 241.974 159.158C242.715 159.57 243.323 160.183 243.728 160.928L244.946 163.15C245.187 163.59 245.532 163.964 245.95 164.241C246.368 164.518 246.847 164.689 247.346 164.74L249.709 164.979C250.395 165.032 251.06 165.238 251.656 165.582C252.252 165.925 252.763 166.397 253.154 166.964C253.72 167.81 253.982 168.824 253.897 169.839C253.812 170.853 253.385 171.81 252.687 172.55L250.951 174.396C250.608 174.761 250.359 175.204 250.225 175.686C250.091 176.169 250.076 176.677 250.182 177.166L250.682 179.482C250.842 180.15 250.852 180.846 250.711 181.518C250.57 182.191 250.282 182.824 249.866 183.372C249.239 184.176 248.356 184.743 247.363 184.978C246.371 185.213 245.327 185.102 244.406 184.664L242.111 183.582C241.658 183.369 241.161 183.269 240.661 183.291C240.161 183.312 239.674 183.455 239.241 183.707L237.051 184.983C236.309 185.417 235.459 185.63 234.6 185.596Z" fill="white"/>
<path d="M270.798 185.443C270.177 185.415 269.568 185.258 269.009 184.983C268.451 184.708 267.956 184.321 267.555 183.845C267.153 183.369 266.855 182.815 266.678 182.218C266.502 181.621 266.45 180.994 266.528 180.377L266.851 177.832C266.913 177.344 266.855 176.848 266.683 176.387C266.511 175.927 266.229 175.515 265.862 175.187L263.952 173.479C263.326 172.92 262.869 172.197 262.633 171.391C262.397 170.586 262.39 169.731 262.615 168.922C262.839 168.113 263.285 167.384 263.903 166.816C264.52 166.247 265.284 165.863 266.108 165.707L268.627 165.228C269.11 165.136 269.564 164.929 269.948 164.623C270.333 164.317 270.638 163.922 270.836 163.472L271.87 161.124C272.209 160.356 272.755 159.698 273.448 159.225C274.14 158.752 274.952 158.481 275.79 158.445C276.628 158.409 277.459 158.608 278.19 159.019C278.921 159.431 279.523 160.039 279.926 160.774L281.159 163.023C281.395 163.454 281.733 163.822 282.143 164.094C282.553 164.366 283.024 164.534 283.513 164.583L286.063 164.841C286.898 164.926 287.692 165.242 288.357 165.755C289.021 166.267 289.529 166.955 289.822 167.742C290.116 168.528 290.184 169.38 290.018 170.203C289.852 171.026 289.46 171.786 288.885 172.397L287.129 174.265C286.792 174.623 286.547 175.057 286.415 175.531C286.284 176.005 286.269 176.504 286.374 176.984L286.916 179.492C287.093 180.312 287.037 181.165 286.755 181.956C286.473 182.746 285.976 183.441 285.319 183.963C284.663 184.485 283.873 184.813 283.04 184.91C282.207 185.007 281.363 184.869 280.605 184.511L278.286 183.418C277.841 183.207 277.352 183.108 276.86 183.129C276.369 183.15 275.89 183.291 275.465 183.539L273.249 184.83C272.508 185.264 271.657 185.477 270.798 185.443Z" fill="white"/>
<path d="M306.008 184.487C305.386 184.459 304.777 184.303 304.219 184.028C303.66 183.753 303.165 183.365 302.764 182.889C302.363 182.413 302.064 181.859 301.888 181.263C301.711 180.666 301.66 180.039 301.737 179.421L302.06 176.877C302.122 176.388 302.064 175.893 301.892 175.432C301.72 174.971 301.438 174.559 301.072 174.231L299.161 172.523C298.535 171.964 298.079 171.241 297.842 170.436C297.606 169.631 297.6 168.775 297.824 167.967C298.049 167.158 298.495 166.428 299.112 165.86C299.729 165.292 300.494 164.908 301.318 164.751L303.837 164.273C304.32 164.181 304.773 163.973 305.158 163.667C305.543 163.362 305.847 162.967 306.046 162.517L307.079 160.168C307.418 159.4 307.964 158.743 308.657 158.269C309.35 157.796 310.161 157.526 310.999 157.49C311.837 157.453 312.669 157.652 313.4 158.064C314.131 158.475 314.732 159.083 315.136 159.819L316.368 162.067C316.605 162.499 316.942 162.866 317.353 163.138C317.763 163.41 318.233 163.578 318.722 163.628L321.272 163.886C322.107 163.97 322.902 164.286 323.566 164.799C324.23 165.312 324.738 166 325.031 166.786C325.325 167.572 325.393 168.425 325.227 169.248C325.062 170.07 324.669 170.83 324.094 171.442L322.338 173.309C322.001 173.667 321.756 174.102 321.625 174.576C321.493 175.049 321.479 175.548 321.583 176.029L322.125 178.537C322.302 179.357 322.247 180.21 321.965 181C321.683 181.79 321.185 182.486 320.529 183.008C319.872 183.53 319.082 183.858 318.249 183.955C317.416 184.051 316.573 183.913 315.814 183.555L313.495 182.462C313.05 182.252 312.561 182.153 312.07 182.174C311.578 182.195 311.099 182.335 310.674 182.583L308.459 183.874C307.717 184.308 306.867 184.521 306.008 184.487Z" fill="white"/>
<path d="M341.217 183.532C340.595 183.504 339.986 183.348 339.428 183.073C338.87 182.798 338.375 182.41 337.973 181.934C337.572 181.458 337.274 180.904 337.097 180.307C336.92 179.711 336.869 179.084 336.947 178.466L337.27 175.921C337.331 175.433 337.274 174.938 337.101 174.477C336.929 174.016 336.648 173.604 336.281 173.276L334.37 171.568C333.745 171.009 333.288 170.286 333.052 169.481C332.815 168.675 332.809 167.82 333.034 167.011C333.258 166.203 333.704 165.473 334.321 164.905C334.939 164.337 335.703 163.953 336.527 163.796L339.046 163.317C339.529 163.226 339.982 163.018 340.367 162.712C340.752 162.406 341.057 162.012 341.255 161.562L342.289 159.213C342.627 158.445 343.174 157.788 343.866 157.314C344.559 156.841 345.37 156.571 346.208 156.534C347.046 156.498 347.878 156.697 348.609 157.109C349.34 157.52 349.941 158.128 350.345 158.864L351.577 161.112C351.814 161.544 352.152 161.911 352.562 162.183C352.972 162.455 353.442 162.623 353.932 162.673L356.482 162.93C357.316 163.015 358.111 163.331 358.775 163.844C359.439 164.357 359.947 165.045 360.241 165.831C360.534 166.617 360.602 167.47 360.437 168.293C360.271 169.115 359.879 169.875 359.304 170.486L357.548 172.354C357.21 172.712 356.965 173.147 356.834 173.62C356.702 174.094 356.688 174.593 356.792 175.073L357.334 177.582C357.512 178.402 357.456 179.255 357.174 180.045C356.892 180.835 356.394 181.531 355.738 182.053C355.081 182.575 354.292 182.903 353.459 183C352.626 183.096 351.782 182.958 351.023 182.6L348.704 181.507C348.26 181.297 347.77 181.197 347.279 181.219C346.788 181.24 346.309 181.38 345.884 181.628L343.668 182.919C342.926 183.353 342.076 183.566 341.217 183.532Z" fill="white"/>
<path d="M565.536 484.037L566.566 460.871C577.304 455.129 589.28 452.097 601.455 452.036C584.699 465.74 586.793 492.156 575.432 510.585C571.845 516.305 567.017 521.145 561.306 524.745C555.594 528.345 549.146 530.614 542.439 531.382L528.417 539.971C526.493 529.241 526.917 518.221 529.661 507.671C532.404 497.121 537.401 487.291 544.308 478.859C548.229 474.167 552.726 469.987 557.692 466.419C561.05 475.277 565.536 484.037 565.536 484.037Z" fill="#F2F2F2"/>
<path d="M645.928 542H270.085C269.801 542 269.528 541.887 269.327 541.686C269.126 541.485 269.013 541.212 269.013 540.928C269.013 540.643 269.126 540.37 269.327 540.169C269.528 539.968 269.801 539.855 270.085 539.855H645.928C646.212 539.855 646.485 539.968 646.686 540.169C646.887 540.37 647 540.643 647 540.928C647 541.212 646.887 541.485 646.686 541.686C646.485 541.887 646.212 542 645.928 542Z" fill="#CACACA"/>
</g>
<defs>
<clipPath id="clip0_676_1315">
<rect width="647" height="542" fill="white"/>
</clipPath>
</defs>
</svg>
