<svg width="58" height="58" viewBox="0 0 58 58" fill="none" xmlns="http://www.w3.org/2000/svg">
<path d="M10.6974 49.3018L6.6265 3.625H51.3735L47.2972 49.2946L28.9728 54.375L10.6974 49.3018Z" fill="#1572B6"/>
<path d="M29 50.4927L43.8081 46.3873L47.2917 7.3606H29V50.4927Z" fill="#33A9DC"/>
<path d="M29 23.9086H36.4131L36.9242 18.172H29V12.5696H29.0199H43.0469L42.9128 14.0721L41.5371 29.511H29V23.9086Z" fill="white"/>
<path d="M29.0344 38.4577L29.0091 38.465L22.7704 36.7793L22.3717 32.3115H19.3394H16.7475L17.5323 41.1076L29.0073 44.294L29.0344 44.2867V38.4577Z" fill="#EBEBEB"/>
<path d="M35.9364 29.2737L35.2622 36.7756L29.0145 38.4612V44.2902L40.4985 41.1075L40.5837 40.1614L41.557 29.2737H35.9364Z" fill="white"/>
<path d="M29.0199 12.5696V16.0496V18.1575V18.172H15.5059H15.4878L15.3754 16.9123L15.1199 14.0721L14.9857 12.5696H29.0199Z" fill="#EBEBEB"/>
<path d="M29 23.9087V27.3887V29.4966V29.5111H22.8574H22.8393L22.7269 28.2514L22.4732 25.4113L22.3391 23.9087H29Z" fill="#EBEBEB"/>
</svg>
